<?xml version="1.0" encoding="utf-8"?>
<!-- Generator: Adobe Illustrator 24.0.0, SVG Export Plug-In . SVG Version: 6.00 Build 0)  -->
<svg version="1.1" id="Layer_2" xmlns="http://www.w3.org/2000/svg" xmlns:xlink="http://www.w3.org/1999/xlink" x="0px" y="0px"
	 viewBox="0 0 1500 2000" style="enable-background:new 0 0 1500 2000;" xml:space="preserve">
<style type="text/css">
	.st0{fill:none;}
</style>
<path class="st0" d="M111.5,1983.5c-44-66-18-195-48-297s-44-50-16-166s14-391,78-433s273-128,305-116"/>
<path class="st0" d="M493.5,902.5c0,66,55,180,127,288s36,85,21,116"/>
<path class="st0" d="M479.5,906.5c-49,65-87,124-41,202s67,150,67,150s79,29,119-28"/>
<path class="st0" d="M648.5,1350.5c-9,140,15,300-12,376"/>
<path class="st0" d="M522.5,1904.5c-6-52,12-201,34-193s86,40,162,34s32-38,151-34s251,21,251,21"/>
<path class="st0" d="M560.5,1918.5c49,3,100,23,148,65"/>
<path class="st0" d="M521.5,1718.5c-54-1-150,14-165,51s2,110,2,110"/>
<path class="st0" d="M194.5,1211.5c8,93,147,444,147,472"/>
<path class="st0" d="M547.5,1697.5c32-97,13-318,18-365"/>
<path class="st0" d="M568,1091.6c62.5,43.9,120.5,80.9,193.5,26.9"/>
<path class="st0" d="M609.7,1254.1c85.8,140.4,243.8,409.4,283.8,450.4"/>
<path class="st0" d="M659.5,1440.5c39,58,173,265,173,265"/>
<path class="st0" d="M858.5,933.5c-29,103-124,196-94,272s50,173,76,233s88,220,88,259"/>
<path class="st0" d="M1028.5,1700.5c28-103,55-192,92-234s72-68,82-55"/>
<path class="st0" d="M1102.5,1583.5c21-46,102-108,159-117s30,32,30,32"/>
<path class="st0" d="M1123.5,1628.5c30-42,70-57,124-81s70-24,72,0"/>
<path class="st0" d="M1129.5,1697.5c15-27,46-37,67-58s71-54,75-31"/>
<path class="st0" d="M974.5,891.5c52,25,279,37,315,86s80,180,118,321s67,173,54,211s11,77,7,128s-27,65-29,122s-9,159-60,237"/>
<path class="st0" d="M1254.5,1950.5c-44-72-84-182-85-224"/>
<path class="st0" d="M1127.5,1417.5c27-162,67-211,127-303"/>
<path class="st0" d="M1118.5,991.5c-58,161-19,344-5,385"/>
<path class="st0" d="M793.5,1098.5c48,31,106,81,135,92"/>
<path class="st0" d="M930.5,902.5c34,55,9,288,9,288"/>
<path class="st0" d="M824.5,1186.5c29,38,64,188,109,272s78,217,78,217"/>
<path class="st0" d="M821.5,344.5c-17-99-99-164-280-106s-144,139-190,166"/>
<path class="st0" d="M668.5,260.5c-116,28-208,88-102,310c21,54-21,120-21,120"/>
<path class="st0" d="M846.5,303.5c44-17,101,26,135,130s51,173,51,173"/>
<path class="st0" d="M893.5,427.5c37,84,156,173,182,241s12,146-27,161"/>
<path class="st0" d="M831.5,412.5c7,92,93,241,57,361"/>
<path class="st0" d="M791.5,378.5c-18-23-204,2-224,75"/>
<path class="st0" d="M300.5,457.5c-15,33.2,46,96,90,34"/>
<path class="st0" d="M236.5,780.5c71,3,220-46,199-190s79-254,79-254"/>
<path class="st0" d="M525.5,575.5c-35,44,22,98,24,160s-3,157-55,157"/>
<path class="st0" d="M293.5,933.5c8,32,59,61,112,3"/>
<path class="st0" d="M289.5,836.5c44,15,137,13,166-53s2-132,36-170"/>
<path class="st0" d="M196.5,640.5c69-4,193-73,203-191s113-160,113-160"/>
<path class="st0" d="M835.5,279.5c-22-62-216-159-412-10"/>
<path class="st0" d="M842.5,260.5c50,2,99,76,99,76"/>
<path class="st0" d="M540.5,906.5c29,58,143,156,273,49"/>
<path class="st0" d="M866.5,475.5c36,57,76,179,108,232s35,163-35,182"/>
<path class="st0" d="M639.5,695.5"/>
</svg>
