<?xml version="1.0" encoding="utf-8"?>
<!-- Generator: Adobe Illustrator 24.0.0, SVG Export Plug-In . SVG Version: 6.00 Build 0)  -->
<svg version="1.1" id="Layer_1" xmlns="http://www.w3.org/2000/svg" xmlns:xlink="http://www.w3.org/1999/xlink" x="0px" y="0px"
	 viewBox="0 0 400 400" style="enable-background:new 0 0 400 400;" xml:space="preserve">
<g>
	<path d="M219.9,37.6c-2.5,0.7-5.1,0.5-7.3,1.2c-1.2,0.3-2.3,0.8-3.5,1.2l-1.8,0.6c-0.6,0.2-1.3,0.4-1.7,0.6c-1,0.4-2,1-3.1,1.6
		c-0.6,0.3-1.2,0.6-1.8,0.9c-0.7,0.3-1.4,0.5-2.1,0.7c-1.4,0.3-2.6,0.5-3.8,0.7c-1.2,0.2-2.1,0.5-3.2,0.9c-1,0.4-2.1,1-3.3,1.5
		c-0.6,0.3-1.2,0.6-1.9,0.8c-0.7,0.3-1.3,0.4-1.9,0.6l-3.6,1.1c-0.6,0.2-1.1,0.4-1.7,0.6c-0.6,0.2-1.3,0.4-1.9,0.6
		c-1.2,0.4-2.4,0.8-3.5,1.2c-0.6,0.2-1.1,0.4-1.6,0.6l-1.7,0.7c-2.3,0.9-4.5,1.9-7,2.9c-1.2,0.5-2.3,0.9-3.4,1.4l-0.8,0.3l-0.8,0.4
		l-1.7,0.8l-3.3,1.6c-0.6,0.3-1,0.5-1.5,0.7c-0.5,0.3-1,0.6-1.5,0.9c-1,0.6-2.2,1.3-3.5,2l-3.3,1.7l-3.3,1.7
		c-1.2,0.7-2.4,1.2-3.5,1.8l-1.5,0.8l-1.6,0.9c-1.4,0.8-2.7,1.3-3.8,1.8c-1.1,0.5-1.8,0.9-2.3,1.3c-0.6,0.5-1.4,1.2-2.4,2.1
		c-0.5,0.5-1.1,1-1.8,1.5c-0.3,0.3-0.7,0.5-1.1,0.8c-0.4,0.3-0.9,0.5-1.3,0.7c-1.6,0.8-3,1.3-3.8,1.7c-0.4,0.2-0.7,0.4-0.9,0.5
		c-0.1,0.1-0.4,0.3-0.6,0.5c-0.6,0.5-1.3,1.4-2.3,2.5c-0.5,0.5-1.1,1.1-1.8,1.7l-1.5,1.3l-2.8,2.3l-1.4,1.1l-1.3,1.2l-2.7,2.5
		l-1.4,1.3c-0.6,0.5-1.2,1-1.7,1.5c-1.1,0.9-2,1.5-2.7,2.1c-0.5,0.4-1.5,1.5-2.3,2.3l-2.5,2.6l-0.6,0.7l-0.7,0.8l-1.4,1.4
		c-0.9,0.9-1.6,1.7-2.3,2.5l-0.2,0.3l-0.2,0.2l-0.3,0.4c-0.2,0.3-0.5,0.7-0.8,1.2c-0.6,1-1.3,2.2-2.3,3.7c-1.1,1.4-2.1,2.5-2.9,3.4
		c-0.8,0.9-1.4,1.6-1.8,2.1c-0.3,0.5-0.7,1.3-1.3,2.4c-0.3,0.6-0.6,1.2-0.9,1.9c-0.2,0.3-0.4,0.7-0.6,1.1l-0.5,0.9
		c-0.4,0.7-0.8,1.6-1.3,2.7c-0.3,0.6-0.5,1.2-0.9,1.9l-0.5,1c-0.2,0.3-0.5,0.9-0.7,1.2c-1.1,1.7-2,2.7-2.6,3.5
		c-0.3,0.4-0.5,0.7-0.6,0.9c-0.1,0.1-0.1,0.2-0.1,0.2c0,0.1-0.1,0.2-0.1,0.3c-0.2,0.6-0.5,1.5-0.8,2.9c-0.2,0.7-0.4,1.5-0.7,2.3
		c-0.3,0.9-0.8,1.8-1.2,2.6c-0.8,1.5-1.5,2.6-2,3.4c-0.2,0.4-0.4,0.7-0.4,0.9l-0.3,0.8l-0.4,1c-0.5,1.3-1,2.4-1.4,3.4
		c-0.2,0.5-0.3,0.9-0.5,1.3l-0.5,1.7l-1,3.4l-0.4,1.5c0,0.1,0,0.3-0.1,0.6c-0.1,0.7,0,2-0.1,3.9c0,0.5-0.1,1-0.2,1.5l-0.2,1.2
		c-0.1,0.4-0.1,0.9-0.2,1.4l-0.4,3.7l-0.2,1.1l-0.1,0.7c0,0.3-0.1,0.5-0.2,0.7c-0.2,0.9-0.5,1.8-0.7,2.4c-0.5,1.4-0.8,2.3-0.8,2.7
		c0,0,0,0.1,0,0.1l0,0.2l-0.1,0.9l-0.2,1.8l-0.4,3.6l0,0.4l0,0.3l0,0.7c0,0.5,0,1,0,1.6c0,1.2,0.1,2.5,0.1,4c0,1.6-0.2,3.1-0.3,4.3
		c-0.1,0.6-0.1,1.1-0.1,1.6l0,0.7l0,0.3c0,0.1,0,0.2,0,0.2c0,0.2,0.1,1,0.5,2.2c0.2,0.6,0.4,1.4,0.5,2.2c0.1,0.4,0.2,0.9,0.2,1.4
		l0.1,0.8l0,0.7c0.1,1.8,0,3.2-0.1,4.3c0,0.5,0,1,0,1.4c0,0.2,0,0.3,0,0.5c0,0.1,0,0.4,0.1,0.6c0.1,0.8,0.4,1.9,0.7,3.2
		c0.3,1.3,0.6,2.8,0.8,4.6c0.2,1.7,0.2,3,0.2,4c0,0.5,0.1,0.9,0.1,1.2l0,0.2c0,0,0,0.1,0,0.1c0,0.1,0.1,0.2,0.1,0.3
		c0.2,0.6,0.7,1.6,1.3,3c0.3,0.7,0.6,1.6,0.9,2.6c0.3,1,0.5,2.1,0.6,2.9c0.2,1.7,0.2,2.9,0.3,3.7c0,0.4,0.1,0.6,0.1,0.7
		c0.1,0.3,0.2,0.7,0.4,1.2c0.4,0.9,0.9,2,1.4,3.4l0.4,1.1l0.3,0.9c0.1,0.3,0.2,0.6,0.5,1c0.4,0.8,1.1,2,1.8,3.5
		c0.4,0.7,0.7,1.7,1,2.4c0.3,0.8,0.5,1.5,0.7,2.2c0.4,1.3,0.7,2.3,0.9,3.1c0.1,0.2,0.1,0.3,0.2,0.5l0.3,0.6c0.2,0.4,0.5,0.9,0.7,1.4
		c0.5,1,1.2,2.1,1.8,3.4l0.2,0.5l0.3,0.7c0.2,0.5,0.4,1,0.5,1.4c0.3,0.9,0.5,1.7,0.7,2.3c0.3,1.3,0.6,2,0.6,2.2l0,0l0.1,0.1l0.2,0.3
		l0.4,0.6c0.3,0.4,0.6,0.9,0.9,1.4c0.7,1,1.5,2.2,2.3,3.5c0.1,0.2,0.6,0.7,1.4,1.6c0.4,0.5,1,1,1.5,1.7c0.3,0.3,0.6,0.7,0.9,1.1
		c0.3,0.4,0.7,1,0.8,1.1l4.3,6.4c1,1.7,1.6,3.1,2,4c0.2,0.4,0.4,0.8,0.5,1c0.1,0.1,0.1,0.2,0.1,0.2c0.1,0.1,0.2,0.2,0.3,0.3
		c0.4,0.5,1.2,1.2,2.3,2.2c0.5,0.5,1.1,1,1.7,1.7c0.6,0.6,1.3,1.5,1.8,2.2c1,1.5,1.6,2.6,2.1,3.3c0.2,0.4,0.4,0.6,0.6,0.8
		c0,0,0.2,0.2,0.3,0.3l0.4,0.4c0.7,0.6,1.6,1.3,2.7,2.3c0.5,0.5,1.1,1,1.8,1.6l1.3,1.3c1.7,1.7,3.4,3.4,5.2,4.9l2.7,2.4l1.6,1.4
		c0.6,0.6,1.2,1.1,1.7,1.7c1,1,1.7,1.8,2.2,2.2c0.1,0.1,0.2,0.2,0.4,0.3l0.7,0.5l1.5,1.1l2.9,2.1c0.5,0.4,0.9,0.6,1.3,0.9l1.4,0.9
		l3.3,2l0.6,0.4l0.6,0.3c0.4,0.2,0.9,0.5,1.4,0.7c1.1,0.5,2.3,1.1,3.7,1.9c1.5,0.8,2.7,1.7,3.6,2.3c0.5,0.3,0.9,0.6,1.3,0.8
		c0.2,0.1,0.4,0.2,0.5,0.3l0.3,0.2c0,0.1,0.8,0.3,2.1,0.5c0.7,0.1,1.4,0.3,2.4,0.5c0.5,0.1,1,0.3,1.5,0.5l0.8,0.3l0.5,0.2l3.5,1.6
		c0.5,0.2,1,0.5,1.5,0.6l0.7,0.3l0.7,0.3l0.7,0.3c1.8,0.9,2.9,1.7,3.7,2.2c0.4,0.2,0.7,0.4,0.8,0.4c0.2,0.1,0.1,0,0.3,0.1
		c0.4,0.1,1.5,0.1,3,0.2c0.8,0,1.7,0.1,2.8,0.3c1.1,0.2,2.1,0.5,2.9,0.8c1.6,0.6,2.8,1.2,3.5,1.5c0.4,0.2,0.6,0.2,0.8,0.3
		c0.2,0,0.6,0.1,1,0.1c0.9,0.1,2,0.1,3.5,0.2c0.7,0,1.6,0.1,2.4,0.2c0.5,0.1,1,0.1,1.5,0.1c1.1,0.1,2.3,0.1,3.6,0.2
		c2.9,0.2,5.3,0.5,7.5,0.6l0.8,0l0.6,0l0.7,0c0.9,0.1,1.7,0.2,2.4,0.3c1.4,0.2,2.4,0.4,3,0.4c0.3,0,0.4,0,0.7,0
		c0.3,0,0.7-0.1,1.2-0.2c1-0.2,2.4-0.7,4.3-1l7.5-0.9l7-1c0.7-0.1,1.7-0.5,2.9-0.9l1.9-0.6l1.1-0.3l0.6-0.2l0.8-0.2
		c2.1-0.4,3.6-0.3,4.7-0.4c0.5,0,1,0,1.3-0.1c0.1,0,0.2,0,0.3-0.1l0,0c0,0,0.1,0,0.1,0l0.4-0.1c2.3-0.7,4.6-1.4,6.9-2.1l3.4-1.2
		c1.1-0.4,2.4-0.8,3.2-1.2c0.9-0.4,2-0.9,3.2-1.5c0.6-0.3,1.2-0.6,1.9-0.9l0.8-0.4l0.7-0.3c0.9-0.4,1.9-1,3.1-1.6
		c0.6-0.3,1.2-0.6,1.9-1l1.7-0.8l7-3.3c1.3-0.6,2.4-1,3.3-1.4c0.4-0.2,0.8-0.4,1-0.5c0.2-0.1,0.5-0.3,0.9-0.6
		c0.7-0.6,1.6-1.5,2.9-2.6c0.3-0.3,0.7-0.5,1.1-0.8c0.4-0.3,0.8-0.5,1.1-0.7c0.7-0.4,1.4-0.8,2-1.1c1.2-0.6,2.2-1.1,2.9-1.5
		c0.2-0.1,0.3-0.2,0.5-0.3l0.6-0.4c0.4-0.3,0.9-0.7,1.3-1l2.9-2.4c1.1-0.9,2.2-1.7,3.2-2.4c1-0.7,1.9-1.4,2.7-2.1l0.5-0.4
		c0.1-0.1,0.3-0.3,0.4-0.4c0.3-0.3,0.6-0.7,1-1.1c0.7-0.9,1.6-2,2.8-3.2c0.3-0.3,0.7-0.7,1.1-1c0.4-0.3,0.7-0.6,1.1-0.8
		c0.7-0.5,1.3-0.9,1.9-1.2c1.1-0.6,1.8-1.1,2-1.3c0.4-0.4,0.9-1.1,1.6-2.2c0.7-1,1.5-2.3,2.7-3.7c1.2-1.3,2.3-2.2,3.1-3
		c0.4-0.4,0.8-0.7,1.1-1.1c0.2-0.2,0.3-0.3,0.4-0.4c0.1-0.1,0.2-0.3,0.4-0.4c0.5-0.7,1.1-1.6,1.8-2.7c0.3-0.5,0.7-1.1,1.1-1.7
		c0.4-0.6,1-1.4,1.1-1.6c0.5-0.7,1-1.7,1.6-2.8c0.3-0.6,0.6-1.2,1-1.8c0.2-0.3,0.4-0.7,0.6-1c0.3-0.4,0.5-0.8,0.8-1.1
		c1.1-1.4,2.1-2.3,2.8-3.1c0.3-0.4,0.6-0.7,0.8-1c0.1-0.2,0.1-0.2,0.3-0.4c0.1-0.2,0.2-0.4,0.3-0.6c0.4-0.8,0.9-1.9,1.4-3.1
		c0.3-0.6,0.6-1.3,0.9-2l0.3-0.5l0.2-0.4l0.4-0.8l1.6-3.3l0.8-1.6l0.3-0.5c0.1-0.2,0.2-0.4,0.3-0.6c0.2-0.4,0.4-0.7,0.6-1
		c0.8-1.3,1.6-2.3,2.1-3.1c0.3-0.4,0.4-0.7,0.6-1c0.1-0.3,0.2-0.6,0.4-1.1c0.3-0.9,0.5-2.1,0.8-3.6c0.2-0.7,0.4-1.6,0.8-2.4
		c0.3-0.8,0.7-1.6,1.1-2.2c0.7-1.3,1.4-2.3,1.8-3c0.1-0.2,0.2-0.4,0.2-0.5c0.1-0.1,0.1-0.3,0.2-0.5c0.1-0.4,0.2-0.8,0.3-1.4
		c0.2-1,0.4-2.3,0.7-3.8c0.1-0.4,0.2-0.8,0.3-1.1l0.2-0.8c0.1-0.4,0.2-0.9,0.3-1.5c0.2-1.1,0.3-2.4,0.6-3.9c0.1-0.4,0.2-0.8,0.3-1.1
		c0.1-0.5,0.3-1,0.5-1.5c0.4-0.9,0.8-1.6,1.1-2.2c0.7-1.2,1.3-2.1,1.4-2.6l0.1-0.1c0-0.1,0,0,0-0.1c0-0.2,0.1-0.4,0.1-0.7
		c0.1-0.5,0.1-1,0.2-1.6c0.1-1.1,0.1-2.5,0.3-4c0.1-1,0.2-1.1,0.2-1.6c0-0.4,0-1,0-1.5c0-1.2-0.1-2.6,0-4.2c0-0.5,0.1-0.8,0.1-1.1
		l0.1-1l0.3-1.9c0.2-1.2,0.4-2.4,0.4-3.4l0.4-7.4c0.1-1.6,0.4-3,0.6-4.2c0.1-0.6,0.2-1.1,0.2-1.6c0-0.2,0-0.5,0.1-0.7l0-0.3l0-0.4
		c0-1-0.1-2.1-0.3-3.4l-0.2-2l-0.1-1.1l-0.1-0.9c-0.1-1.1-0.3-2.2-0.4-3.5c-0.1-0.6-0.2-1.3-0.3-2l-0.1-1.1c0-0.4-0.1-0.8-0.1-1.2
		c0-1.5,0.1-2.8,0.1-3.9c0-0.6,0-1.1,0-1.5c0-0.4-0.1-1-0.2-1.6l-0.5-3.6l-0.3-1.8l-0.3-1.9c-0.4-2.6-0.7-4.9-1.3-6.9
		c-0.3-1.1-0.7-2.2-1.1-3.5c-0.2-0.6-0.4-1.3-0.6-1.9c-0.1-0.4-0.3-0.9-0.5-1.4c-0.4-1-1-2.1-1.6-3.4c-0.1-0.3-0.3-0.7-0.4-1
		c-0.1-0.4-0.3-0.7-0.4-1c-0.2-0.6-0.4-1.3-0.6-1.9c-0.4-1.2-0.7-2.4-1-3.5c-0.3-1-0.9-2.2-1.3-3.3l-1.4-3.4l-0.4-0.8
		c-0.1-0.2-0.2-0.4-0.3-0.7c-0.2-0.5-0.5-0.9-0.8-1.4c-0.6-1-1.4-2.1-2.1-3.3c-0.7-1.3-1.3-2.6-1.7-3.7c-0.5-1.2-0.9-2.2-1.4-3.1
		c-0.1-0.2-0.3-0.5-0.4-0.7l-0.5-0.8l-1-1.6l-2-3.1c-0.9-1.3-1.4-2.6-1.9-3.7c-0.5-1.1-1-2.1-1.5-2.8c-0.6-0.8-1.4-1.6-2.3-2.4
		c-0.9-0.8-1.9-1.8-2.8-2.9c-0.8-1-1.6-2-2.4-3c-0.8-1-1.5-1.8-2.3-2.6c-0.8-0.8-1.7-1.6-2.7-2.4l-1.4-1.3l-0.7-0.7
		c-0.2-0.2-0.4-0.4-0.6-0.6c-0.8-0.7-1.8-1.4-2.9-2.1c-0.5-0.4-1-0.8-1.6-1.2c-0.6-0.4-1-0.8-1.4-1.2c-0.9-0.7-1.9-1.4-3-2.1
		l-1.6-1.1l-0.4-0.3c-0.2-0.1-0.3-0.2-0.5-0.4c-0.3-0.2-0.6-0.5-0.8-0.8c-1-1-1.8-2-2.5-2.8c-0.8-0.8-1.4-1.3-2.5-1.8
		c-1-0.5-2.2-0.9-3.4-1.4c-0.6-0.3-1.2-0.5-1.9-0.9l-1.6-0.9l-3.3-1.7l-3.3-1.7c-1.1-0.6-2.2-1.2-3.3-1.7c-1.1-0.5-2.2-1-3.4-1.4
		l-3.5-1.4l-1.8-0.7c-0.6-0.2-1.2-0.5-1.8-0.8c-1.1-0.5-2.3-1-3.4-1.4l-3.5-1.2c-1.2-0.4-2.4-0.8-3.5-1.1c-2.3-0.7-4.8-0.9-7.3-1.3
		c-2.4-0.5-4.9-0.6-7.4-1l0.1-1c2.4,0.3,5,0.3,7.5,0.7c2.4,0.4,5,0.4,7.5,1c1.3,0.3,2.5,0.6,3.7,1l3.6,1c1.3,0.4,2.4,0.9,3.6,1.3
		c0.6,0.2,1.1,0.5,1.7,0.7l1.7,0.6l3.6,1.3c1.2,0.4,2.4,0.8,3.6,1.3c1.2,0.5,2.3,1,3.5,1.6l3.4,1.6l3.4,1.6l1.7,0.8
		c0.5,0.2,1,0.5,1.5,0.7c1.1,0.4,2.3,0.8,3.6,1.3c0.6,0.3,1.3,0.6,1.9,1c0.7,0.4,1.2,0.9,1.7,1.4c1,1,1.8,2,2.6,2.7
		c0.2,0.2,0.4,0.3,0.6,0.5l0.3,0.2l0.4,0.2l1.5,1c1.1,0.7,2.2,1.3,3.2,2.1c0.6,0.4,1.1,0.8,1.5,1.1c0.5,0.3,1,0.7,1.5,1
		c1,0.7,2.1,1.4,3.2,2.2c0.3,0.2,0.6,0.5,0.8,0.7l0.7,0.6l1.4,1.2c1,0.8,2,1.6,3,2.5c1,0.9,1.9,2,2.8,2.9c0.8,1,1.6,1.9,2.4,2.8
		c0.7,0.8,1.5,1.5,2.5,2.4c0.9,0.8,2,1.8,2.9,2.9c1,1.3,1.7,2.6,2.2,3.7c0.6,1.2,1,2.1,1.6,2.9l2.1,3.2l1.1,1.6l0.5,0.8
		c0.2,0.3,0.4,0.5,0.6,0.9c0.8,1.3,1.3,2.5,1.8,3.7c0.5,1.1,1,2.2,1.5,3c0.6,0.9,1.3,1.9,2,3c0.4,0.6,0.8,1.1,1.1,1.8
		c0.2,0.3,0.4,0.7,0.5,1l0.4,0.9l1.6,3.5c0.5,1.2,1.1,2.3,1.6,3.6c0.5,1.3,0.9,2.5,1.2,3.7c0.2,0.6,0.4,1.1,0.6,1.7
		c0.1,0.3,0.2,0.5,0.3,0.7c0.1,0.2,0.2,0.5,0.3,0.7c0.5,1,1.1,2.1,1.7,3.4c0.3,0.7,0.6,1.4,0.9,2.1c0.2,0.6,0.4,1.1,0.6,1.7
		c0.4,1.1,0.9,2.3,1.3,3.6c0.9,2.7,1.3,5.4,1.8,7.8l0.3,1.8l0.3,1.9l0.7,3.8c0.1,0.6,0.2,1.2,0.3,2.1c0.1,0.8,0.1,1.5,0.1,2.2
		c0,1.4,0,2.6,0,3.6c0,0.2,0,0.5,0.1,0.7l0.1,0.8l0.3,1.7c0.2,1.2,0.4,2.5,0.6,4l0.1,1l0.1,0.8l0.2,1.8c0.2,1.2,0.4,2.6,0.4,4.1
		l0,0.6l0,0.6c0,0.4,0,0.8-0.1,1.2c-0.1,0.8-0.2,1.5-0.3,2.1c-0.2,1.3-0.4,2.4-0.4,3.3l-0.2,7.6c-0.1,1.4-0.3,2.8-0.4,4l-0.2,1.8
		l-0.1,0.9c0,0.3-0.1,0.6-0.1,0.8c-0.1,0.8,0,1.9,0.1,3.3c0,0.7,0,1.4,0,2.2c0,0.8-0.2,1.9-0.2,2.2c-0.1,1-0.1,2.1-0.2,3.5
		c0,0.7-0.1,1.4-0.2,2.2c0,0.4-0.1,0.8-0.2,1.2c0,0.2-0.1,0.5-0.2,0.8c-0.1,0.3-0.1,0.5-0.2,0.8c-0.7,1.9-1.5,3.1-2,4.1
		c-0.3,0.5-0.4,0.9-0.5,1.1c0,0.1-0.1,0.2-0.1,0.3c0,0.2-0.1,0.5-0.1,0.7c-0.2,1-0.3,2.2-0.5,3.6c-0.1,0.7-0.2,1.4-0.4,2.2
		c-0.1,0.4-0.2,0.9-0.3,1c-0.1,0.2-0.1,0.4-0.1,0.7c-0.2,1-0.3,2.2-0.6,3.6c-0.1,0.7-0.3,1.5-0.5,2.3c-0.1,0.4-0.3,0.8-0.4,1.3
		c-0.2,0.4-0.3,0.8-0.5,1.2c-0.7,1.5-1.4,2.6-1.9,3.5c-0.5,1-0.6,1.3-0.9,2.3c-0.2,0.9-0.4,2.2-0.8,3.7c-0.2,0.8-0.4,1.6-0.8,2.5
		c-0.4,0.9-0.8,1.6-1.2,2.3c-0.8,1.3-1.5,2.4-2,3.2c-0.1,0.2-0.2,0.4-0.3,0.6c0,0.1-0.1,0.2-0.1,0.3l-0.2,0.3l-0.8,1.8l-1.6,3.5
		l-0.4,0.9l-0.3,0.7c-0.2,0.4-0.4,0.9-0.6,1.4c-0.4,1.1-0.9,2.3-1.6,3.8c-0.2,0.4-0.4,0.7-0.6,1.1c-0.2,0.4-0.5,0.8-0.7,1.2
		c-0.5,0.8-1.1,1.4-1.5,1.9c-1,1.1-1.8,1.9-2.2,2.5c-0.1,0.2-0.2,0.3-0.3,0.4l-0.4,0.6c-0.2,0.4-0.5,0.9-0.8,1.5
		c-0.6,1.1-1.2,2.3-2.1,3.7c-0.5,0.8-0.7,1-1,1.5l-0.9,1.5c-0.6,1.1-1.3,2.3-2.3,3.6c-0.2,0.3-0.5,0.7-0.8,1
		c-0.3,0.3-0.6,0.6-0.8,0.9c-0.6,0.6-1.1,1.1-1.6,1.5c-1,0.9-1.8,1.6-2.3,2.2c-0.5,0.5-1,1.3-1.7,2.4c-0.7,1.1-1.5,2.4-2.9,3.9
		c-1.6,1.6-3,2.4-4.1,3.1c-0.5,0.3-1,0.6-1.3,0.8c-0.2,0.1-0.3,0.2-0.4,0.3c-0.1,0.1-0.1,0.1-0.3,0.3c-0.5,0.5-1.2,1.4-2,2.5
		c-0.4,0.5-0.9,1.1-1.5,1.7c-0.3,0.3-0.6,0.6-0.9,0.9l-0.5,0.5l-0.4,0.4c-1.1,1-2.2,1.8-3.2,2.6c-1,0.8-1.9,1.5-2.8,2.2l-2.8,2.4
		c-0.5,0.4-1.1,0.9-1.6,1.3l-0.9,0.7c-0.4,0.3-0.7,0.5-1.1,0.7c-1.4,0.9-2.7,1.5-3.7,2c-0.5,0.3-0.9,0.5-1.3,0.7
		c-0.4,0.2-0.5,0.3-0.9,0.6c-0.6,0.5-1.5,1.4-2.7,2.5c-0.6,0.5-1.3,1.1-2.1,1.6c-0.9,0.6-1.6,0.9-2.3,1.3c-1.4,0.7-2.6,1.2-3.6,1.6
		l-6.5,3.2l-1.7,0.8c-0.4,0.2-0.9,0.5-1.4,0.8c-1,0.6-2.2,1.2-3.5,1.9l-1,0.5l-0.9,0.4l-1.5,0.7c-1.1,0.5-2.3,1.1-3.6,1.7
		c-1.5,0.6-2.6,1-3.8,1.5l-3.6,1.4c-2.4,0.9-4.9,1.6-7.4,2.4l-0.5,0.1c-0.1,0-0.2,0-0.3,0.1l-0.4,0.1c-0.5,0.1-1,0.2-1.5,0.3
		c-1,0.1-1.8,0.2-2.5,0.2c-1.4,0.1-2.4,0.1-2.8,0.2l-0.5,0.1l-0.7,0.2l-1.6,0.6c-1.2,0.4-2.6,0.9-4.3,1.3l-7.8,1.3l-7.4,1
		c-0.6,0.1-1.6,0.4-3,0.8c-0.7,0.2-1.5,0.4-2.5,0.5c-1,0.2-2.1,0.2-3.1,0.2c-1.9-0.1-3.4-0.4-4.5-0.5c-0.5-0.1-1-0.1-1.3-0.2l-0.2,0
		l-0.3,0l-1.1,0c-2.8-0.1-5.4-0.4-7.5-0.5c-1.2,0-2.5-0.1-3.9-0.2c-0.7,0-1.5-0.1-2.3-0.2c-0.4,0-0.8-0.1-1.3-0.1c-1,0-2.4,0-4-0.1
		c-0.8-0.1-1.7-0.2-2.7-0.4c-1.1-0.2-2-0.5-2.8-0.9c-1.6-0.6-2.7-1.2-3.4-1.4c-0.3-0.1-0.6-0.2-0.7-0.2c-0.2,0-0.5-0.1-1-0.1
		c-1-0.1-2.4,0-4.5-0.3c-1-0.1-2.3-0.5-3.3-0.9c-1-0.4-1.8-0.8-2.5-1.2c-1.4-0.8-2.3-1.4-2.8-1.6l-0.2-0.1c0,0,0,0-0.1,0l-1.1-0.4
		c-0.7-0.3-1.4-0.6-2-0.8l-3.4-1.5l-0.4-0.2l-0.1,0c-0.1,0-0.2,0-0.3-0.1c-0.3-0.1-0.7-0.2-1.3-0.2c-1.2-0.2-2.9-0.4-5.2-1.3
		c-0.6-0.3-1-0.5-1.4-0.7c-0.4-0.2-0.8-0.4-1.1-0.6c-0.7-0.4-1.3-0.8-1.9-1.2c-1.1-0.7-2-1.3-2.7-1.7c-0.8-0.4-1.8-0.9-3-1.5
		c-0.6-0.3-1.2-0.6-1.9-0.9c-0.3-0.2-0.7-0.4-1-0.6l-1-0.6l-3.2-1.9c-0.6-0.3-1.2-0.7-1.8-1.1c-0.6-0.4-1.3-0.8-1.8-1.2l-3.2-2.3
		l-1.6-1.1l-0.8-0.6c-0.4-0.3-0.8-0.6-1.1-0.9c-1.4-1.2-2.3-2.3-3.1-3.1c-0.4-0.4-0.7-0.7-1-1l-1.2-1.1l-3-2.6
		c-2-1.7-3.8-3.6-5.7-5.4l-1.4-1.4c-0.3-0.3-0.6-0.6-1-0.9c-0.8-0.7-1.9-1.5-3-2.6c-0.3-0.3-0.6-0.6-0.9-0.9c-0.3-0.3-0.6-0.6-1-1
		c-0.7-0.8-1.2-1.6-1.7-2.2c-0.9-1.4-1.5-2.4-1.9-3c-0.2-0.3-0.3-0.4-0.6-0.7c-0.2-0.3-0.6-0.6-1-0.9c-0.8-0.7-1.9-1.7-3.1-3
		c-0.3-0.3-0.6-0.7-0.9-1.1c-0.3-0.4-0.7-0.9-0.9-1.3c-0.5-0.9-0.9-1.6-1.3-2.3c-0.7-1.4-1.1-2.3-1.4-2.7l-4.1-6.1
		c-0.2-0.4-0.2-0.3-0.3-0.4c-0.1-0.1-0.2-0.2-0.3-0.3c-0.2-0.3-0.6-0.6-1-1.1c-0.9-0.9-2.1-2.1-3.4-4.1c-0.5-0.9-1.1-1.7-1.9-2.8
		c-0.4-0.5-0.8-1.1-1.2-1.8l-0.6-1l-0.3-0.5l-0.2-0.3l-0.2-0.4c-1-2.1-1.4-3.8-1.7-4.9c-0.1-0.6-0.3-1-0.4-1.3
		c-0.1-0.1-0.1-0.3-0.1-0.3l-0.2-0.5c-0.5-0.9-1.1-2-1.7-3.2c-0.3-0.6-0.7-1.2-1-1.9l-0.5-1.1c-0.2-0.4-0.4-0.8-0.5-1.2
		c-0.6-1.6-1-3-1.3-4.1c-0.2-0.5-0.3-1-0.5-1.4c-0.2-0.4-0.2-0.6-0.4-1c-0.4-0.8-1-1.8-1.7-3.2c-0.4-0.7-0.7-1.5-1.1-2.4l-0.3-0.9
		l-0.3-0.7c-0.4-0.9-0.9-2.1-1.5-3.5c-0.3-0.7-0.6-1.5-0.8-2.4c-0.3-1.1-0.5-2.1-0.6-3c-0.2-1.8-0.3-3-0.4-3.8
		c0-0.4-0.1-0.6-0.1-0.8c-0.1-0.2-0.2-0.5-0.3-0.9c-0.3-0.8-1-2.1-1.6-3.9c-0.2-0.5-0.3-0.9-0.5-1.5l-0.2-0.8l-0.1-0.7
		c-0.2-0.9-0.2-1.8-0.3-2.6c-0.1-1.5-0.1-2.7-0.2-3.5c-0.1-0.6-0.3-1.6-0.5-2.8c-0.3-1.2-0.6-2.5-0.9-4.2c-0.1-0.4-0.1-0.8-0.2-1.3
		c-0.1-0.5-0.1-1-0.1-1.4c0-0.9,0-1.7,0-2.4c0-1.4,0.1-2.5,0.1-3.2l0-0.2l0-0.1c0-0.1,0-0.3-0.1-0.4c-0.1-0.3-0.2-0.8-0.3-1.4
		c-0.3-1.2-0.8-2.8-0.9-5.1c0-0.3,0-0.5,0-0.7l0-0.6c0-0.4,0-0.8,0-1.2c0-0.8,0.1-1.5,0.1-2.1c0.1-1.3,0.2-2.4,0.2-3.2
		c0-1,0-2.2-0.1-3.5c0-0.7,0-1.4,0-2.1l0-1.2l0-0.6l0-0.5l0.4-3.9l0.2-2l0.1-1l0.1-0.7c0-0.3,0.1-0.5,0.1-0.8c0.4-2,1-3.5,1.3-4.5
		c0.2-0.5,0.3-0.9,0.4-1.2c0-0.1,0-0.1,0-0.2c0-0.1,0,0,0-0.2l0.1-0.7l0.4-3.7c0.1-0.7,0.2-1.5,0.4-2.3l0.1-0.7c0-0.1,0-0.2,0-0.4
		c0.1-0.6,0-1.9,0.1-3.6c0.1-0.9,0.2-1.9,0.4-3.1l0.1-0.4l0.1-0.2l0.1-0.5l0.3-0.9l1.1-3.8l0.6-1.9c0.3-0.8,0.5-1.5,0.8-2.2
		c0.6-1.4,1.1-2.5,1.5-3.6l0.7-1.7c0.4-0.9,0.8-1.7,1.2-2.4c0.8-1.4,1.5-2.4,1.8-3.1c0.2-0.4,0.3-0.6,0.4-0.9
		c0.1-0.3,0.3-0.7,0.4-1.2c0.3-1,0.7-2.5,1.4-4.3c0.2-0.4,0.4-0.9,0.6-1.4c0.3-0.5,0.5-1,0.8-1.4c0.5-0.9,1.1-1.5,1.5-2.1
		c0.9-1.2,1.6-2,1.9-2.4c0.1-0.1,0.1-0.1,0.2-0.4l0.3-0.6l0.8-1.5c0.5-1.1,1.2-2.5,2.1-4l0.4-0.7l0.3-0.6c0.2-0.4,0.5-0.9,0.8-1.5
		c0.6-1.1,1.3-2.6,2.4-4.1c1.1-1.5,2.2-2.7,3.1-3.6c0.9-0.9,1.6-1.7,2-2.2c0.4-0.5,1-1.4,1.7-2.6c0.4-0.6,0.8-1.2,1.3-1.9
		c0.3-0.3,0.5-0.7,0.8-1.1l0.4-0.5l0.4-0.4c1-1.1,2-2.1,2.9-2.9l2.6-2.5l2.8-2.7c1-0.9,1.7-1.7,3.2-2.9c1.3-1,2.4-1.8,3.3-2.4
		c0.5-0.3,0.9-0.6,1.2-0.9l1.4-1.2l3-2.5l1.5-1.3l1.6-1.2l3.1-2.3l1.4-1.1c0.2-0.2,0.6-0.4,0.9-0.8c0.7-0.7,1.7-1.7,3-2.8
		c0.7-0.6,1.4-1.1,2.4-1.7c0.9-0.5,1.8-0.9,2.5-1.1c1.5-0.5,2.5-0.8,3.2-1.1c0.2-0.1,0.3-0.1,0.4-0.2c0.1,0,0.3-0.2,0.4-0.3
		c0.3-0.2,0.7-0.5,1.2-0.9c0.9-0.7,2-1.7,3.4-2.6c1.5-1,3.1-1.7,4.4-2.2c1.3-0.5,2.3-0.8,3.1-1.2l1.7-0.8c0.6-0.3,1.2-0.6,1.8-0.8
		c1.2-0.5,2.3-1,3.3-1.4l3.5-1.6l3.5-1.5c0.9-0.4,2-0.9,3.1-1.5c0.6-0.3,1.2-0.6,1.8-0.9c0.6-0.3,1.4-0.6,2-0.8l3.6-1.4l1.8-0.7
		l0.9-0.3l1-0.3c1.3-0.4,2.5-0.8,3.7-1.1c2.3-0.7,4.7-1.5,7.1-2.2l1.8-0.6c0.6-0.2,1.3-0.4,1.9-0.5c1.3-0.3,2.5-0.6,3.7-0.9
		c0.6-0.1,1.2-0.3,1.7-0.4c0.7-0.2,1.3-0.3,1.9-0.5l3.7-0.8c1.3-0.3,2.2-0.5,3.3-0.9c1.1-0.4,2.3-0.9,3.7-1.3
		c0.7-0.2,1.4-0.4,2.1-0.5c0.7-0.1,1.4-0.2,2.1-0.2c1.3-0.1,2.5-0.1,3.6-0.3c0.6-0.1,1-0.2,1.6-0.3c0.5-0.1,1-0.3,1.6-0.6
		c1.1-0.4,2.3-1,3.8-1.4c0.8-0.2,1.3-0.2,1.9-0.4l1.8-0.4c1.2-0.3,2.5-0.6,3.8-0.8c2.7-0.4,5.2,0.1,7.6-0.2L219.9,37.6z"/>
</g>
</svg>
