<svg xmlns="http://www.w3.org/2000/svg" xmlns:xlink="http://www.w3.org/1999/xlink" id="Layer_1" x="0" y="0" version="1.1" viewBox="0 0 1000 100" xml:space="preserve" style="enable-background:new 0 0 1000 100"><style type="text/css">.st0{fill:#fff}</style><g><path d="M43,71.1c3.6-0.1,3.6,0.5,7.2,0.4c3.6-0.1,3.6-1,7.2-1.1c3.6-0.1,3.6-0.9,7.2-1c3.6-0.1,3.6,0.4,7.2,0.3 c3.6-0.1,3.6-0.7,7.2-0.8c3.6-0.1,3.6,0,7.2-0.1c3.6-0.1,3.6-0.2,7.2-0.3c3.6-0.1,3.6,1.6,7.2,1.5c3.6-0.1,3.6-0.1,7.2-0.2 c3.6-0.1,3.6-1.7,7.2-1.8c3.6-0.1,3.6,0.8,7.2,0.7c3.6-0.1,3.6-0.4,7.2-0.5c3.6-0.1,3.6,0.3,7.2,0.2c3.6-0.1,3.6-1,7.2-1.1 c3.6-0.1,3.6,1.1,7.2,1c3.6-0.1,3.6-0.8,7.2-0.9c3.6-0.1,3.6,1.1,7.2,1c3.6-0.1,3.6-0.7,7.2-0.8c3.6-0.1,3.6-0.7,7.2-0.8 c3.6-0.1,3.6,0.8,7.2,0.7c3.6-0.1,3.6-1.2,7.2-1.3c3.6-0.1,3.6,0.5,7.2,0.4c3.6-0.1,3.6-0.8,7.2-0.9c3.6-0.1,3.6,0,7.2-0.1 c3.6-0.1,3.6,0,7.2-0.1c3.6-0.1,3.6,0,7.2-0.1s3.6,0.3,7.2,0.2c3.6-0.1,3.6,0.6,7.2,0.5c3.6-0.1,3.6-0.5,7.2-0.6 c3.6-0.1,3.6-1.3,7.2-1.4c3.6-0.1,3.6,1,7.2,0.9c3.6-0.1,3.6,0.2,7.2,0.1c3.6-0.1,3.6-0.4,7.2-0.4c3.6-0.1,3.6-0.1,7.2-0.2 c3.6-0.1,3.6,0.1,7.2,0c3.6-0.1,3.6-0.5,7.2-0.6c3.6-0.1,3.6,0.3,7.2,0.2c3.6-0.1,3.6,0.4,7.2,0.3c3.6-0.1,3.6-0.9,7.2-1 c3.6-0.1,3.6-0.5,7.2-0.6c3.6-0.1,3.6-0.1,7.2-0.1c3.6-0.1,3.6-0.2,7.2-0.3c3.6-0.1,3.6,0.9,7.2,0.9c3.6-0.1,3.6-0.4,7.2-0.5 c3.6-0.1,3.6,0.6,7.2,0.5c3.6-0.1,3.6-0.1,7.2-0.2c3.6-0.1,3.6-0.9,7.2-1c3.6-0.1,3.6,0.1,7.2,0c3.6-0.1,3.6-0.8,7.2-0.9 c3.6-0.1,3.6,0.6,7.2,0.5c3.6-0.1,3.6-1.3,7.2-1.4c3.6-0.1,3.6,0.4,7.2,0.3c3.6-0.1,3.6,0.3,7.2,0.2c3.6-0.1,3.6,0,7.2-0.1 c3.6-0.1,3.6,0.5,7.2,0.4c3.6-0.1,3.6-1.5,7.2-1.6c3.6-0.1,3.6,0.9,7.2,0.8c3.6-0.1,3.6-0.1,7.2-0.2c3.6-0.1,3.6-1.2,7.2-1.3 c3.6-0.1,3.6,0.6,7.2,0.5c3.6-0.1,3.6,0.6,7.2,0.5c3.6-0.1,3.6,0,7.2-0.1c3.6-0.1,3.6-1,7.2-1c3.6-0.1,3.6,0.9,7.2,0.8 c3.6-0.1,3.6-1.8,7.2-1.9c3.6-0.1,3.6,1,7.2,0.9c3.6-0.1,3.6-0.9,7.2-1c3.6-0.1,3.6,1,7.2,0.9c3.6-0.1,3.6-0.7,7.2-0.8 c3.6-0.1,3.6-0.5,7.2-0.6c3.6-0.1,3.6,1.3,7.2,1.2c3.6-0.1,3.6-1.3,7.2-1.4c3.6-0.1,3.6-0.4,7.2-0.5c3.6-0.1,3.6,0.9,7.2,0.8 c3.6-0.1,3.6-0.9,7.2-1c3.6-0.1,3.6,0.3,7.2,0.2c3.6-0.1,3.6-0.8,7.2-0.9c3.6-0.1,3.6,0.2,7.2,0.1c3.6-0.1,3.6-0.4,7.2-0.5 c3.6-0.1,3.6,0.5,7.2,0.4c3.6-0.1,3.6,0.5,7.2,0.4c3.6-0.1,3.6-0.9,7.2-1c3.6-0.1,3.6-0.5,7.2-0.6c3.6-0.1,3.6,0.6,7.2,0.5 c3.6-0.1,3.6-0.8,7.2-0.9c3.6-0.1,3.6-0.1,7.2-0.2c3.6-0.1,3.6,0.8,7.2,0.7c3.6-0.1,3.6,0.1,7.2,0c3.6-0.1,3.6-0.9,7.2-1 c3.6-0.1,3.6,0.5,7.2,0.4c3.6-0.1,3.6,0.2,7.2,0.1c3.6-0.1,3.6-0.6,7.2-0.7c3.6-0.1,3.6-0.5,7.2-0.6c3.6-0.1,3.6-0.5,7.2-0.6 c3.6-0.1,3.6,1.6,7.2,1.5c3.6-0.1,3.6-0.6,7.2-0.7c3.6-0.1,3.6,0.1,7.2,0c3.6-0.1,3.6,0,7.2-0.1c3.6-0.1,3.6-0.3,7.2-0.4 c3.6-0.1,3.6,0,7.2-0.1c3.6-0.1,3.6,0.1,7.2,0c3.6-0.1,3.6-0.2,7.2-0.3c3.6-0.1,3.6-1.5,7.2-1.6c3.6-0.1,3.6,0.4,7.2,0.3 c3.6-0.1,3.6,0.3,7.2,0.2c3.6-0.1,3.6,0.1,7.2,0c3.6-0.1,3.6,0.3,7.2,0.2c3.6-0.1,3.6-1.6,7.2-1.7c3.6-0.1,3.6-0.1,7.2-0.2 c3.6-0.1,3.6,0.5,7.2,0.4c3.6-0.1,3.6,0.9,7.2,0.8c3.6-0.1,3.6-1.7,7.2-1.8c3.6-0.1,3.6,0.2,7.2,0.1c3.6-0.1,3.6-0.2,7.2-0.3 c3.6-0.1,3.6,1.1,7.2,1c3.6-0.1,3.6-0.4,7.2-0.5c3.6-0.1,3.6-0.4,7.2-0.5c3.6-0.1,3.6,0.7,7.2,0.6c3.6-0.1,3.6-0.7,7.2-0.8 c3.6-0.1,3.6-0.4,7.2-0.5c3.6-0.1,3.6,0.7,7.2,0.6c3.6-0.1,3.6-1.5,7.2-1.6c3.6-0.1,3.6,0.1,7.2,0c3.6-0.1,3.6,0.3,7.2,0.2 c3.6-0.1,3.6,0.5,7.2,0.4c3.6-0.1,3.6-0.2,7.2-0.3c3.6-0.1,3.6-0.9,7.2-1c3.6-0.1,3.6,0.3,7.2,0.3c3.6-0.1,3.6-0.5,7.2-0.6 c3.6-0.1,3.6-0.1,7.2-0.2" class="st0"/><path d="M43,70.6c1.2-0.1,2.5-0.1,3.8,0c1.2,0.1,2.4,0.1,3.5-0.1c0.6-0.1,1.2-0.1,1.7-0.3c0.5-0.1,1-0.3,1.6-0.5 c1.2-0.4,2.7-0.7,3.9-0.7c0.6,0,1.1-0.1,1.7-0.2c0.5-0.1,1-0.3,1.7-0.4c1.3-0.4,2.7-0.6,4-0.6c1.3-0.1,2.7,0,3.9,0.1 c1.1,0.1,2.2,0,3.4-0.1c0.6,0,1.1-0.1,1.6-0.2c0.5-0.1,1.1-0.2,1.7-0.4c1.3-0.3,2.8-0.4,4-0.5c1.2-0.1,2.5-0.1,3.7-0.1 c1.2,0,2.4-0.1,3.6-0.2c1.2-0.1,2.3-0.2,3.6-0.3l1.9-0.1l0.9,0c0.4,0,0.8,0,1.2,0c0.8,0,1.7,0.2,2.5,0.5c0.8,0.3,1.4,0.6,1.7,0.7 c0.4,0.1,0.7,0.2,1.1,0.2c0.2,0,0.4,0,0.7,0l0.9,0l3.7-0.2l1.9-0.1l0.9,0c0.2,0,0.5,0,0.7-0.1c0.4-0.1,0.7-0.1,1.1-0.3 c0.3-0.1,0.9-0.5,1.7-0.8c1.6-0.7,3.4-0.8,4.7-0.7c0.7,0,1.5,0.1,2.3,0.2c0.8,0.1,1.3,0.3,1.8,0.3c0.9,0.1,1.8,0.1,3,0.1 c1.1,0,2.1-0.2,3.5-0.3c1.4-0.1,2.6-0.2,4-0.2c0.7,0,1.4,0,2.1,0.1c0.7,0.1,1.2,0.1,1.8,0.1c1,0,2.3,0,3.2-0.1 c0.5-0.1,0.9-0.1,1.4-0.3c0.5-0.1,1.2-0.3,2-0.5c1.6-0.3,2.9-0.3,4.5-0.2c0.8,0.1,1.7,0.2,2.4,0.5c0.7,0.2,1.1,0.3,1.5,0.4 c0.4,0.1,0.8,0.1,1.3,0.1c0.5,0,1.1,0,1.6-0.1c0.5,0,1-0.1,1.5-0.2c0.5-0.1,1.3-0.3,2-0.4c0.7-0.1,1.5-0.1,2.1-0.2 c0.7,0,1.4,0,2.2,0.1c0.8,0.1,1.7,0.3,2.3,0.5c0.7,0.2,1,0.3,1.4,0.4c0.4,0.1,0.9,0.1,1.4,0.1c0.5,0,1.1,0,1.6-0.1 c0.5,0,1-0.1,1.5-0.2c0.6-0.1,1.3-0.2,2-0.3c0.7-0.1,1.4-0.1,2.1-0.1c0.6,0,1.1,0,1.6-0.1c0.5,0,1-0.1,1.6-0.2 c0.6-0.1,1.3-0.3,2.1-0.3c1.4-0.1,2.7-0.2,4.2,0c0.7,0.1,1.5,0.2,2.1,0.4c0.6,0.1,1,0.2,1.5,0.3c0.5,0,1,0.1,1.5,0.1 c0.5,0,1,0,1.4-0.1c0.4-0.1,0.8-0.2,1.4-0.4c0.6-0.2,1.4-0.4,2.2-0.6c0.8-0.1,1.5-0.1,2.2-0.2c0.7,0,1.3,0,2.1,0.1 c0.7,0.1,1.4,0.2,2,0.3c0.6,0.1,1.1,0.2,1.6,0.2c1.1,0.1,2.3,0,3.3-0.1c0.5-0.1,1-0.2,1.7-0.3c0.7-0.1,1.4-0.2,2.1-0.3 c1.4-0.1,2.6-0.1,3.9-0.1l3.7,0l3.7,0l7.4,0c1.3,0,2.4,0,3.6,0c1.2,0,2.5-0.1,3.9,0.1c1.4,0.1,2.3,0.2,3.5,0.2c0.6,0,1.2,0,1.9,0 c0.7,0,1.4,0.1,2.1,0.2c1.4,0.2,2.2,0.4,3.4,0.4c1.1,0,2.3-0.1,3.4-0.2c1.1-0.2,2.6-0.4,3.8-0.4c1.3,0,2.1-0.1,3.1-0.4 c0.5-0.2,1.2-0.4,1.9-0.6c0.7-0.2,1.5-0.3,2.1-0.3c0.7,0,1.4,0,2.1,0c0.7,0,1.5,0.2,2.1,0.4c0.7,0.2,1.2,0.3,1.6,0.4 c0.5,0.1,1,0.1,1.5,0.1c1.1,0,2.5-0.1,3.8,0c1.2,0.1,2.4,0.1,3.6,0c1.2,0,2.4-0.1,3.5-0.2c1.2-0.1,2.6-0.2,3.8-0.3l3.7-0.1l3.7-0.1 c1.2,0,2.5,0,3.8,0c1.2,0,2.4,0,3.6,0c1.2,0,2.2-0.1,3.5-0.3c1.3-0.2,2.7-0.3,3.9-0.3c1.3,0,2.7,0,3.9,0.1c1.2,0.1,2.2,0.1,3.5,0 c0.7,0,1.3,0,2,0c0.7,0,1.3,0.1,1.9,0.2c0.6,0.1,1.1,0.1,1.7,0.1c0.6,0,1.2,0,1.7,0c1.1-0.1,1.9-0.3,3.3-0.6 c0.7-0.2,1.4-0.3,2.1-0.3c0.3,0,0.7-0.1,1-0.1l0.9,0c1.2,0,2.2-0.2,3.5-0.4c1.3-0.2,2.7-0.2,3.9-0.2l3.7-0.1l3.6-0.1 c1.2,0,2.4-0.1,3.6-0.2c1.3-0.1,2.4-0.1,3.9-0.1c0.7,0,1.5,0.2,2.2,0.3c0.7,0.2,1.2,0.3,1.7,0.4c0.9,0.2,2,0.1,3.2,0 c0.6,0,1.1-0.1,1.7-0.2c0.6-0.1,1.2-0.2,1.9-0.2c1.3-0.1,2.6-0.2,4-0.1c0.7,0,1.4,0.1,2.1,0.2c0.6,0.1,1.1,0.2,1.7,0.2 c0.5,0,1,0,1.6,0l1.8-0.1l3.7-0.1l1.8-0.1c0.6,0,1.1-0.1,1.6-0.1c0.5-0.1,1-0.2,1.5-0.3c0.6-0.2,1.3-0.3,2.1-0.4 c0.7-0.1,1.4-0.1,2.1-0.2c0.6,0,1.3,0,1.9,0c0.6,0,1.3,0,1.9,0c0.6,0,1.2,0,1.8,0c0.6,0,1.2,0,1.8,0c0.6,0,1.1-0.1,1.6-0.1 c0.5-0.1,1-0.2,1.6-0.3c0.6-0.1,1.4-0.3,2.1-0.3c1.4-0.1,2.7-0.2,4.2-0.1c0.7,0.1,1.5,0.2,2,0.3c0.5,0.1,1,0.1,1.5,0.1 c0.5,0,1.1,0,1.6,0c0.5,0,1-0.1,1.4-0.2c0.4-0.1,0.8-0.3,1.5-0.5c0.7-0.2,1.5-0.4,2.3-0.5c1.6-0.2,2.8-0.2,4.2-0.1 c0.7,0,1.4,0.1,1.9,0.2c0.6,0.1,1.1,0.1,1.6,0.1c1,0,2.4-0.1,3.8,0c1.4,0.1,2.4,0.2,3.5,0.1l3.7-0.1c1.3,0,2.4,0,3.6,0 c1.1,0,2.6-0.1,4,0.1c1.5,0.2,2.2,0.3,3.4,0.3c1.2,0,1.9-0.1,2.6-0.4c0.4-0.1,1-0.4,1.8-0.7c0.8-0.3,1.7-0.4,2.4-0.5 c0.8-0.1,1.5-0.1,2.2-0.1c0.7,0,1.6,0.1,2.3,0.3c0.8,0.2,1.3,0.3,1.7,0.4c0.4,0.1,0.9,0.1,1.4,0.1l7.2-0.2c1.3,0,1.9-0.1,2.8-0.4 c0.4-0.1,1.2-0.4,2-0.6c0.8-0.2,1.6-0.3,2.4-0.3c0.8,0,1.4-0.1,2.1,0c0.7,0,1.5,0.1,2.2,0.2c0.7,0.1,1.2,0.2,1.6,0.2 c0.5,0,1,0,1.5,0c1.1-0.1,2.9,0,4.2,0.2c0.7,0.1,1.1,0.2,1.6,0.2c0.5,0,1,0,1.5,0l7.3-0.2c0.5,0,1-0.1,1.5-0.1 c0.4-0.1,0.8-0.2,1.4-0.3c0.6-0.2,1.4-0.4,2.2-0.5c0.8-0.1,1.5-0.2,2.2-0.2c0.7,0,1.5,0,2.3,0.1c0.8,0.1,1.7,0.3,2.3,0.4 c0.6,0.1,0.9,0.2,1.3,0.2c0.4,0,0.9,0,1.4,0c0.4,0,0.7-0.1,1-0.2c0.3-0.1,0.5-0.2,1-0.5c0.5-0.3,1.5-0.7,2.4-1 c0.9-0.3,1.8-0.4,2.6-0.4c0.8,0,1.5,0,2.4,0.1c0.8,0.1,1.7,0.3,2.3,0.5c0.6,0.2,0.9,0.2,1.3,0.3c0.4,0,0.8,0,1.3,0 c0.5,0,1-0.1,1.4-0.1c0.4-0.1,0.8-0.2,1.4-0.3c0.6-0.2,1.5-0.4,2.2-0.5c0.8-0.1,1.5-0.2,2.2-0.2c0.7,0,1.5,0,2.4,0.1 c0.8,0.1,1.7,0.3,2.3,0.5c0.6,0.1,0.8,0.2,1.2,0.2c0.4,0,0.8,0,1.4,0c0.5,0,1.1-0.1,1.5-0.1c0.5-0.1,0.9-0.1,1.6-0.3 c1.3-0.3,3-0.4,4.2-0.4c0.6,0,1.1-0.1,1.6-0.1c0.5-0.1,1-0.1,1.7-0.2c0.7-0.1,1.4-0.2,2.1-0.2l1-0.1l0.5,0l0.6,0 c0.8,0,1.7,0.1,2.6,0.3c0.9,0.2,1.8,0.5,2.2,0.7c0.4,0.1,0.6,0.2,1,0.2c0.3,0,0.7,0,1.2,0c0.4,0,0.8-0.1,1.1-0.2 c0.3-0.1,0.6-0.2,1.4-0.5c0.7-0.3,1.7-0.5,2.5-0.6c0.4-0.1,0.8-0.1,1.2-0.1l1-0.1c0.6,0,1.1-0.1,1.6-0.1l1.7-0.2 c0.7-0.1,1.4-0.1,2.1-0.2c0.7,0,1.3-0.1,2.1-0.1c0.8,0,1.6,0.1,2.5,0.2c0.9,0.1,1.6,0.4,2,0.4c0.4,0.1,0.7,0.1,1.1,0.1 c0.4,0,0.9,0,1.4,0c0.5,0,0.9-0.1,1.3-0.2c0.4-0.1,0.9-0.2,1.6-0.4c1.6-0.4,3.3-0.5,4.6-0.5c1.3,0,3,0.1,4,0.2c0.5,0,1,0,1.5,0 l0.8,0c0.3,0,0.5,0,0.7,0c1-0.1,1.4-0.2,3.1-0.6c1.6-0.3,3.2-0.4,4.4-0.4c1.3,0,2.9,0.1,3.9,0.1c1,0,2.2,0,3.3-0.1 c0.6,0,1.1-0.1,1.6-0.1l1.9-0.2c1.4-0.1,2.6-0.2,4.2-0.2c0.7,0,1.6,0.1,2.3,0.2c0.7,0.1,1.2,0.1,1.6,0.2c0.4,0,0.9,0,1.4,0l1,0 c0.4,0,0.7,0,1.1,0c0.8,0,1.6,0.1,2.3,0.2c0.7,0.1,1.1,0.1,1.5,0.2c0.8,0,2,0,2.8-0.1c0.4-0.1,0.7-0.1,1.3-0.3 c0.5-0.1,1.4-0.4,2.2-0.5c0.8-0.1,1.6-0.2,2.3-0.2c0.6,0,1.1,0,1.7-0.1c0.5,0,1-0.1,1.6-0.2c0.6-0.1,1.4-0.2,2.1-0.2 c0.7-0.1,1.4-0.1,2.1-0.1c0.7,0,1.5,0,2.3,0c0.8,0,1.7,0.2,2.3,0.3c0.6,0.1,0.9,0.1,1.3,0.2c0.8,0,2,0,2.7-0.1 c0.4-0.1,0.7-0.1,1.4-0.3c0.7-0.2,1.6-0.3,2.3-0.4c0.8-0.1,1.6-0.1,2.2-0.1l1.8-0.1l3.7-0.2l0.9,0l1,0c0.8,0,1.6,0,2.5,0.1 c0.9,0.1,1.8,0.3,2.2,0.4c0.4,0.1,0.7,0.1,1.1,0.1c0.2,0,0.4,0,0.6,0l0.8,0c0.7,0,1.3,0,2,0c1.4,0,2.4,0.1,3.6,0 c1.2,0,2.1-0.1,2.8-0.2c0.3-0.1,0.8-0.2,1.6-0.4c0.8-0.2,1.7-0.3,2.5-0.4c0.8-0.1,1.5-0.1,2.3-0.1c0.7,0,1.5,0,2.4,0.1 c1.8,0.2,2.2,0.3,3.2,0.3l1.7,0c0.7,0,1.4,0,2.1,0c1.5,0.1,2.3,0.1,3.4,0.1c1.2,0,2.1-0.1,3-0.2c0.5-0.1,1.1-0.2,1.9-0.3 c0.8-0.1,1.5-0.2,2.3-0.2l1.8-0.1c0.5,0,1-0.1,1.5-0.1c0.5-0.1,1.2-0.2,2-0.3c0.7-0.1,1.5-0.1,2.2-0.2c1.4,0,2.1-0.1,3.1-0.2 c0.5-0.1,1.3-0.2,2-0.3c0.8-0.1,1.5-0.1,2.2-0.2c0.3,0,0.8,0,1.3,0c0.5,0,1,0,1.5,0.1c1.1,0.1,2.3,0.5,3.1,0.8 c0.8,0.3,1,0.4,1.1,0.4c0.1,0,0.2,0,0.5,0l0.2,0l0.4,0l0.7,0c0.5,0,0.9-0.1,1.4-0.2c0.5-0.1,1.3-0.2,2.1-0.3 c0.8-0.1,1.5-0.1,2.2-0.2c0.7,0,1.3,0,2-0.1c0.7,0,1.4,0,2,0l1.7,0l1.7,0c1.2,0,2.5-0.1,3.8-0.1c1.2,0,2.4,0,3.6-0.1 c0.6,0,1.1,0,1.7-0.1c0.5,0,1-0.1,1.6-0.1c0.6-0.1,1.4-0.1,2-0.2c0.7,0,1.4-0.1,2-0.1c1.2,0,2.6-0.1,3.8-0.1c1.2,0,2.3,0,3.6-0.1 c1.3,0,2.7,0,3.9,0c1.1,0,2.3,0,3.4-0.1c1.2,0,2.2-0.1,3.5-0.2l2-0.1l1.6-0.1c0.3,0,0.5-0.1,0.6-0.1c0.1,0,0.5-0.2,1.4-0.6 c0.9-0.3,2-0.6,3-0.8c1-0.1,1.9-0.1,2.6-0.2c0.7,0,1.5,0,2.3,0.1c0.8,0.1,1.5,0.2,2,0.2c0.4,0,0.8,0.1,1.3,0.1l1.7,0 c1.4,0,3.3,0.1,4.1,0.2c0.5,0,0.9,0,1.4,0l1.8,0c1.3,0,2.9,0,3.9,0.1c0.5,0,1.1,0,1.6,0l0.9,0l1.1,0c0.7,0,1.5,0,2.3,0.1 c0.7,0.1,1.3,0.1,1.7,0.1c0.5,0,0.9,0,1.4,0c0.6,0,0.8,0,1.1-0.1c0.2,0,0.2,0,0.4-0.1c0.2-0.1,1-0.5,2.1-0.8 c1.1-0.3,2.2-0.5,3.1-0.6c1.1-0.1,1.5-0.1,2.2-0.1l3.7-0.1c1.2,0,2.3-0.1,4-0.1c0.8,0,1.7,0.1,2.4,0.2c0.7,0.1,1.1,0.1,1.5,0.2 c0.4,0,0.8,0,1.3,0l1,0c0.4,0,0.9,0,1.3,0c0.9,0.1,2,0.2,2.7,0.4c0.7,0.2,1,0.2,1.2,0.3c0.2,0,0.6,0,1,0c0.4,0,0.6,0,0.7-0.1 c0.1,0,0,0,0.4-0.2c0.4-0.2,1.3-0.7,2.5-1c1.1-0.3,2.2-0.5,3.2-0.5l0.7,0l0.5,0l1,0c0.7,0,1.5,0,2.1,0.1c0.7,0,1.1,0.1,1.6,0.1 c0.5,0,1,0,1.6,0l1.7-0.1l3.7-0.2l1.9-0.1c0.8,0,1.7,0,2.7,0.1c1,0.1,2.1,0.4,2.7,0.6c0.6,0.2,0.7,0.2,0.9,0.2c0.2,0,0.5,0,0.9,0 c0.5,0,1.1,0,1.6-0.1c0.5,0,1-0.1,1.6-0.1c0.6-0.1,1.4-0.1,2.1-0.2c0.7,0,1.4-0.1,2-0.1c0.6,0,1.1,0,1.6-0.1c0.5,0,1-0.1,1.6-0.2 c0.6-0.1,1.4-0.1,2.1-0.2c0.7,0,1.3-0.1,2.1-0.1c0.8,0,1.6,0,2.5,0.1c0.9,0.1,1.8,0.3,2.3,0.3c0.5,0.1,0.7,0.1,1.1,0.1 c0.7,0,1.9,0,2.6-0.1c0.4-0.1,0.7-0.1,1.5-0.3c0.7-0.1,1.7-0.3,2.5-0.3c0.4,0,0.8-0.1,1.2-0.1l1,0c0.5,0,1.1,0,1.5-0.1l1.7-0.2 c0.7-0.1,1.5-0.1,2.2-0.2c0.7,0,1.3-0.1,2.2-0.1c0.8,0,1.7,0.1,2.6,0.2c0.9,0.1,1.6,0.3,2,0.3c0.4,0.1,0.6,0.1,1,0.1 c0.2,0,0.4,0,0.6,0c0.2,0,0.3,0,0.5,0c0.3,0,0.3,0,0.5-0.1c0.1,0,0.5-0.2,1.5-0.6c1-0.4,2.1-0.7,3.1-0.8c0.5-0.1,1-0.1,1.4-0.1 l0.6,0l0.5,0c0.7,0,1.4,0,2,0c1.4,0,2.4,0.1,3.5,0.1l1.9,0c0.7,0,1.5,0,2.2,0.1c1.6,0.1,2.2,0.2,3.3,0.2l0.8,0c0.4,0,0.7,0,1.1,0 c0.8,0,1.6,0.1,2.5,0.2c0.8,0.1,1.3,0.2,1.7,0.2c0.4,0,0.8,0.1,1.2,0.1l1.6,0l1.7,0c1.1,0,2.6-0.1,3.9,0c1.3,0,1.8,0.1,2.6,0 c0.4-0.1,1.3-0.2,2.2-0.3c0.9-0.1,1.7-0.1,2.5-0.1c0.8,0,1.4,0.1,2.2,0.2c0.7,0.1,1.5,0.2,2.2,0.3c0.7,0.1,1.1,0.3,1.6,0.4 c0.5,0.1,1,0.2,1.6,0.3c0.6,0.1,1.1,0.2,1.6,0.2c0.5,0.1,1,0.1,1.6,0.2c0.6,0,1.3,0,2,0.1c0.7,0.1,1.4,0.2,2,0.3 c2.5,0.5,4.9,1.1,7.4,2l0,1c-2.4,1-4.9,1.7-7.3,2.3c-0.6,0.2-1.1,0.3-1.6,0.5l-1.6,0.6c-0.6,0.2-1.4,0.4-2,0.6 c-0.7,0.2-1.4,0.3-2,0.4c-0.7,0.1-1.4,0.2-2.1,0.3c-0.7,0.1-1.5,0.1-2.1,0.1c-0.5,0-1,0.1-1.5,0.1l-1.5,0.2 c-0.5,0.1-0.9,0.2-1.2,0.3c-0.3,0.1-0.7,0.3-1.4,0.5c-1.6,0.5-3.6,0.7-4.7,0.8l-3.5,0.3c-0.7,0.1-1.3,0.1-2,0.1 c-0.7,0-1.3,0.1-2,0.1c-0.8,0-1.6,0-2.4-0.1c-0.9-0.1-1.6-0.2-1.9-0.3c-0.4,0-0.8-0.1-1.2-0.1l-0.7,0l-1,0c-1.4,0-3.2-0.1-4.1-0.2 c-0.5,0-0.9,0-1.5,0l-1.8,0c-1.3,0-2.9,0-3.9-0.1c-0.5,0-1.1,0-1.6,0l-0.4,0l-0.3,0c-0.2,0-0.3,0-0.4,0c-0.2,0-0.2,0-0.4,0.1 c-0.2,0.1-0.9,0.4-1.9,0.8c-1,0.4-2.2,0.6-3.1,0.7c-0.5,0-1,0.1-1.4,0.1c-0.4,0-0.8,0-1.2,0c-0.8,0-1.8-0.1-2.6-0.2 c-0.9-0.1-1.3-0.3-1.6-0.3c-0.3,0-0.6-0.1-1.1-0.1c-0.4,0-1,0-1.5,0c-0.5,0-1,0.1-1.5,0.1c-0.5,0.1-1.2,0.1-1.9,0.2 c-0.7,0.1-1.5,0.1-2.1,0.1l-0.9,0c-0.2,0-0.5,0-0.7,0c-0.4,0-0.7,0.1-1.2,0.2c-0.4,0.1-1.3,0.3-2.1,0.4c-1.8,0.2-3.1,0.3-4.8,0.2 c-0.8,0-1.8-0.2-2.6-0.3c-0.7-0.1-1.1-0.2-1.4-0.2c-0.3,0-0.7,0-1.2,0c-0.5,0-1.1,0-1.6,0.1c-0.5,0-1,0.1-1.6,0.1 c-0.6,0.1-1.3,0.1-2,0.2c-0.7,0-1.4,0.1-2.1,0.1c-0.6,0-1.1,0-1.6,0.1c-0.5,0-1,0.1-1.6,0.1c-0.6,0.1-1.4,0.1-2.1,0.2 c-0.7,0-1.4,0.1-2.1,0.1c-0.8,0-1.7,0-2.8-0.1c-1-0.1-2.1-0.4-2.7-0.6c-0.6-0.2-0.7-0.2-0.9-0.2c-0.2,0-0.5,0-1,0l-1.7,0.1 l-3.7,0.2l-1.9,0.1c-0.7,0-1.4,0-2.1,0c-0.7,0-1.5-0.1-2-0.1c-0.6,0-1,0-1.5,0l-0.8,0l-0.4,0c-0.2,0-0.2,0-0.3,0 c-0.3,0-0.4,0-0.5,0.1c-0.1,0-0.2,0.1-0.9,0.4c-0.7,0.4-2,0.8-3.1,1c-1.1,0.2-2.1,0.3-2.9,0.3c-0.8,0-1.7,0-2.7-0.2 c-1-0.1-1.9-0.4-2.4-0.5c-0.4-0.1-0.6-0.1-0.9-0.2c-0.1,0-0.3,0-0.5,0l-0.8,0c-0.7,0-1.5,0-2.4-0.1c-0.8-0.1-1.7-0.2-2.1-0.3 c-0.5-0.1-0.8-0.1-1.3-0.1c-0.8,0-2.2,0-3.4,0l-3.7,0.1l-1.5,0c-0.3,0-0.4,0-0.5,0.1c-0.1,0-0.4,0.2-1.3,0.6 c-0.9,0.4-2.1,0.7-3.1,0.8c-1,0.1-2,0.2-2.6,0.2c-0.7,0-1.5,0-2.2-0.1c-0.8,0-1.5-0.1-2-0.2c-0.5,0-0.9-0.1-1.4-0.1l-0.8,0l-1,0 c-0.7,0-1.4,0-2.1,0c-1.5,0-2.3-0.1-3.5-0.1l-1.9,0c-0.7,0-1.5,0-2.2-0.1c-1.6-0.1-2.2-0.2-3.2-0.2l-0.8,0l-1.1,0 c-0.8,0-1.6-0.1-2.4-0.1c-0.8-0.1-1.3-0.2-1.7-0.2c-0.4,0-0.8-0.1-1.3-0.1c-0.6,0-0.9,0-1.1,0c-0.2,0-0.3,0-0.5,0.1 c-0.3,0.1-1,0.4-2,0.8c-1,0.3-2.1,0.5-3,0.6c-1,0.1-1.5,0.1-2.1,0.1l-1.7,0.1c-1.2,0.1-2.6,0.1-3.8,0.2c-1.3,0-2.6,0.1-3.9,0 c-1.3,0-2.3,0-3.5,0c-1.2,0-2.5,0.1-3.8,0.1c-1.2,0-2.4,0-3.6,0l-1.7,0.1c-0.5,0-1,0.1-1.6,0.1c-0.6,0.1-1.3,0.1-2,0.2 c-0.7,0-1.4,0.1-2,0.1c-1.2,0-2.6,0-3.8,0c-1.2,0-2.3,0-3.6,0l-2,0l-2,0c-0.6,0-1.1,0-1.7,0l-1.7,0c-0.5,0-1,0-1.5,0.1 c-0.4,0-0.9,0.1-1.6,0.2c-0.7,0.1-1.5,0.2-2.3,0.2l-1.1,0.1l-0.5,0l-0.7,0c-0.9,0-2-0.1-3.1-0.4c-1.1-0.3-2-0.7-2.4-0.9 c-0.3-0.1-0.3-0.1-0.5-0.2c-0.1,0-0.2,0-0.3,0c-0.1,0-0.3,0-0.6,0c-0.5,0-1,0-1.5,0.1c-0.5,0-0.9,0.1-1.6,0.2 c-1.4,0.2-3.1,0.3-4.2,0.3c-0.5,0-1,0-1.5,0.1c-0.5,0-1,0.1-1.7,0.2c-0.7,0.1-1.5,0.2-2.2,0.2l-1.9,0.1c-0.5,0-1,0.1-1.4,0.1 c-0.4,0-1,0.1-1.7,0.2c-1.5,0.2-3.1,0.3-4.4,0.3c-1.3,0-3-0.1-4-0.1c-0.5,0-1,0-1.6,0l-0.8,0l-1.1,0c-0.7,0-1.6-0.1-2.4-0.2 l-1.8-0.2c-0.4,0-0.8-0.1-1.3-0.1c-0.5,0-1,0-1.4,0c-0.4,0-0.8,0.1-1.2,0.2c-0.4,0.1-1.1,0.3-1.9,0.4c-0.9,0.2-1.7,0.2-2.5,0.3 c-0.8,0-1.4,0-2.1,0c-1.3,0-2.8-0.1-3.8-0.1c-0.5,0-1.1,0-1.7,0l-1,0c-0.4,0-0.8,0-1.2,0c-0.8,0-1.8-0.2-2.6-0.3 c-0.8-0.2-1.1-0.3-1.5-0.3c-0.3,0-0.7-0.1-1.2-0.1l-0.8,0l-0.9,0l-3.7,0.1l-1.9,0c-0.6,0-1,0-1.5,0.1c-0.4,0-0.7,0.1-1.3,0.2 c-0.5,0.1-1.4,0.3-2.2,0.4c-1.7,0.2-3,0.2-4.6,0.1c-0.8-0.1-1.7-0.2-2.3-0.3c-0.6-0.1-0.9-0.2-1.4-0.2c-0.4,0-0.9,0-1.4,0 c-0.6,0-1.1,0-1.6,0.1c-0.5,0-1,0.1-1.6,0.2c-0.6,0.1-1.4,0.2-2.1,0.2c-0.7,0-1.4,0.1-2,0.1c-0.5,0-0.9,0-1.3,0.1 c-0.4,0-0.7,0.1-1.4,0.3c-0.7,0.2-1.6,0.3-2.4,0.4c-1.7,0.2-2.9,0.2-4.5,0.1c-0.8-0.1-1.6-0.2-2.1-0.3c-0.5-0.1-0.9-0.1-1.4-0.1 c-0.2,0-0.5,0-0.7,0l-0.9,0c-0.7,0-1.5,0-2.2-0.1c-0.8-0.1-1.6-0.2-2.1-0.2c-0.5-0.1-0.9-0.1-1.4-0.1c-0.9,0-2.2,0-3.2,0.1 l-1.8,0.2c-0.7,0.1-1.4,0.1-2.1,0.1c-1.3,0-2.6,0.1-4.1,0c-1.5-0.1-2.4-0.2-3.5-0.2c-1.2,0-2.1,0-2.9,0.2c-0.7,0.1-2.7,0.6-4.1,0.6 c-0.4,0-0.7,0-1.1,0l-1,0c-0.7,0-1.4,0-2.1-0.1c-1.5-0.1-2.2-0.2-3.4-0.2c-1.2,0-2,0-2.7,0.2c-0.4,0.1-1.1,0.3-1.9,0.5 c-0.8,0.2-1.6,0.2-2.4,0.3c-0.7,0-1.5,0-2.3,0c-0.8,0-1.7-0.2-2.5-0.4c-0.8-0.2-1.3-0.3-1.6-0.4c-0.3-0.1-0.7-0.1-1.2-0.1 c-0.4,0-1.1,0-1.6,0c-0.6,0-1.1,0.1-1.6,0.1c-0.5,0.1-1.2,0.1-1.9,0.2c-0.7,0.1-1.4,0.1-2,0.1c-1.3,0-1.6,0.1-2.4,0.3 c-0.4,0.1-1.2,0.5-2.1,0.7c-0.9,0.2-1.8,0.3-2.5,0.3c-0.8,0-1.6,0-2.5-0.1c-0.9-0.1-1.9-0.4-2.6-0.6c-0.8-0.3-1.1-0.4-1.3-0.5 c-0.3-0.1-0.6-0.1-1-0.1l-0.3,0l-0.4,0l-0.8,0c-0.5,0-1,0.1-1.6,0.1c-0.6,0.1-1.3,0.2-2,0.2c-0.7,0.1-1.4,0.1-2,0.1 c-1.3,0-2,0.1-3.1,0.3c-0.6,0.1-1.3,0.2-2.1,0.3c-0.7,0.1-1.5,0.1-2.1,0.1c-0.7,0-1.5,0-2.3-0.1c-0.8-0.1-1.7-0.3-2.4-0.5 c-0.6-0.2-0.9-0.3-1.3-0.3c-0.4-0.1-0.8-0.1-1.3-0.1c-0.5,0-1,0-1.4,0.1c-0.4,0.1-0.8,0.1-1.4,0.3c-0.6,0.1-1.4,0.3-2.2,0.4 c-0.8,0.1-1.5,0.1-2.2,0.2c-0.7,0-1.5,0-2.4-0.1c-0.8-0.1-1.7-0.3-2.3-0.5c-0.6-0.2-0.9-0.2-1.2-0.3c-0.4-0.1-0.8-0.1-1.3-0.1 c-0.4,0-0.8,0.1-1,0.1c-0.3,0.1-0.5,0.1-1,0.4c-0.5,0.3-1.4,0.7-2.4,1c-0.9,0.2-1.8,0.3-2.6,0.4c-0.8,0-1.5,0-2.3-0.1 c-0.8-0.1-1.7-0.3-2.3-0.5c-0.6-0.2-0.9-0.2-1.3-0.3c-0.4-0.1-0.9-0.1-1.4-0.1c-0.5,0-1,0-1.4,0.1c-0.4,0.1-0.8,0.1-1.4,0.3 c-0.6,0.2-1.4,0.4-2.2,0.4c-0.8,0.1-1.5,0.1-2.2,0.1l-7.4,0.1c-0.7,0-1.4,0-2.2-0.1c-0.8-0.1-1.5-0.2-2.1-0.3 c-1-0.2-1.8-0.2-3.1-0.2c-0.7,0-1.4,0-2.2-0.1c-0.8-0.1-1.5-0.2-2-0.3c-0.5-0.1-0.9-0.1-1.4-0.2c-0.5,0-1.1,0-1.5,0 c-0.5,0-0.9,0.1-1.3,0.2c-0.4,0.1-0.8,0.2-1.5,0.5c-1.5,0.5-3.3,0.6-4.5,0.6l-7.5,0.1c-0.7,0-1.5-0.1-2.3-0.2 c-0.8-0.1-1.4-0.3-1.9-0.4c-0.5-0.1-0.9-0.1-1.4-0.2c-0.5,0-1,0-1.5,0c-1,0.1-1.2,0.2-2.8,0.8c-1.6,0.6-3.4,0.7-4.6,0.7 c-1.3,0-3-0.2-4-0.3c-0.5-0.1-1-0.1-1.6-0.1l-0.8,0l-0.9,0c-1.2,0-2.6,0-3.7,0l-3.7,0c-1.3,0-2.8-0.1-3.8-0.2c-1.1-0.1-2.2,0-3.6,0 c-0.7,0-1.4-0.1-2.1-0.1c-0.7-0.1-1.2-0.1-1.7-0.2c-1-0.1-2.3-0.1-3.2,0c-0.5,0.1-0.8,0.1-1.3,0.3c-0.5,0.1-1.2,0.4-2,0.6 c-0.8,0.2-1.6,0.3-2.3,0.3c-0.7,0-1.4,0-2.1,0c-0.7,0-1.5-0.1-2.1-0.2c-0.7-0.1-1.2-0.2-1.6-0.3c-1-0.1-2.2-0.1-3.2,0 c-0.5,0-1,0.1-1.5,0.2c-0.6,0.1-1.3,0.3-2,0.4c-0.7,0.1-1.4,0.1-2.1,0.1c-0.7,0-1.3,0-1.9,0c-0.6,0-1.3,0-1.9-0.1 c-0.6,0-1.2-0.1-1.8-0.1c-0.6,0-1.2,0-1.8,0c-0.6,0-1.1,0-1.6,0.1c-0.5,0.1-1,0.2-1.6,0.3c-0.6,0.1-1.4,0.3-2.1,0.4 c-0.7,0.1-1.4,0.1-2.1,0.1l-1.8,0l-3.7,0.1l-1.9,0c-0.7,0-1.4,0-2.1-0.1c-0.7-0.1-1.4-0.2-2-0.3c-0.6-0.1-1-0.2-1.6-0.2 c-1-0.1-2.3,0-3.4,0.1c-0.6,0-1.1,0.1-1.8,0.2c-0.6,0.1-1.3,0.1-2,0.2c-0.7,0-1.3,0.1-2,0.1c-0.7,0-1.4-0.1-2.2-0.2 c-0.8-0.1-1.4-0.3-1.9-0.5c-0.5-0.1-0.9-0.2-1.4-0.2c-1-0.1-2.3,0-3.4,0.1c-1.2,0.1-2.5,0.1-3.7,0.2l-3.7,0.1l-3.7,0 c-1.3,0-2.4,0-3.5,0.2c-1.1,0.1-2.5,0.3-3.8,0.4c-0.7,0-1.2,0-1.8,0.1c-0.5,0-1,0.1-1.5,0.2c-0.5,0.1-1.1,0.3-1.9,0.4 c-0.7,0.1-1.4,0.2-2.1,0.3c-0.7,0-1.3,0-2,0c-0.7,0-1.4,0-2-0.1c-1.3-0.2-2.3-0.3-3.5-0.2c-1.2,0-2.6,0-3.8-0.1 c-1.3-0.1-2.3-0.2-3.5-0.1c-1.2,0-2.3,0.1-3.4,0.2c-1.2,0.2-2.6,0.3-3.9,0.3c-1.3,0-2.5,0-3.8,0c-1.2,0-2.4,0-3.6,0l-3.7,0.1 l-3.7,0.1c-1.2,0-2.3,0.1-3.5,0.2c-1.3,0.1-2.6,0.2-3.8,0.2c-1.2,0-2.6,0-3.8-0.1c-1.2-0.1-2.3,0-3.6,0c-0.7,0-1.4-0.1-2.1-0.2 c-0.7-0.1-1.4-0.3-1.9-0.5c-0.5-0.1-1-0.2-1.5-0.3c-0.5,0-1.1,0-1.6,0c-0.5,0-1,0.1-1.5,0.2c-0.5,0.1-0.9,0.3-1.6,0.5 c-1.3,0.5-3,0.6-4.1,0.6c-1.2,0-2.2,0.2-3.5,0.4c-1.3,0.2-2.6,0.2-3.9,0.3c-0.7,0-1.4,0-2.1-0.1c-0.7-0.1-1.3-0.2-1.9-0.3 c-0.5-0.1-1-0.1-1.6-0.1c-0.5,0-1.1,0-1.8,0c-1.3,0-2.7-0.1-3.8-0.2c-1.1-0.1-2.2,0-3.5,0c-1.2,0-2.5,0-3.7,0l-7.3,0.2l-3.7,0.1 l-3.7,0.1c-1.2,0-2.5,0.1-3.5,0.2c-0.5,0.1-1,0.1-1.6,0.3c-0.6,0.1-1.3,0.3-2,0.4c-1.4,0.2-2.7,0.3-4.1,0.2c-0.7,0-1.4-0.1-2.1-0.2 c-0.6-0.1-1.1-0.1-1.7-0.2c-0.5,0-1.1,0-1.6,0c-0.5,0-1,0.1-1.5,0.1c-0.5,0.1-0.8,0.2-1.4,0.4c-0.5,0.2-1.3,0.5-2.1,0.6 c-0.8,0.2-1.5,0.2-2.2,0.3c-0.7,0-1.4,0-2.1,0c-0.7,0-1.5-0.2-2.1-0.3c-0.6-0.1-1-0.2-1.5-0.2c-0.9-0.1-2.1,0-3.1,0.1 c-0.5,0.1-1,0.2-1.6,0.3c-0.6,0.1-1.4,0.3-2.1,0.4c-0.7,0.1-1.4,0.1-2,0.2c-0.6,0-1.1,0.1-1.6,0.1c-0.5,0.1-1,0.2-1.6,0.3 c-0.6,0.1-1.4,0.3-2.1,0.3c-0.7,0.1-1.4,0.1-2.1,0.1c-0.7,0-1.5,0-2.3-0.1c-0.8-0.1-1.6-0.3-2.1-0.5c-0.5-0.1-0.9-0.2-1.3-0.2 c-0.8-0.1-2,0-3,0.1c-0.5,0.1-0.9,0.2-1.6,0.3c-0.7,0.1-1.4,0.3-2.2,0.3c-0.7,0.1-1.4,0.1-2.1,0.1c-0.7,0-1.5,0-2.4-0.2 c-0.8-0.1-1.6-0.4-2.1-0.5c-0.5-0.1-0.8-0.2-1.2-0.2c-0.8-0.1-2,0-2.9,0.2c-0.4,0.1-0.9,0.2-1.6,0.4c-0.7,0.2-1.5,0.3-2.2,0.4 c-1.5,0.1-2.7,0.1-4.1,0.1c-0.7,0-1.4-0.1-1.9-0.1c-0.6,0-1.1-0.1-1.6-0.1c-1.1,0-2.3,0-3.4,0.1c-1,0.1-2.5,0.3-3.8,0.3 c-1.2,0.1-2.8,0.1-4.3-0.2c-1.6-0.3-2.2-0.5-3.2-0.5c-1.1,0-1.8,0-2.5,0.3c-0.3,0.1-0.9,0.4-1.7,0.7c-0.8,0.3-1.7,0.5-2.5,0.6 c-0.4,0.1-0.8,0.1-1.2,0.1l-0.9,0l-1.8,0c-1.2,0-2.5,0.1-3.7,0.1l-1,0c-0.4,0-0.8,0-1.2-0.1c-0.8-0.1-1.7-0.3-2.5-0.6 c-1.6-0.7-1.9-0.9-2.8-1c-0.2,0-0.4,0-0.7,0l-0.9,0l-1.8,0c-1.2,0-2.5,0.1-3.7,0.1c-1.3,0-2.5,0-3.8,0c-1.3,0-2.4-0.1-3.6-0.1 c-1.2,0-2.3,0-3.3,0.2c-0.5,0.1-1.2,0.2-1.9,0.3c-0.7,0.1-1.4,0.1-2,0.1c-1.3,0-2.6,0-4-0.2c-1.3-0.2-2.2-0.3-3.5-0.3 c-1.2,0-2.2,0-3.3,0.2c-0.6,0.1-1.3,0.2-1.9,0.3c-0.7,0.1-1.3,0.1-2,0.1c-1.2,0-2.2,0-3.4,0.3c-0.6,0.1-1.3,0.3-1.9,0.4 c-0.7,0.1-1.3,0.1-2,0.1c-1.3,0-2.6-0.1-3.8-0.4c-1.2-0.3-2.3-0.4-3.6-0.4L43,70.6z"/></g></svg>