<?xml version="1.0" encoding="utf-8"?>
<!-- Generator: Adobe Illustrator 24.0.0, SVG Export Plug-In . SVG Version: 6.00 Build 0)  -->
<svg version="1.1" id="Layer_1" xmlns="http://www.w3.org/2000/svg" xmlns:xlink="http://www.w3.org/1999/xlink" x="0px" y="0px"
	 viewBox="0 0 1000 100" style="enable-background:new 0 0 1000 100;" xml:space="preserve">
<g>
	<path d="M33.5,35.8l7.2-0.2l-0.2,0l7.2-1.8l0.1,0l0.2,0l7.2,0.4l7.2,0.2l-0.2,0c3-0.2,6-0.5,9-0.6l4.5-0.2c1.5-0.1,3,0,4.6,0
		c1.5,0,3.1,0,4.6,0.1l4.5,0.3l9,0.5l-0.2,0l7.2-0.3l0.1,0l0.2,0l7.2,0.5l-0.7,0l7.2-1.2l0.5-0.1l0.6,0.1l7.2,1.2l-1.3,0l7.2-1.8
		L134,33l0.5,0l5.4,0.2c1.8,0.1,3.6,0.1,5.4,0.1c1.8,0,3.6,0,5.5,0.2l5.5,0.4l-0.6,0l7.2-0.6l0.5,0l0.6,0.1l7.2,1.4l-0.9-0.1
		l7.2-0.2l-0.5,0l7.2-1.1l0.2,0l0.3,0l7.2-0.2l0.4,0l0.5,0.1l7.2,1.3l-1.4,0l7.2-1l0.4-0.1l0.5,0l7.1,0.5l7.1,0l0.2,0l0.3,0l7.2,0.8
		l-1,0l7.2-0.9l0.6-0.1l0.7,0.1l7.2,1.3l-1.4,0l7.2-0.9l0.3,0l0.3,0l7.2,0l0.4,0l0.4,0.1l7.2,1.2l-1.4,0l7.2-0.9l0.6-0.1l0.6,0.1
		l7.2,0.9l-0.8,0l7.2-0.3l0.6,0l0.6,0.1l7.2,1.6l-1.4-0.1l7.2-0.5l0.4,0l0.4,0l7,0.8l6.9,0.3l7,0l7.1-0.5l0.6,0l0.6,0.1l7.2,1.3
		l-1.5,0l7.2-1l0.7-0.1l0.7,0.1l7.2,1.1l-0.5,0l7.2,0.3l-0.8,0l7.2-0.9l0.5-0.1l0.5,0l7.3,0.6l7.2,0.8l-0.6,0l7.2-0.2l7.2-0.3l0.7,0
		l0.7,0.2l7.1,1.9l-1.1-0.2c3.5,0,7.1,0.2,10.6,0c3.5-0.1,7.3-0.2,10.9-0.2c3.7,0.1,7.4,0.2,11.1,0.5c3.7,0.2,7.3,0.7,11,1.1l-1.1,0
		l7.2-0.9l0.4-0.1l0.4,0l7.2,0.4l0.2,0l0.1,0l7.2,0.9l7.2,1l-1.5,0.1l7.3-1.5l1.1-0.2l1.1,0.3l7.1,2.1l-1.7-0.1l7.2-0.8l0.2,0l0.2,0
		l7.2,0l0.2,0l0.2,0l5.4,0.4c1.8,0.1,3.6,0.3,5.3,0.5c1.8,0.2,3.5,0.4,5.3,0.4l5.3,0.2l0.2,0l0.2,0l7.2,1l-0.7,0l5.5-0.1
		c1.8-0.1,3.6,0,5.4,0c1.8,0,3.6,0.1,5.4,0l5.3-0.2l0.4,0l0.4,0.1l7.2,1.2l-1.1,0l7.2-0.7l0.3,0l0.2,0l7.2,0.2l0.4,0l0.4,0.1
		l7.1,1.6l-1.2-0.1l7.3-0.5l7.4,0l0.2,0l0.2,0l7.3,0.7l7.3,1.1l-0.7,0l7.2-0.2l0.3,0l0.2,0l7.2,0.6l-0.4,0l7.2-0.1l0.3,0l0.2,0
		l7,0.8l7.1,0.3l7.3,0.5l7.3,0.9l-0.7,0l7.2-0.5l0.4,0l0.4,0.1l7,1.1l7.1,0.7l-0.4,0l7.2,0l-0.4,0l7.3-0.9l0.6-0.1l0.6,0.1l7.1,1.6
		l-0.9-0.1l7.2-0.3l0.2,0l0.2,0l7.3,0.6l7.2,1l-0.4,0l7.2,0l0.3,0l0.2,0l7.1,1.1l-0.9,0l7.3-1l0.5-0.1l0.4,0.1l7.1,1.1l7.1,0.9
		l-0.6,0l7.2-0.5l0.3,0l0.3,0l7.1,1l-0.5,0l7.2-0.3l0.4,0l0.4,0.1l7.1,1.7l-0.3,0l7.2,0.9l-0.7,0l7.3-1.1l0.5-0.1l0.4,0.1l7.1,1.4
		l-0.2,0L818,61l-0.3,0l7.3-0.1l7.3,0.2l0.2,0l0.2,0l7.1,1.5l-0.2,0l7.2,0.7l-0.4,0l7.3-0.7l0.2,0l0.2,0l5.4,0.5
		c1.8,0.2,3.6,0.3,5.3,0.4c1.8,0.1,3.6,0.3,5.3,0.3l5.4,0.1l0.1,0l0.1,0l5.4,0.7c1.8,0.2,3.6,0.5,5.4,0.8c1.8,0.3,3.6,0.6,5.4,0.8
		l5.3,0.7l-0.1,0l7.2,0.3l-0.2,0l7.2-0.5l0.1,0l0,0l7.2,0.1l0.2,0l0.1,0l7.1,1.8l-0.3,0c3.6,0.1,7.2,0.1,10.8,0.3
		c3.6,0.1,7.2,0.6,10.8,0.9c3.6,0.4,7.1,1,10.7,1.2c3.6,0.4,7.2,0.4,10.7,0.5l0,1c-3.6,0-7.2,0.1-10.8-0.2
		c-3.6-0.1-7.2-0.6-10.8-0.9c-3.6-0.2-7.1-0.6-10.7-0.6c-3.6-0.1-7.2,0-10.8,0l-0.1,0l-0.1,0l-7.1-1.6l0.3,0l-7.2,0.1l0.1,0
		l-7.2,0.7l-0.1,0l-0.1,0l-7.2-0.2l0,0l-0.1,0l-5.4-0.6c-1.8-0.2-3.6-0.4-5.4-0.7c-1.8-0.2-3.6-0.5-5.4-0.6l-5.4-0.5l0.2,0l-5.4,0
		c-1.8,0-3.6-0.1-5.4-0.2c-1.8-0.1-3.6-0.2-5.4-0.3l-5.4-0.4l0.4,0l-7.2,0.9l-0.2,0l-0.2,0l-7.2-0.6l-0.1,0l-0.1,0l-7.1-1.3l0.4,0
		l-7.2-0.1l-7.2,0.2l-0.1,0l-0.2,0l-7.2-0.6l-0.1,0l-0.1,0l-7.1-1.2l0.9,0l-7.3,1.3l-0.3,0.1l-0.4,0l-7.2-0.8l-0.1,0l-0.2,0
		l-7.1-1.6l0.8,0.1l-7.2,0.5l-0.2,0l-0.3,0l-7.2-0.9l0.6,0l-7.2,0.6l-0.3,0l-0.3,0l-7.2-0.8l-7.2-1l0.9,0l-7.3,1.2l-0.4,0.1
		l-0.5-0.1l-7.2-1l0.5,0l-7.2,0.1l-0.2,0l-0.2,0l-7.1-0.8l-7.1-0.4l0.4,0l-7.2,0.4l-0.4,0l-0.5-0.1l-7.1-1.5l1.2,0l-7.2,1l-0.2,0
		l-0.2,0l-7.2,0.1l-0.2,0l-0.2,0l-7.3-0.6l-7.2-1l0.8,0l-7.2,0.6l-0.3,0l-0.4,0l-7.1-0.8l-7.1-0.4l-7.3-0.3l-7.3-0.7l0.5,0l-7.2,0.1
		l-0.2,0l-0.2,0l-7.2-0.5l0.5,0l-7.2,0.3l-0.3,0l-0.4-0.1l-7-1l-7.1-0.6l0.4,0l-7.1,0.1l-7.1,0.5l-0.6,0l-0.6-0.1l-7.1-1.6l0.8,0.1
		l-7.2-0.2l0.5,0l-7.2,0.7l-0.5,0.1l-0.6-0.1l-7.2-1.2l0.9,0.1l-5.5,0.2c-1.8,0.1-3.6,0.1-5.5,0c-1.8,0-3.6-0.1-5.4,0l-5.4,0.1
		l-0.3,0l-0.4,0l-7.2-1l0.5,0l-5.5-0.2c-1.8,0-3.6-0.2-5.5-0.4c-1.8-0.1-3.6-0.3-5.4-0.4l-5.4-0.4l0.4,0l-7.2,0.1l0.5,0l-7.2,0.8
		l-0.9,0.1l-0.9-0.2l-7.1-2l2.2,0.1l-7.3,1.5l-0.7,0.2l-0.8-0.1l-7.1-0.9l-7.1-0.8l0.3,0l-7.2-0.3l0.8,0l-7.2,1l-0.5,0.1l-0.6-0.1
		c-3.5-0.4-7.1-0.9-10.6-1c-3.5-0.3-7-0.3-10.5-0.5c-3.5,0.1-7,0.1-10.7,0.3c-3.6,0.2-7.3,0-11,0l-0.5,0l-0.6-0.1l-7.1-1.9l1.4,0.1
		l-7.3,0.4l-7.3,0.2l-0.3,0l-0.3,0l-7.1-0.7l-7.1-0.5l1,0l-7.2,0.9l-0.4,0l-0.4,0l-7.2-0.3l-0.2,0l-0.3,0l-7.2-1l1.3,0l-7.2,1
		l-0.7,0.1l-0.7-0.1l-7.2-1.3l1.2,0.1l-7.3,0.5l-7.5,0.1l-7.5-0.3l-7.3-0.8l0.9,0l-7.2,0.5l-0.7,0.1l-0.7-0.2l-7.2-1.6l1.2,0.1
		l-7.2,0.3l-0.4,0l-0.4-0.1l-7.2-1l1.2,0l-7.2,0.9l-0.7,0.1l-0.7-0.1l-7.2-1.2l0.8,0.1l-7.2,0l0.6,0l-7.2,0.8l-0.7,0.1l-0.7-0.1
		l-7.2-1.3l1.3,0l-7.2,0.8l-0.6,0.1l-0.5-0.1l-7.2-0.9l0.4,0l-7.3-0.2l-7.3-0.6l0.9,0l-7.2,0.9l-0.7,0.1l-0.6-0.1l-7.2-1.5l0.9,0.1
		l-7.2,0l0.5,0l-7.2,0.9l-0.3,0l-0.2,0l-7.2,0l-0.5,0l-0.4-0.1l-7.1-1.7l1.1,0.1l-7.2,0.4l-0.3,0l-0.2,0l-5.3-0.5
		c-1.8-0.2-3.6-0.3-5.3-0.3c-1.8-0.1-3.6-0.1-5.4-0.3l-5.4-0.4l0.9-0.1l-7.3,1.5l-0.7,0.1l-0.6-0.1l-7.1-1.5l1,0l-7.2,0.9l-0.4,0.1
		l-0.3,0l-7.2-0.8l0.3,0l-7.2-0.1l-0.2,0l-0.1,0l-9-1l-4.5-0.5c-1.5-0.2-3-0.2-4.4-0.3c-1.5-0.1-3-0.2-4.4-0.2l-4.5-0.1
		c-3-0.1-6,0-9,0l-0.1,0l0,0L55,36.9L47.8,36l0.3,0l-7.3,1.2l-0.1,0l-0.1,0l-7.2-0.4L33.5,35.8z"/>
</g>
</svg>
