<?xml version="1.0" encoding="utf-8"?>
<!-- Generator: Adobe Illustrator 24.0.0, SVG Export Plug-In . SVG Version: 6.00 Build 0)  -->
<svg version="1.1" id="Layer_2_1_" xmlns="http://www.w3.org/2000/svg" xmlns:xlink="http://www.w3.org/1999/xlink" x="0px" y="0px"
	 viewBox="0 0 1500 1850" style="enable-background:new 0 0 1500 1850;" xml:space="preserve">
<style type="text/css">
	.st0{fill:none;}
</style>
<path class="st0" d="M103.5,1838.5c-44-66-18-195-48-297s-44-50-16-166s14-391,78-433s273-128,305-116"/>
<path class="st0" d="M485.5,757.5c0,66,55,180,127,288s36,85,21,116"/>
<path class="st0" d="M471.5,761.5c-49,65-87,124-41,202s67,150,67,150s79,29,119-28"/>
<path class="st0" d="M640.5,1205.5c-9,140,15,300-12,376"/>
<path class="st0" d="M514.5,1759.5c-6-52,12-201,34-193s86,40,162,34s32-38,151-34s251,21,251,21"/>
<path class="st0" d="M552.5,1773.5c49,3,100,23,148,65"/>
<path class="st0" d="M513.5,1573.5c-54-1-150,14-165,51s2,110,2,110"/>
<path class="st0" d="M186.5,1066.5c8,93,147,444,147,472"/>
<path class="st0" d="M539.5,1552.5c32-97,13-318,18-365"/>
<path class="st0" d="M560,946.6c62.5,43.9,120.5,80.9,193.5,26.9"/>
<path class="st0" d="M601.7,1109.1c85.8,140.4,243.8,409.4,283.8,450.4"/>
<path class="st0" d="M651.5,1295.5c39,58,173,265,173,265"/>
<path class="st0" d="M850.5,788.5c-29,103-124,196-94,272s50,173,76,233s88,220,88,259"/>
<path class="st0" d="M1020.5,1555.5c28-103,55-192,92-234s72-68,82-55"/>
<path class="st0" d="M1094.5,1438.5c21-46,102-108,159-117s30,32,30,32"/>
<path class="st0" d="M1115.5,1483.5c30-42,70-57,124-81s70-24,72,0"/>
<path class="st0" d="M1121.5,1552.5c15-27,46-37,67-58s71-54,75-31"/>
<path class="st0" d="M966.5,746.5c52,25,279,37,315,86s80,180,118,321s67,173,54,211s11,77,7,128s-27,65-29,122s-9,159-60,237"/>
<path class="st0" d="M1246.5,1805.5c-44-72-84-182-85-224"/>
<path class="st0" d="M1119.5,1272.5c27-162,67-211,127-303"/>
<path class="st0" d="M1110.5,846.5c-58,161-19,344-5,385"/>
<path class="st0" d="M785.5,953.5c48,31,106,81,135,92"/>
<path class="st0" d="M922.5,757.5c34,55,9,288,9,288"/>
<path class="st0" d="M816.5,1041.5c29,38,64,188,109,272s78,217,78,217"/>
<path class="st0" d="M813.5,199.5c-17-99-99-164-280-106s-144,139-190,166"/>
<path class="st0" d="M660.5,115.5c-116,28-208,88-102,310c21,54-21,120-21,120"/>
<path class="st0" d="M838.5,158.5c44-17,101,26,135,130s51,173,51,173"/>
<path class="st0" d="M885.5,282.5c37,84,156,173,182,241s12,146-27,161"/>
<path class="st0" d="M823.5,267.5c7,92,93,241,57,361"/>
<path class="st0" d="M783.5,233.5c-18-23-204,2-224,75"/>
<path class="st0" d="M292.5,312.5c-15,33.2,46,96,90,34"/>
<path class="st0" d="M228.5,635.5c71,3,220-46,199-190s79-254,79-254"/>
<path class="st0" d="M517.5,430.5c-35,44,22,98,24,160s-3,157-55,157"/>
<path class="st0" d="M285.5,788.5c8,32,59,61,112,3"/>
<path class="st0" d="M281.5,691.5c44,15,137,13,166-53s2-132,36-170"/>
<path class="st0" d="M188.5,495.5c69-4,193-73,203-191s113-160,113-160"/>
<path class="st0" d="M827.5,134.5c-22-62-216-159-412-10"/>
<path class="st0" d="M834.5,115.5c50,2,99,76,99,76"/>
<path class="st0" d="M532.5,761.5c29,58,143,156,273,49"/>
<path class="st0" d="M858.5,330.5c36,57,76,179,108,232s35,163-35,182"/>
<path class="st0" d="M631.5,550.5"/>
</svg>
