<?xml version="1.0" encoding="utf-8"?>
<!-- Generator: Adobe Illustrator 24.0.0, SVG Export Plug-In . SVG Version: 6.00 Build 0)  -->
<svg version="1.1" id="Layer_1" xmlns="http://www.w3.org/2000/svg" xmlns:xlink="http://www.w3.org/1999/xlink" x="0px" y="0px"
	 viewBox="0 0 150 500" style="enable-background:new 0 0 150 500;" xml:space="preserve">
<g>
	<path d="M127.5,23.1c-2.1,1-4,1.9-6.4,2.4l-0.9,0.2l-0.8,0.2c-0.5,0.1-1,0.2-1.5,0.3c-1,0.2-2.1,0.4-3.2,0.5
		c-0.6,0-1.2,0.1-1.8,0.1c-0.1,0-0.3,0-0.6,0c-0.2,0-0.4,0-0.6,0c-0.4,0-0.8-0.1-1.2-0.1c-1.5-0.3-2.7-0.6-3.5-0.9
		c-0.4-0.1-0.8-0.2-1.1-0.3c-0.1,0-0.2,0-0.3-0.1c0,0-0.1,0-0.1,0l-0.2,0c-0.7,0-1.5,0-2.5,0.1c-1,0.1-2.2,0.2-3.7,0.2l-0.9,0
		c-0.2,0-0.3,0-0.5,0c-0.4,0-0.8,0-1.2,0.1c-0.9,0.1-2,0.2-3.3,0.3c-0.3,0-0.7,0-1.1,0c-0.2,0-0.4,0-0.6,0l-0.5,0
		c-0.3,0-0.7,0-1.1,0c-0.8,0-1.8,0.1-3,0.2c-0.6,0-1.2,0.1-1.9,0.1c-0.7,0-1.5,0-2.2-0.1c-2.8-0.3-4.7-1-5.9-1
		c-2.7-0.1-4.8-0.6-6.4-0.7l-0.6,0c-0.2,0-0.2,0-0.3,0c-0.2,0-0.5,0.1-0.9,0.1c-0.8,0.2-1.9,0.5-3.2,0.8c-0.7,0.1-1.4,0.3-2.2,0.3
		c-0.2,0-0.4,0-0.6,0c-0.2,0-0.5,0-0.7,0c-0.5,0-0.9-0.1-1.3-0.2c-1.6-0.3-2.6-0.8-3.5-1c-0.8-0.3-1.4-0.4-1.7-0.4
		c-0.1-0.1-0.9,0.1-1.8,0.5c-1,0.4-2.2,0.9-3.7,1.2c-0.8,0.1-1.7,0.2-2.6,0.1c-0.9-0.1-1.6-0.2-2.2-0.4c-1.2-0.3-2.2-0.7-2.9-0.9
		c-0.8-0.2-1-0.2-2.2-0.1c-1,0.1-2,0.2-3.1,0.2L35.3,25L33.8,25c-0.6,0-1.3,0.2-2.4,0.6c-1.1,0.3-2.4,0.7-3.9,0.8l2.7-3
		c0,1.5-0.3,3-0.5,4.1c-0.1,0.6-0.2,1-0.3,1.5c0,0.2,0,0.5,0,0.7c0,0.2,0,0.5,0,0.8c0,1.1,0.1,2.3,0.1,3.5l0.1,1.9l0,1.8
		c0,1.1,0.1,2.3,0.2,3.5l0.1,1.9l0,1c0,0.4,0,0.8,0,1.1c-0.1,1.5-0.5,2.7-0.7,3.8c-0.1,0.5-0.2,1.1-0.3,1.5c0,0.2,0,0.5,0,0.7l0,0.9
		c0,1.3,0,2.5-0.1,3.7l0,1.7c0,0.6,0,1.1,0,1.7l0.1,3.6l0.1,1.8l0,0.9c0,0.2,0,0.5,0,0.8c0.1,1,0.3,2.2,0.5,3.4
		c0.1,0.6,0.2,1.3,0.3,1.9c0,0.3,0.1,0.7,0.1,1l0,0.8c0.1,2.2,0.5,4.7,0.5,7.3c0,1.3-0.1,2.5-0.1,3.7l0,1.7l0,1.7l0,3.6l0,1.8
		c0,0.3,0,0.6,0,0.9c0,0.2,0,0.5,0.1,0.7c0.1,1,0.4,2.1,0.6,3.4c0.1,0.6,0.2,1.3,0.3,2c0,0.3,0.1,0.8,0.1,1c0,0.3,0,0.5,0.1,0.8
		c0.1,1.1,0.3,2.2,0.5,3.4c0.1,0.6,0.2,1.3,0.2,2c0,0.3,0,0.7,0.1,1l0,0.9l0.1,3.6l0.1,1.8l0,0.5l0,0.2l0,0.4c0,0.5-0.1,1-0.1,1.4
		c-0.3,1.7-0.9,2.9-1.2,3.9c-0.2,0.5-0.3,0.9-0.3,1.2c0,0.1,0,0.3,0,0.3l0.1,0.9l0.2,3.6l0.1,1.8l0.1,0.9c0,0.2,0,0.3,0.1,0.5
		c0.1,0.7,0.5,1.7,0.9,3c0.2,0.6,0.4,1.4,0.5,2.2c0.1,0.4,0.1,0.9,0.1,1.3l0,1c0,1.3,0,2.6,0,3.7c0,0.6,0,1.1,0,1.7l0,1.7l0.2,7.4
		c0,1.4-0.1,2.7-0.2,3.8c0,0.6,0,1.1,0,1.6l0,0.7c0,0.2,0,0.3,0.1,0.5c0.1,0.8,0.4,1.8,0.7,3.1c0.1,0.7,0.3,1.4,0.4,2.2
		c0,0.4,0.1,0.8,0.1,1.3l0,0.7c0.1,1,0.3,2.1,0.4,3.3c0.1,0.6,0.2,1.3,0.2,2c0.1,0.7,0.1,1.5,0.1,2.2c0,1.4-0.1,2.7-0.2,3.8
		c0,0.6-0.1,1.1-0.1,1.6l0,0.7c0,0.5,0,1-0.1,1.4c-0.2,1.8-0.6,3.1-0.8,4.1c-0.2,1-0.2,1.6-0.1,1.7c0.1,0.4,0.4,1.3,0.9,2.6
		c0.2,0.7,0.5,1.5,0.7,2.5c0.1,0.5,0.2,1,0.2,1.6c0,0.3,0,0.5,0,0.7l0,0.6c-0.1,1.7-0.3,3-0.5,4.1c-0.1,1.1-0.2,1.8-0.1,2.4
		c0.1,0.7,0.3,1.6,0.5,3c0.1,0.7,0.3,1.4,0.3,2.2c0.1,0.8,0.1,1.8,0.1,2.7c-0.1,1.8-0.4,3.2-0.6,4.2c-0.1,0.5-0.1,1-0.2,1.3
		c0,0.2,0,0.3,0,0.5l0,0.9c0,1.4-0.1,2.7-0.1,3.8l-0.1,1.6l0,0.7l0,0.5l0,0.6c-0.1,1.6-0.3,3-0.4,4c-0.1,0.5-0.1,1-0.1,1.4
		c0,0.2,0,0.4,0,0.6l0,0.8l0.1,3.6l0.1,1.8l0,0.9l0,0.1l0,0c0,0,0,0,0,0c0,0,0,0,0,0c0,0.1,0.3,0.9,0.8,2.3c0.2,0.7,0.5,1.5,0.7,2.6
		c0.1,0.5,0.2,1.1,0.2,1.8c0,0.7,0,1.3,0,1.8c-0.2,2.2-0.8,3.7-1,4.7c-0.1,0.5-0.2,0.9-0.3,1.1c0,0.1,0,0.2,0,0.2c0,0,0,0,0,0l0,0.2
		c0,0.6,0.2,1.6,0.4,2.8c0.1,0.6,0.2,1.4,0.3,2.2c0,0.4,0.1,0.8,0.1,1.3l0,1.1l0.1,3.6l0,1.8l0,0.9l0,0.5l0,0.8
		c-0.1,2-0.5,3.4-0.7,4.5c-0.1,0.5-0.2,1-0.2,1.3c0,0.2,0,0.3,0,0.4l0,0.3c0,0.6,0.2,1.6,0.4,2.8c0.1,0.6,0.2,1.4,0.3,2.2
		c0,0.4,0.1,0.8,0.1,1.3l0,0.9c0,0.7,0.2,1.7,0.3,3c0.2,1.3,0.4,2.8,0.3,4.7c-0.1,1.9-0.4,3.4-0.6,4.4c-0.1,0.5-0.1,1-0.2,1.3
		c0,0.2,0,0.3,0,0.4l0,0.5c0,0.8,0.1,1.8,0.3,3.1c0.1,0.6,0.1,1.3,0.2,2.1c0,0.4,0,0.8,0,1.2l0,0.7c0,0.3,0,0.6,0,0.9
		c-0.2,2.2-0.6,3.7-0.9,4.8c-0.1,0.5-0.2,0.9-0.2,1.1l0,0.1c0,0,0,0.1,0,0.1c0,0,0,0,0,0l0,0.4l0,7.3c0,1.4-0.1,2.7-0.1,3.9
		l-0.1,1.7l0,0.8l0,0.2l0,0.1c0,0,0,0,0,0c0-0.1,0-0.2,0-0.2c0-0.3,0-0.2,0.1,0.1l0.6,1.4c0.3,0.6,0.6,1.5,0.9,2.6
		c0.1,0.6,0.3,1.2,0.4,1.9c0.1,0.7,0.1,1.7,0.1,2c-0.1,1.9-0.3,3.4-0.5,4.5c-0.1,0.6-0.1,1-0.2,1.4c0,0.2,0,0.4,0,0.5
		c0,0.2,0,0.2,0,0.6l0.1,7.1c0,0.7,0.1,1.6,0.3,2.9c0.1,0.6,0.1,1.3,0.2,2.1c0,0.4,0,0.8,0.1,1.2l0,0.7c0,0.2,0,0.5,0,0.8
		c-0.1,2.2-0.5,3.8-0.7,4.8c-0.1,0.5-0.2,1-0.2,1.2c0,0.1,0,0.2,0,0.3l0,0.5c0,1.6-0.2,3-0.3,4.1l-0.1,1.6l0,0.7l0,0.3
		c0,0.1,0,0.1,0,0l0,0c0-0.1,0.1,0.6,0.5,1.8c0.2,0.6,0.4,1.4,0.6,2.4c0,0.2,0.1,0.5,0.1,0.8c0,0.3,0.1,0.6,0.1,0.9
		c0,0.3,0,0.6,0,0.9l0,0.6c0,2,0.2,4.5,0.1,7.3l-0.1,3.6l0,1.8l0,0.9l0,0.5l0,0.4l0,0.6c-0.1,1.6-0.5,2.8-0.9,3.7
		c-0.3,0.9-0.7,1.6-0.9,2.1c-0.2,0.5-0.4,0.8-0.4,0.9c0,0,0,0,0-0.1c0-0.1,0-0.1,0-0.2c0-0.1,0-0.1,0-0.2c0,0,0-0.2,0-0.1
		c0,0.5,0.1,1.4,0.2,2.6c0.1,0.6,0.2,1.3,0.2,2.1c0,0.4,0.1,0.8,0.1,1.2l0,0.7l0,0.6c0,0.4,0.1,1.2,0.2,2.4c0.2,1.2,0.4,2.8,0.4,4.8
		c-0.1,3-0.4,5.3-0.4,7.2l-0.3,7.2c0,0.9,0,2,0,3.2l0,1.9l0,1l0,0.5l0,0.7c-0.1,2.4-0.7,4.1-1,5.2c-0.3,1.1-0.4,1.7-0.4,1.6
		c0-0.1,0,0.5,0.3,1.7c0.3,1.2,0.8,3,0.8,5.5c0,0.3,0,1.1,0.2,2.3c0.2,1.2,0.4,2.8,0.4,4.9c0,1.6-0.4,2.8-0.7,3.8
		c-0.3,1-0.6,1.7-0.9,2.3c-0.5,1.1-0.6,1.7-0.6,1.2c0,0,0-0.1,0-0.1l0,0c0,0,0,0.1,0,0.1c0,0.1,0,0.2,0,0.4c0,0.3,0.1,0.8,0.2,1.3
		c0.2,1.1,0.5,2.7,0.5,4.8c0,0.6,0,0.9,0,1.3l-0.1,1.1c-0.1,0.7-0.2,1.4-0.2,2c-0.2,1.2-0.3,2.2-0.3,3.1c0,0.8,0,1.7,0,2.9
		c0.1,1.2,0.1,2.6,0.1,4.2l-7-6.8c0.3,0,0.9,0,1.8-0.2c0.9-0.2,2.2-0.5,3.9-0.7c0.4,0,0.9-0.1,1.3-0.1c0.4,0,0.7,0,1.1,0
		c0.7,0,1.4,0.1,2,0.1l3,0.3c0.4,0,0.7,0.1,1,0.1c1,0,2,0.1,2.8,0.2c1.6,0.3,2.8,0.7,3.6,1l0.8,0.2c0.2,0-0.1,0,0.1,0.1
		c0.2,0,0.8-0.1,1.7-0.4c1-0.3,2.2-0.8,4.2-1.1c1.1-0.1,1.9-0.1,2.8,0c0.8,0.1,1.5,0.2,2.2,0.4c1.3,0.3,2.2,0.6,2.8,0.7l0.3,0.1
		l0.1,0l0,0c0,0,0,0,0.1,0l1.6,0l5.8,0.1c0.5,0,1.2-0.2,2.3-0.4c1-0.2,2.4-0.6,4.2-0.7c1.6,0,2.9,0.2,4,0.4c1.1,0.2,2.1,0.5,2.8,0.6
		c0.4,0.1,0.6,0.1,1.1,0.1c0.5,0,0.9,0,1.4,0l3.2,0c0.6,0,1.1,0,1.7,0.1c0.6,0,1.2,0.1,1.8,0.2c1.2,0.2,2.2,0.4,3.2,0.6l1.4,0.3
		L97,476l0.8,0.1c1.3,0.2,2.4,0.4,3.4,0.7c1,0.3,1.9,0.5,2.8,0.6c0.9,0.2,1.8,0.2,2.8,0.3c1,0.1,2.1,0.1,3.2,0.3
		c0.5,0.1,1.2,0.1,1.6,0.2c0.5,0.1,0.9,0.1,1.4,0.2l3.1,0.3c1,0.1,2.3,0.4,3,0.4c1.8,0.1,4-0.4,6.3,0l-0.2,1.7
		c-1.9,0-3.7,0.9-6.1,1.2c-0.3,0-0.6,0.1-0.9,0.1l-0.8,0c-0.5,0-1,0-1.5,0.1l-3.1,0.2c-0.5,0-1.1,0.1-1.7,0.1c-0.6,0-1,0-1.5,0
		c-1,0.1-2,0.2-3,0.3c-1.1,0.1-2.2,0.2-3.4,0.1c-1.2,0-2.3-0.2-3.4-0.3c-1-0.1-2-0.2-2.8-0.2l-0.8,0l-0.9,0l-1.7-0.1
		c-1.1-0.1-2.1-0.1-3-0.1c-0.5,0-0.8,0-1.3,0c-0.4,0-0.9,0.1-1.4,0.1l-3.1,0.4c-0.5,0.1-1.1,0.1-1.7,0.2c-0.5,0-1.4,0.1-2,0
		c-1.3-0.1-2.4-0.2-3.4-0.3c-0.9-0.1-1.7-0.1-2.2,0c-0.2,0.1-0.9,0.3-1.9,0.7c-0.9,0.4-2.2,0.8-3.7,1.1c-0.4,0.1-0.8,0.1-1.2,0.2
		l-0.8,0.1l-1.5,0.1l-3.1,0.3l-1.5,0.1l-0.3,0l-0.4,0c-0.2,0-0.5,0-0.7,0c-0.4,0-0.8,0-1.2-0.1c-1.5-0.2-2.6-0.4-3.3-0.5
		c-0.4-0.1-0.7-0.1-0.9-0.1c-0.2,0-0.4,0-0.4,0.1c-0.1,0-0.8,0.3-1.8,0.7c-1,0.4-2.4,1-4.2,1.3c-0.9,0.2-2.2,0.2-3,0.1
		c-0.9-0.1-1.7-0.2-2.3-0.4c-1.2-0.3-2.1-0.5-2.5-0.5c-0.2,0-0.3,0-0.3,0c-0.8,0.1-1.5,0.1-2.2,0.1l-3.2-0.1c-0.4,0-0.8,0-1.2,0
		c-0.2,0-0.3,0-0.5,0c-0.1,0-0.1,0-0.3,0c-0.4,0.1-1.1,0.3-2.2,0.6c-1.1,0.3-2.6,0.7-4.4,0.8l-6.8,0.5l-0.2-7.2c0-0.8-0.1-1.8-0.2-3
		c-0.1-1.2-0.3-2.7-0.3-4.3c0-1.6,0.1-3,0.2-4.1c0-0.6,0.1-1.1,0.1-1.6l0-0.7c0-0.2,0-0.5,0-0.5c0-0.3-0.2-1.1-0.4-2.3
		c-0.1-0.6-0.3-1.4-0.4-2.2c-0.1-0.4-0.1-0.9-0.1-1.4c0-0.2,0-0.5,0-0.8l0-0.4l0-0.6c0.1-1.5,0.4-2.6,0.7-3.6
		c0.3-0.9,0.6-1.6,0.8-2.2c0.2-0.5,0.3-0.9,0.4-1.1c0-0.2,0-0.1,0,0.3c0-0.3-0.1-1.1-0.3-2.3c-0.2-1.2-0.5-2.8-0.5-4.8
		c0,0.1-0.1-0.4-0.4-1.6c-0.3-1.1-0.8-2.8-0.9-5.4c0-2.5,0.5-4.3,0.8-5.5c0.3-1.2,0.4-1.9,0.4-1.9l0-0.6l0-0.8l-0.1-1.7
		c-0.1-1.2-0.1-2.5-0.1-4l0.2-7.2c0-3,0.3-5.4,0.3-7.2c0-0.4-0.1-1.2-0.2-2.4c-0.2-1.2-0.4-2.7-0.4-4.7l0-0.5l0-0.6
		c0-0.4-0.1-0.9-0.2-1.5c-0.1-1.2-0.4-2.7-0.3-4.6c0-0.1,0-0.4,0-0.5l0-0.6c0-0.4,0.1-0.7,0.2-1.1c0.1-0.7,0.3-1.3,0.5-1.8
		c0.3-1.1,0.7-1.8,0.9-2.4c0.3-0.6,0.4-1,0.5-1.2c0.1-0.2,0-0.2,0,0.3l0.1-6.6c0.1-2-0.1-4.3-0.1-7.2l0-0.3c0-0.1,0,0,0,0
		c0,0,0,0,0,0c0,0,0,0,0,0c0,0,0-0.1,0-0.1c0-0.2-0.1-0.6-0.3-1.1c-0.3-1.1-0.8-2.7-0.9-5.2l0-0.5l0-0.4l0-0.6l0.1-1.1
		c0-0.7,0.1-1.4,0.2-2c0.1-1.2,0.2-2.3,0.2-3.1l0-0.5c0-0.3,0-0.6,0-0.8c0-0.5,0.1-1,0.2-1.5c0.1-0.9,0.3-1.7,0.4-2.3
		c0.3-1.3,0.5-2.1,0.5-2.3c0,0,0,0,0-0.1l0-0.3l0-0.6c0-0.4-0.1-0.9-0.1-1.5c-0.1-1.1-0.3-2.6-0.3-4.3L21,338c0-0.2,0-0.8,0-1.2
		c0-0.5,0.1-0.9,0.1-1.3c0.1-0.8,0.2-1.5,0.3-2.1c0.2-1.2,0.3-2.1,0.4-2.6c0-0.3,0,0.2,0,0.2c0,0.1,0,0.2,0,0.1
		c0-0.1-0.1-0.4-0.3-0.8c-0.2-0.5-0.4-1.1-0.7-2c-0.3-0.9-0.6-2-0.8-3.4c0-0.3-0.1-0.8-0.1-1.1l0-0.3l0-0.1l0-0.3l0-1l0.1-1.9
		c0.1-1.2,0.2-2.3,0.2-3.3l0.2-7.1l0-0.5l0-0.9l0.1-0.8l0.1-0.7c0.2-1,0.4-1.7,0.5-2.4c0.4-1.3,0.6-2.1,0.6-2.3c0,0,0,0,0,0
		c0,0,0-0.2,0-0.2l0-0.6c0-0.5,0-1-0.1-1.5c-0.1-1.1-0.2-2.5-0.2-4.1l0-0.6l0-0.7c0-0.5,0.1-0.9,0.1-1.4c0.1-0.9,0.2-1.6,0.4-2.2
		c0.3-1.3,0.4-2.2,0.5-2.7c0-0.4,0-1.4-0.1-2.4c-0.1-1.1-0.3-2.5-0.3-4.2l0-0.9c0-0.1,0-0.3,0-0.5c0-0.4-0.1-0.8-0.1-1.4
		c-0.1-1.1-0.4-2.5-0.4-4.3l0-0.7l0-0.8c0-0.5,0.1-1,0.1-1.4c0.1-0.9,0.3-1.6,0.4-2.3c0.3-1.3,0.5-2.2,0.5-2.6l0-0.1l0-0.4l0-0.9
		l0-1.8l0-3.6l0-0.7c0-0.2,0-0.3,0-0.5c0-0.4-0.1-0.9-0.2-1.4c-0.1-1.1-0.4-2.5-0.4-4.3l0-0.7l0-0.9c0-0.6,0.1-1.1,0.2-1.6
		c0.2-1,0.4-1.8,0.6-2.4c0.4-1.3,0.7-2.1,0.7-2.3c0-0.1,0,0.2,0,0c0-0.1-0.1-0.4-0.2-0.9c-0.3-0.9-0.9-2.3-1.3-4.6
		c0-0.3-0.1-0.6-0.1-0.9l0-0.5l0-0.4l0-0.9l0-1.8l0-3.6l0-1c0-0.4,0-0.8,0.1-1.2c0.1-0.8,0.2-1.5,0.2-2.2c0.2-1.3,0.4-2.3,0.4-3.1
		l0-0.3l0-0.4l0-1.1c0-0.7,0.1-1.3,0.1-2c0.1-1.2,0.2-2.4,0.2-3.4l0-0.9c0-0.5,0.1-0.9,0.1-1.3c0.1-0.8,0.2-1.6,0.4-2.2
		c0.3-1.3,0.5-2.3,0.5-2.9c0-0.3,0-0.5,0-0.9c0-0.4-0.1-0.8-0.2-1.3c-0.2-1.1-0.4-2.4-0.6-4.2c-0.1-1.9,0.1-3.5,0.3-4.8
		c0.2-1.3,0.4-2.3,0.5-3.1l0-0.3l0-0.2c0,0,0-0.1,0-0.2c0-0.2-0.1-0.6-0.2-1c-0.2-1-0.8-2.3-1.1-4.3c-0.3-2.3,0.1-4.1,0.5-5.5
		c0.4-1.4,0.7-2.3,0.7-2.9c0-0.1,0-0.3,0-0.3l0-1.1c0-0.7,0.1-1.4,0.2-2c0.1-1.3,0.3-2.4,0.4-3.4c0-0.5,0.1-0.9,0.1-1.4
		c0-0.5,0-1-0.1-1.6c-0.1-1.1-0.2-2.4-0.2-3.8c0-0.4,0-0.7,0-1.1c0-0.2,0-0.3,0-0.5c0-0.4-0.1-0.8-0.1-1.4c-0.2-1-0.4-2.4-0.6-4
		c0-0.4,0-0.8,0-1.3c0-0.4,0-0.7,0-1.1c0-0.7,0.1-1.4,0.2-2c0.1-1.3,0.3-2.4,0.4-3.4l0.3-7l0.1-1.9c0-0.7,0.1-1.3,0.1-1.9
		c0.1-1.2,0.2-2.4,0.3-3.5l0-0.8c0-0.1,0-0.3,0-0.5c0-0.4-0.1-0.8-0.2-1.3c-0.2-1-0.6-2.3-0.8-4c0-0.4-0.1-0.9-0.1-1.3l0-0.9l0-1.8
		l0-3.6l0-0.9c0-0.5,0.1-1,0.2-1.5c0.2-0.9,0.5-1.6,0.7-2.3c0.5-1.3,1-2.3,1.1-2.9c0-0.2,0.1-0.3,0.1-0.4l0-0.1l0-0.2l0-0.5l0-1.8
		l0.1-3.6l0-0.9c0-0.3,0-0.5,0-0.8c0-0.5-0.1-1.1-0.1-1.6c-0.1-1.1-0.3-2.4-0.3-3.7c0-0.3,0-0.7,0-1c0-0.3,0-0.5,0-0.8
		c0-0.5-0.1-1-0.2-1.6c-0.2-1.1-0.4-2.3-0.5-3.7c0-0.3-0.1-0.7-0.1-1.1c0-0.4,0-0.6,0-0.9l0-1.8l0.1-3.6l0-1.9c0-0.6,0-1.3,0.1-1.9
		c0.1-1.2,0.1-2.4,0.1-3.5c0.1-2.2-0.2-4.5-0.4-7.1l0-1c0-0.2,0-0.5,0-0.8c0-0.5-0.1-1.1-0.2-1.6c-0.2-1.1-0.4-2.4-0.5-3.7
		c0-0.3,0-0.7-0.1-1l0-0.9l0-1.8l-0.1-3.6c0-0.6,0-1.2,0-1.9l0-1.9c0-1.2,0.1-2.4,0.1-3.5l0-0.9c0-0.4,0-0.8,0-1.1
		c0.1-0.7,0.2-1.4,0.3-2c0.2-1.3,0.5-2.4,0.5-3.3c0-0.2,0-0.4,0-0.7l-0.1-0.8l-0.2-1.7c-0.1-1.2-0.3-2.4-0.3-3.7l-0.1-1.8l-0.2-1.7
		c-0.1-1.2-0.3-2.4-0.4-3.7c0-0.3,0-0.6-0.1-1c0-0.4,0-0.7,0-1.1c0-0.7,0.1-1.4,0.2-2.1c0.2-1.3,0.3-2.2,0.2-3l-0.2-2.6l2.9-0.4
		c0.7-0.1,1.4-0.3,2.3-0.7c0.9-0.4,2.2-0.9,3.7-1.1l1.6-0.2l1.5-0.2c1-0.2,2.1-0.4,3.2-0.5l0.9-0.1l0.5-0.1l0.6,0
		c0.8,0,1.6,0.1,2.2,0.2c1.3,0.2,2.4,0.5,3.3,0.7c0.4,0.1,0.7,0.1,0.9,0.1c0.2,0,0.3,0,0.6-0.1c0.5-0.2,1.2-0.5,2.2-1
		c1-0.4,2.2-1.1,4.2-1.4c1.9-0.2,3.4,0.1,4.6,0.4c1.2,0.3,2.1,0.5,2.7,0.6c0.1,0,0.2,0,0.3,0c0,0,0,0,0.1,0l0.2,0
		c0.2,0,0.5-0.1,0.9-0.2c0.7-0.2,1.7-0.6,2.9-1c0.6-0.2,1.4-0.4,2.2-0.5c0.4-0.1,0.9-0.1,1.3-0.1c0.3,0,0.7,0,1,0
		c2.6,0,4.7,0.3,6.2,0.3c1.6,0,2.9,0.2,4,0.4c1.1,0.2,2,0.3,2.7,0.4c0.4,0,0.6,0,1,0c0.4,0,0.8,0,1.3-0.1c0.9-0.1,2.1-0.2,3.3-0.3
		c0.6,0,1.3-0.1,2,0l0.3,0c0.1,0,0.1,0,0.2,0c0.2,0,0.3,0,0.5,0c0.8,0,1.8-0.2,3-0.3c0.6-0.1,1.3-0.1,2-0.1c0.4,0,0.7,0,1.1,0l0.7,0
		c0.6,0,1.5-0.1,2.6-0.2c1.1-0.1,2.4-0.2,3.8-0.1l0.5,0l0.7,0.1c0.4,0.1,0.9,0.1,1.2,0.2c0.8,0.2,1.4,0.4,2,0.6
		c1.1,0.4,2,0.7,2.6,0.9l0.4,0.1l0.2,0.1c0,0,0.1,0,0.2,0.1c0.4,0.1,0.9,0.2,1.4,0.2c1,0.2,2,0.4,3.2,0.6c0.6,0.1,1.1,0.3,1.7,0.4
		c0.3,0.1,0.6,0.2,0.8,0.3l0.7,0.2c1.9,0.7,4.2,1.3,6.3,2.7L127.5,23.1z"/>
</g>
</svg>
