<svg xmlns="http://www.w3.org/2000/svg" xmlns:xlink="http://www.w3.org/1999/xlink" id="Layer_1" x="0" y="0" version="1.1" viewBox="0 0 150 500" xml:space="preserve" style="enable-background:new 0 0 150 500"><g><path d="M127.5,23.1c-2,0.6-4,1.4-6.2,1.8l-3.1,0.6c-1,0.2-2.1,0.4-3.2,0.6c-0.5,0.1-1.1,0.2-1.7,0.2c-0.6,0.1-1.4,0.1-2,0 c-1.3-0.1-2.5-0.3-3.4-0.5c-0.5-0.1-0.9-0.2-1.3-0.2c-0.2,0-0.4,0-0.5,0l-0.2,0l-0.3,0c-0.8,0.1-1.7,0.2-2.8,0.5 c-1,0.2-2.2,0.5-3.5,0.6l-0.8,0.1c-0.2,0-0.4,0-0.6,0.1c-0.4,0.1-0.9,0.1-1.3,0.2c-1,0.2-2,0.4-3.3,0.6c-0.3,0-0.6,0.1-1,0.1 c-0.2,0-0.3,0-0.5,0l-0.4,0c-0.4,0-0.8,0.1-1.3,0.1c-0.9,0.1-1.9,0.3-3.1,0.4c-1.1,0.2-2.5,0.3-3.9,0.2c-2.6-0.2-4.7-0.8-6.1-0.7 c-2.6,0-4.8-0.5-6.5-0.6l-0.6,0c-0.2,0-0.2,0-0.4,0c-0.3,0-0.6,0.1-1.1,0.2c-0.8,0.2-1.9,0.5-3.2,0.7c-0.7,0.1-1.4,0.2-2.2,0.2 c-0.2,0-0.4,0-0.6,0l-0.7-0.1c-0.4-0.1-0.8-0.1-1.2-0.2c-1.5-0.4-2.6-0.8-3.4-1.1c-0.8-0.3-1.5-0.4-1.8-0.4c-0.2,0-0.9,0.2-1.9,0.5 c-1,0.3-2.2,0.8-3.8,1c-0.4,0-0.8,0.1-1.3,0.1c-0.4,0-1,0-1.4-0.1c-0.9-0.1-1.6-0.3-2.2-0.5c-1.2-0.4-2.1-0.8-2.8-1 c-0.3-0.1-0.6-0.1-0.8-0.2c0,0-0.1,0-0.1,0l-0.3,0l-0.7,0c-1,0-2,0.1-3.1,0.1l-1.7,0.1l-1.5,0c-0.4,0-1.1,0.2-2.2,0.5 c-1.1,0.3-2.6,0.6-4.2,0.6l4-3.7c-0.1,1.7-0.6,3.2-0.9,4.3c-0.1,0.5-0.3,1-0.3,1.3c0,0.2-0.1,0.4-0.1,0.6l0,0.8 c-0.1,1.1-0.1,2.3-0.1,3.5l-0.1,1.9l-0.1,1.8c0,1.1,0,2.2-0.1,3.5l0,1.9l0,1c0,0.4-0.1,0.9-0.1,1.3c-0.3,1.7-0.7,3-1,4 c-0.1,0.5-0.3,0.9-0.3,1.3c0,0.2,0,0.3-0.1,0.5l-0.1,0.9c-0.1,1.3-0.2,2.5-0.3,3.7l-0.1,1.7l0,0.8l0,0.9l-0.1,3.6l-0.1,1.8l0,0.9 c0,0.2,0,0.4,0,0.6c0,0.9,0.2,2,0.3,3.3c0.1,0.6,0.1,1.3,0.2,2.1c0,0.4,0,0.8,0,1.2l0,0.8c0,2.1,0.2,4.7,0.1,7.4 c-0.1,1.3-0.2,2.6-0.3,3.7l-0.1,1.7l-0.1,1.7l-0.1,3.6L27,93.6l0,0.9c0,0.2,0,0.4,0,0.6c0.1,0.8,0.2,1.9,0.4,3.2 c0.1,0.7,0.2,1.4,0.2,2.2l0,0.6l0,0.6l0,0.7c0,0.9,0.2,2.1,0.3,3.4c0.1,0.6,0.1,1.3,0.1,2.1c0,0.4,0,0.8,0,1.1l0,0.9l0,3.6l0,1.8 l0,0.4l0,0.2l0,0.4c0,0.6-0.1,1.2-0.2,1.7c-0.5,2-1.2,3.3-1.5,4.1c-0.2,0.4-0.2,0.7-0.3,0.8c0,0.1,0,0.1,0,0l0,0.8l0.1,3.6l0,1.8 l0,0.9l0,0.1l0,0.2c0.1,0.5,0.3,1.5,0.7,2.8c0.2,0.7,0.4,1.5,0.5,2.4c0.1,0.5,0.1,1,0.1,1.5l0,0.6l0,0.5c0,1.4-0.1,2.6-0.2,3.8 c0,0.6-0.1,1.1-0.1,1.6l0,1.6l-0.1,7.4c-0.1,1.5-0.2,2.7-0.3,3.8c0,0.6-0.1,1.1-0.1,1.5l0,0.7c0,0.1,0,0.3,0,0.4 c0.1,0.7,0.3,1.7,0.6,3c0.1,0.7,0.3,1.4,0.3,2.3c0,0.4,0.1,0.9,0.1,1.4l0,0.7c0,0.9,0.2,2,0.3,3.3c0.1,0.6,0.1,1.3,0.2,2.1 c0,0.7,0,1.6,0,2.3c0,1.5-0.2,2.7-0.3,3.9c0,0.6-0.1,1.1-0.1,1.5l0,0.7c0,0.5,0,1-0.1,1.5c-0.2,1.9-0.6,3.2-0.8,4.2 c-0.2,1-0.2,1.5-0.2,1.5c0,0.3,0.3,1.2,0.8,2.5c0.2,0.7,0.5,1.5,0.6,2.5c0.1,0.5,0.2,1,0.2,1.6c0,0.3,0,0.5,0,0.8l0,0.7 c-0.1,1.7-0.3,3-0.5,4.1c-0.2,1.1-0.2,1.8-0.2,2.3c0,0.6,0.2,1.6,0.5,2.9c0.1,0.7,0.2,1.4,0.3,2.2c0.1,0.8,0.1,1.8,0.1,2.7 c-0.1,1.8-0.4,3.2-0.6,4.2c-0.1,0.5-0.2,1-0.2,1.3c0,0.2,0,0.3,0,0.5l0,0.9c0,1.4-0.1,2.7-0.2,3.8l-0.1,1.6l0,1.9 c-0.1,1.6-0.3,2.9-0.4,4c-0.1,0.5-0.1,1-0.1,1.4c0,0.2,0,0.4,0,0.6l0,0.4l0,0.4l0.2,6.4c0,0.2,0.3,1,0.8,2.3 c0.2,0.7,0.5,1.5,0.7,2.5c0.1,0.5,0.2,1.1,0.2,1.7c0,0.6,0,1.2,0,1.7c-0.2,2.1-0.7,3.6-1,4.6c-0.1,0.5-0.2,0.9-0.3,1.2 c0,0.1,0,0.2,0,0.3c0,0,0,0,0,0.1l0,0.2c0,0.7,0.2,1.7,0.4,2.9c0.1,0.6,0.2,1.3,0.3,2.1c0,0.4,0.1,0.8,0.1,1.2l0,1.1l0.1,3.6l0,1.8 l0,0.9l0,0.5l0,0.7c-0.1,1.8-0.4,3.3-0.6,4.3c-0.1,0.5-0.2,1-0.2,1.4c0,0.2,0,0.3,0,0.5c0,0.1,0,0.3,0,0.4c0,0.7,0.2,1.7,0.4,3 c0.1,0.6,0.2,1.3,0.3,2.1c0,0.4,0.1,0.8,0.1,1.2l0,0.9c0,0.8,0.2,1.9,0.3,3.1c0.2,1.3,0.3,2.7,0.3,4.5c-0.1,1.7-0.4,3.1-0.5,4.2 c-0.1,0.6-0.2,1-0.2,1.4c0,0.2,0,0.4,0,0.6l0,0.2l0,0.3c0,0.9,0.1,2,0.3,3.2c0.1,0.6,0.1,1.3,0.2,2l0.1,1.1l0,0.6 c0,0.2,0,0.5,0,0.7c-0.1,1.9-0.5,3.3-0.8,4.4c-0.1,0.5-0.2,1-0.3,1.3c0,0.2,0,0.3-0.1,0.5l0,0.2l0,0.4l0,7.3c0,1.3-0.1,2.6-0.1,3.8 l-0.1,1.7l0,0.8l0,0.2c0,0.1,0,0.2,0,0.1c0,0,0,0,0,0c0,0.1,0.3,1,0.8,2.2c0.2,0.6,0.5,1.3,0.8,2.2c0.1,0.4,0.2,0.9,0.3,1.5 c0.1,0.5,0.1,1.3,0.1,1.6c0,1.6-0.2,3-0.4,4.1c-0.1,0.6-0.2,1.1-0.2,1.6c0,0.2,0,0.5,0,0.7c0,0.2,0,0.3,0,0.7l0.1,7.1 c0,0.9,0.1,2,0.3,3.2c0.1,0.6,0.1,1.3,0.2,2c0,0.3,0.1,0.7,0.1,1.1c0,0.4,0,0.7,0,1.2c-0.1,1.7-0.4,3.1-0.6,4.3 c-0.1,0.6-0.2,1.1-0.3,1.5c0,0.2-0.1,0.4-0.1,0.6c0,0.2,0,0.3,0,0.7c0,1.4-0.1,2.7-0.2,3.9l-0.1,1.7l0,0.8l0,0.6 c0,0.5,0.2,1.4,0.6,2.6c0.2,0.6,0.4,1.3,0.5,2.1c0.1,0.4,0.1,0.8,0.2,1.3c0,0.2,0,0.5,0,0.7l0,0.6c0,2.2,0.2,4.6,0.2,7.2l0,7.5 c-0.2,2.2-0.9,3.5-1.3,4.6c-0.5,1.1-0.7,1.8-0.6,2c0,1.7,0.6,4.2,0.7,7.2c0,1.7,0.7,4.1,0.8,7.2c0,2.7-0.2,5.1-0.2,7.2l0,7.2 c0,1.1,0.1,2.2,0.2,3.4l0.1,1.9l0,1l0,0.5l0,0.6c0,1.8-0.4,3.2-0.7,4.3c-0.3,1.1-0.5,2.1-0.4,2.7c0,0.6,0.2,1.5,0.6,2.7 c0.3,1.2,0.8,2.6,0.8,4.4c0,0.8,0.2,1.8,0.4,3c0.2,1.2,0.5,2.5,0.6,4.2c0,2.1-0.6,3.6-1,4.8c-0.4,1.1-0.6,2-0.6,2.4l0,0.1l0,0.1 c0,0.1,0,0.2,0,0.3c0,0.2,0.1,0.4,0.1,0.6c0.1,0.5,0.2,1,0.3,1.5c0.3,1.1,0.6,2.5,0.8,4.2c0.1,1.6,0,2.8,0,4c0,1.2-0.1,2.3,0,3.3 c0.1,1.9,0.6,4.2,0.8,7.1l-4.5-4.2c0.6-0.1,1.3-0.2,2.2-0.5c0.9-0.3,2.1-0.7,3.6-0.9c0.4-0.1,0.8-0.1,1.1-0.1c0.3,0,0.7,0,1-0.1 c0.6,0,1.3,0,1.8,0c1.2,0,2.2,0.1,3,0.1c0.4,0,0.8,0,1.1-0.1c0.9-0.1,1.8,0,2.5,0.1c1.5,0.2,2.7,0.5,3.5,0.7 c0.4,0.1,0.7,0.1,0.9,0.1c0.2,0,0.1,0,0.3,0c0.3-0.1,0.9-0.3,1.9-0.6c0.9-0.4,2.1-0.9,4-1.2c1-0.2,1.9-0.2,2.7-0.1 c0.8,0,1.5,0.1,2.1,0.2c1.3,0.2,2.2,0.5,2.8,0.5c0.2,0,0.3,0,0.3,0c0,0,0.1,0,0.1,0l0,0l0.1,0l1.6-0.1l3.1-0.1l1.6-0.1l0.8,0l0.3,0 c0.4,0,1.1-0.2,2.2-0.6c1-0.3,2.4-0.8,4.4-0.9c1.7-0.1,3,0.1,4.2,0.3c1.2,0.2,2.1,0.4,2.8,0.4c0.4,0,0.5,0,1,0.1l1.4,0 c1,0,2-0.1,3.2-0.1c0.6,0,1.2,0,1.8,0c0.6,0,1.3,0.1,1.9,0.1c1.2,0.1,2.3,0.4,3.3,0.5l1.4,0.2l0.6,0.1l0.8,0.1 c1.4,0.2,2.5,0.5,3.5,0.7c1,0.3,1.9,0.5,2.7,0.7c0.8,0.2,1.7,0.3,2.7,0.4c1,0.1,2.1,0.2,3.3,0.4l0.9,0.1c0.3,0,0.6,0.1,0.8,0.2 c0.4,0.1,0.9,0.2,1.4,0.3l3.1,0.5c1,0.1,2.4,0.5,3,0.6c1.6,0.3,4.1,0,6.4,0.7l-0.2,1.7c-1.9,0.3-3.5,1.3-6,1.9 c-0.3,0.1-0.6,0.1-1,0.1l-0.3,0l-0.2,0l-0.4,0l-1.5,0.2c-1,0.1-2,0.3-3.1,0.4c-0.6,0.1-1.1,0.1-1.7,0.1c-0.3,0-0.5,0-0.7,0 l-0.7,0.1l-3,0.4c-1.1,0.1-2.2,0.2-3.5,0.2c-1.3,0-2.4-0.1-3.5-0.2c-1-0.1-1.9-0.2-2.7-0.1l-0.3,0l-0.5,0l-0.9,0l-1.7-0.1 c-1.1-0.1-2.1-0.1-2.9-0.2c-0.4,0-0.8,0-1.2,0c-0.4,0-0.9,0.1-1.3,0.1l-3,0.3c-0.6,0-1.1,0.1-1.7,0.1c-0.5,0-1.4,0-2.1,0 c-1.4-0.1-2.5-0.3-3.4-0.4c-0.9-0.1-1.7-0.2-2-0.1c-0.1,0-0.8,0.1-1.7,0.5c-1,0.3-2.2,0.7-3.9,1c-0.4,0.1-0.8,0.1-1.3,0.1l-0.8,0 l-1.6,0.1l-3.1,0.1l-1.6,0l-0.7,0c-0.2,0-0.5,0-0.7,0c-0.4,0-0.8-0.1-1.2-0.1c-1.5-0.2-2.5-0.5-3.3-0.7c-0.4-0.1-0.7-0.1-0.9-0.2 c-0.2,0-0.4,0-0.4,0c-0.2,0-0.9,0.2-1.9,0.5c-1,0.3-2.4,0.8-4.1,1c-0.8,0.1-2,0.1-2.8,0c-0.8-0.1-1.6-0.3-2.1-0.5 c-1.2-0.3-2-0.6-2.6-0.7c-0.3-0.1-0.4-0.1-0.6-0.1c-0.7,0-1.4,0-2-0.1c-1.2-0.1-2.3-0.3-3.2-0.3c-0.5-0.1-0.9-0.1-1.3-0.1l-0.6,0 c-0.2,0-0.3,0-0.4,0c-0.6,0-1.4,0.2-2.5,0.4c-1.1,0.2-2.4,0.5-3.9,0.5l-4.7,0.1l0.2-4.3c0.1-1.9-0.3-4.3-0.2-7.2 c0-1.4,0.2-2.7,0.3-3.9c0.1-1.2,0.2-2.3,0.2-3.2c0-0.7-0.2-1.7-0.4-2.9c-0.2-1.2-0.5-2.6-0.5-4.5c0.1-2.1,0.8-3.5,1.2-4.6 c0.4-1.1,0.7-1.9,0.7-2.2c0-0.8-0.1-1.8-0.4-3c-0.2-1.2-0.5-2.5-0.5-4.2c0-0.6-0.2-1.5-0.6-2.6c-0.3-1.1-0.8-2.5-0.9-4.4 c-0.1-1.8,0.3-3.3,0.6-4.5c0.3-1.2,0.5-2.1,0.5-2.8c0-0.1,0-0.2,0-0.3l0-0.4l0-0.8l-0.1-1.7c-0.1-1.2-0.2-2.4-0.2-3.8l0-7.2 c-0.1-2.7,0.2-5.1,0.1-7.2c0-0.9-0.2-1.8-0.4-3c-0.2-1.2-0.5-2.5-0.5-4.1c0-1.8-0.7-4.1-0.8-7.2c0-1.1,0.2-2.1,0.4-2.9 c0.2-0.8,0.5-1.5,0.7-2.1c0.5-1.1,0.7-2,0.7-2.3L22,381c-0.1-2.2-0.3-4.6-0.4-7.2l0-0.2l0-0.1c0-0.1,0-0.1,0-0.2 c0-0.1-0.1-0.3-0.1-0.5c-0.1-0.4-0.2-0.9-0.4-1.4c-0.3-1.1-0.8-2.5-1-4.4c0-0.5,0-0.9,0-1.2l0-1l0.1-1.9c0.1-1.2,0.1-2.3,0.1-3.3 c0-0.2,0-0.7,0-1.1c0-0.4,0-0.8,0.1-1.2c0.1-0.8,0.2-1.4,0.3-2.1c0.2-1.2,0.4-2.2,0.4-2.9c0-0.1,0-0.4,0-0.6l-0.1-0.7 c-0.1-0.5-0.1-1-0.2-1.6c-0.2-1.2-0.4-2.5-0.5-4l-0.3-7.3c0-0.2,0-0.7,0-1.1c0-0.4,0-0.8,0-1.1c0-0.7,0.1-1.4,0.2-2 c0.1-1.2,0.2-2.2,0.2-3c0-0.3,0-0.1,0-0.2c0,0,0-0.1-0.1-0.3c-0.1-0.3-0.2-0.7-0.5-1.2c-0.4-1-1.2-2.4-1.5-4.6 c0-0.3-0.1-0.6-0.1-0.9l0-0.6l0-1l0-1.9c0-1.2,0-2.4,0-3.4l-0.2-7.1l0-0.5l0-0.7c0-0.5,0.1-0.9,0.1-1.3c0.1-0.8,0.2-1.6,0.4-2.2 c0.3-1.3,0.5-2.2,0.4-2.7l0-0.5l-0.1-0.7c0-0.5-0.1-1-0.2-1.6c-0.1-1.1-0.3-2.5-0.4-3.9l0-0.6l0-0.7c0-0.4,0-0.8,0.1-1.2 c0.1-0.8,0.2-1.5,0.2-2.1c0.2-1.3,0.3-2.3,0.3-2.9c0-0.6-0.1-1.6-0.3-2.7c-0.2-1.1-0.4-2.5-0.5-4l0-0.9c0-0.2,0-0.4-0.1-0.6 c-0.1-0.4-0.1-0.9-0.2-1.5c-0.2-1.1-0.5-2.5-0.6-4.2c0-0.4,0-0.9,0-1.4c0-0.5,0-0.9,0.1-1.3c0.1-0.8,0.2-1.6,0.3-2.2 c0.2-1.3,0.4-2.2,0.4-2.8l-0.3-6.9l0-0.7c0-0.2,0-0.4-0.1-0.6c-0.1-0.4-0.1-0.9-0.2-1.5c-0.2-1.1-0.5-2.5-0.6-4.2l0-0.7l0-0.8 c0-0.5,0.1-1,0.2-1.5c0.1-0.9,0.3-1.7,0.5-2.3c0.4-1.3,0.6-2.2,0.6-2.4c0-0.1,0-0.1,0-0.1c0,0,0,0,0-0.1c0-0.2-0.1-0.5-0.3-1 c-0.3-0.9-1-2.3-1.4-4.5c0-0.3-0.1-0.6-0.1-0.9l0-0.8l0-0.9l-0.1-1.8l-0.1-3.6l0-0.5l0-0.5c0-0.4,0-0.8,0-1.2 c0-0.8,0.1-1.5,0.2-2.1c0.1-1.3,0.3-2.3,0.3-3.1l0-1.7l0.1-2c0.1-1.2,0.1-2.4,0.1-3.4l0-0.9c0-0.5,0-0.9,0.1-1.3 c0.1-0.8,0.2-1.6,0.3-2.3c0.2-1.3,0.4-2.3,0.4-2.9c0-0.3,0-0.5,0-0.9c0-0.4-0.1-0.8-0.2-1.3c-0.2-1.1-0.5-2.4-0.6-4.2 c-0.1-1.9,0.1-3.6,0.3-4.9c0.2-1.3,0.4-2.3,0.4-3l0-0.2c0-0.1,0-0.2,0-0.1c0,0,0,0,0-0.1c0-0.2-0.1-0.5-0.2-1 c-0.3-0.9-0.8-2.3-1.2-4.4c-0.3-2.4,0.1-4.3,0.4-5.7c0.3-1.4,0.6-2.4,0.6-2.9c0-0.1,0-0.2,0-0.3l0-1.1c0-0.7,0.1-1.4,0.1-2.1 c0.1-1.3,0.2-2.4,0.3-3.3c0-0.5,0-0.9,0-1.3c0-0.5,0-1-0.1-1.5c-0.1-1.1-0.2-2.4-0.3-3.9c0-0.4,0-0.8,0-1.1c0-0.1,0-0.3,0-0.4 c0-0.3-0.1-0.8-0.2-1.3c-0.2-1-0.5-2.4-0.6-4.1c0-0.4,0-0.9,0-1.4c0-0.4,0-0.8,0-1.1c0-0.7,0.1-1.4,0.2-2.1 c0.1-1.3,0.3-2.4,0.3-3.3l0.2-7l0.1-2c0-0.7,0.1-1.3,0.1-2c0.1-1.3,0.2-2.4,0.3-3.4l0-0.7c0-0.1,0-0.2,0-0.3c0-0.3-0.1-0.7-0.2-1.1 c-0.2-1-0.6-2.3-0.8-4.2l0-0.7l0-0.8l0-0.9l0-1.8l0-3.6l0-0.5l0-0.2c0-0.1,0-0.1,0-0.3c0-0.6,0.1-1.2,0.2-1.8 c0.2-1.1,0.6-1.9,0.8-2.6c0.6-1.3,1-2.3,1.1-2.6c0-0.1,0-0.1,0-0.1c0,0,0,0.1,0,0l0-0.2l0-0.5l0.1-1.8l0.1-3.6l0-0.9l0-0.7 c0-0.5,0-1-0.1-1.5c-0.1-1.1-0.2-2.4-0.2-3.8c0-0.4,0-0.7,0-1.1l0-0.3l0-0.3c0-0.4,0-0.9-0.1-1.4c-0.1-1.1-0.3-2.3-0.4-3.9 c0-0.4,0-0.8,0-1.2c0-0.4,0-0.6,0.1-0.9l0.1-1.8l0.2-3.6l0.1-1.9c0-0.7,0.1-1.3,0.2-1.9c0.1-1.2,0.3-2.4,0.3-3.5c0.2-2,0-4.3,0.1-7 l0-1c0-0.2,0-0.4,0-0.6c0-0.4,0-0.9-0.1-1.5c-0.1-1.1-0.2-2.4-0.2-3.9c0-0.4,0-0.8,0-1.2l0.1-0.9l0.1-1.8l0.2-3.6l0-0.9l0.1-1 l0.2-1.9c0.1-1.2,0.3-2.4,0.4-3.5l0.1-0.9c0-0.5,0.1-0.9,0.2-1.3c0.1-0.8,0.3-1.5,0.5-2.2c0.4-1.3,0.7-2.3,0.8-3 c0-0.2,0-0.3,0.1-0.5l0-0.8l0.1-1.7c0-1.2,0-2.4,0.1-3.7l0.1-1.8l0.1-1.7c0-1.2,0.1-2.4,0.2-3.7l0.1-1c0-0.4,0.1-0.8,0.2-1.2 c0.1-0.8,0.3-1.5,0.5-2.2c0.4-1.3,0.6-2,0.6-2.8l0.3-3.7l3.7,0c0.6,0,1.1-0.1,2.1-0.3c0.9-0.2,2.3-0.7,4-0.7l1.6,0l1.5,0 c1,0,2.1-0.1,3.3-0.1l0.9,0l0.5,0l0.7,0c0.8,0.1,1.6,0.2,2.3,0.4c1.3,0.4,2.4,0.8,3.2,1.1c0.4,0.1,0.7,0.2,0.9,0.2 c0.1,0,0.1,0,0.2,0c0.1,0,0.2,0,0.3,0c0.5-0.1,1.3-0.3,2.3-0.6c1-0.3,2.3-0.8,4.3-0.8c1.8,0,3.3,0.5,4.4,0.9c1.1,0.4,2,0.8,2.6,0.9 c0.1,0,0.2,0.1,0.3,0.1c0,0,0.1,0,0.1,0c0,0,0.1,0,0.2,0c0.3,0,0.6,0,1-0.1c0.8-0.1,1.8-0.4,3-0.6c0.6-0.1,1.3-0.2,2.1-0.3 c0.4,0,0.9,0,1.2,0l0.9,0.1c2.5,0.2,4.5,0.7,6.1,0.7c2.8,0.2,4.9,0.8,6.5,1c1.4,0.2,3.3-0.2,5.7-0.4c0.6-0.1,1.2-0.1,1.9-0.1l0.6,0 c0.2,0,0.4,0,0.6,0c0.8-0.1,1.9-0.3,3-0.4c0.6-0.1,1.2-0.2,1.8-0.2c0.3,0,0.6,0,1-0.1l0.7,0c0.8,0,1.7-0.2,2.8-0.3 c1.1-0.2,2.2-0.3,3.5-0.4l0.5,0l0.6,0c0.4,0,0.7,0,1.1,0.1c0.7,0.1,1.3,0.2,1.8,0.3c1.1,0.3,2,0.5,2.8,0.7c0.4,0.1,0.7,0.1,1.1,0.1 c0.5,0,1,0,1.5,0l3.2,0c0.5,0,1.1,0,1.7,0.1c0.3,0,0.6,0,0.8,0.1l0.7,0.1c2,0.1,4.2,0.1,6.4,0.6L127.5,23.1z"/></g></svg>