<svg id="Layer_1" data-name="Layer 1" xmlns="http://www.w3.org/2000/svg" viewBox="0 0 1000 1000"><defs><style>.cls-1{fill:#ffeb57;}.cls-1,.cls-2,.cls-3,.cls-4{stroke:#1e1e1e;stroke-linecap:round;stroke-linejoin:round;stroke-width:30px;}.cls-3{fill:none;}.cls-4{fill:#fff;}</style></defs><title>Artboard 1</title><path class="cls-1" d="M320.55,715.67h358.7a257.68,257.68,0,0,1-358.7,0Z"/><path class="cls-2" d="M259.34,623.17H740.46a257.76,257.76,0,0,1-61.21,92.5H320.55A257.76,257.76,0,0,1,259.34,623.17Z"/><path class="cls-1" d="M242.23,530.67H757.57a256.85,256.85,0,0,1-17.11,92.5H259.34A256.85,256.85,0,0,1,242.23,530.67Z"/><path class="cls-2" d="M242.23,530.67a256.77,256.77,0,0,1,17.11-92.5H740.46a256.77,256.77,0,0,1,17.11,92.5Z"/><path class="cls-1" d="M259.34,438.17a257.59,257.59,0,0,1,61.21-92.5h358.7a257.59,257.59,0,0,1,61.21,92.5Z"/><path class="cls-2" d="M320.55,345.67a257.65,257.65,0,0,1,358.7,0Z"/><path class="cls-3" d="M232.93,211.67c72.06.82,124.74,30.65,145,109"/><path class="cls-3" d="M751.75,211.67c-72.07.82-124.74,30.65-145,109"/><polygon class="cls-4" points="800.93 416.68 613.87 416.68 548.06 530.66 613.87 644.65 800.93 644.65 866.74 530.66 800.93 416.68"/><polygon class="cls-4" points="386.06 416.68 199 416.68 133.19 530.66 199 644.65 386.06 644.65 451.87 530.66 386.06 416.68"/></svg>