<svg xmlns="http://www.w3.org/2000/svg" viewBox="0 0 2266 2240.86"><defs><style>.cls-1{fill:none}.cls-1,.cls-10,.cls-2,.cls-3,.cls-4,.cls-5,.cls-6,.cls-7,.cls-8,.cls-9{stroke:#000;stroke-linecap:round;stroke-linejoin:round;stroke-width:25px}.cls-2{fill:#fff41f}.cls-3{fill:#fff429}.cls-4{fill:#e5de5e}.cls-5{fill:#b26632}.cls-6,.cls-9{fill:#fff}.cls-7{fill:#ffc500}.cls-8{fill:red}.cls-10,.cls-9{opacity:.3}.cls-10{fill:#17ffff}</style></defs><title>IcedTea</title><g id="Layer_10" data-name="Layer 10"><path d="M1235.26,1291.76c9.09-25.94,15.88-53.43,21.32-81.82" class="cls-1" transform="translate(-366.5 -381.64)"/><path d="M379,1538c19.13-142.07,59.85-255.34,125-336,2.84,93.52,46.71,185.58,136,276,59.75-100.87,84.21-223.4,89-358,56.4,103.93,93.77,200.08,89,279,14-49.69,33.27-89.89,57.18-121.64" class="cls-1" transform="translate(-366.5 -381.64)"/><path d="M2620,1752c-29.73,21.2-51.15,57.23-68,102-35.24-112-82.16-207-140-286-14.51,101.15-38.42,196-111,258-55,1.52-85.8-27.66-103-74-35.43,69.27-53,144.53-58,224-53.13-98.41-87.3-202.73-96-315a253.2,253.2,0,0,0-21.41,24.81h0c-23.31,30.79-42.21,69.59-56.19,117.33q-.7,2.4-1.4,4.85c.1-1.67.18-3.35.24-5,1.8-47.72-11.35-101.55-34.49-159.47" class="cls-1" transform="translate(-366.5 -381.64)"/><path d="M1866.39,1643.5q-5.23,37.7-13.45,73.57a656.19,656.19,0,0,1-29.3,95,532.57,532.57,0,0,1-36.64,75q-12.21-12.36-23.29-24.76c-47-52.57-78.8-105.67-96.39-159.29a330.85,330.85,0,0,1-13.66-59.45" class="cls-1" transform="translate(-366.5 -381.64)"/><path d="M1627.23,1643.5c-33.92,51.15-59.87,112.93-78.39,184.62q-4.69,18.12-8.74,37.09-.87,4.05-1.71,8.15-7.22,35.21-12.33,73.23h0l-.06.4" class="cls-1" transform="translate(-366.5 -381.64)"/></g><g id="Layer_11" data-name="Layer 11"><path d="M1516.78,511.71C1606.6,385.85,1781.42,356.4,1907.54,446s155.87,264.35,66.6,390.61l-25.26-18c79.73-112.49,53.28-268.34-59.16-348.2s-268.31-53.53-348.27,58.79Z" class="cls-2" transform="translate(-366.5 -381.64)"/><path d="M1746,674.51l198.88-33.68c.3,1.76.57,3.5.82,5.25.11.81.23,1.63.33,2.46.19,1.44.36,2.86.51,4.28.08.73.16,1.47.23,2.2,0,.12,0,.22,0,.34.06.76.13,1.51.19,2.27s.12,1.4.17,2.09c.08.92.14,1.83.19,2.74s.09,1.61.13,2.43c.07,1.61.14,3.22.18,4.84a.11.11,0,0,1,0,.08c.07,3.21.07,6.41,0,9.62a.5.5,0,0,1,0,.17c-.1,3.18-.25,6.36-.47,9.54a.81.81,0,0,1,0,.16c-.24,3.08-.53,6.15-.89,9.22a5.83,5.83,0,0,1-.09.7c-.18,1.49-.37,3-.59,4.46-.56,3.91-1.25,7.79-2,11.63a202,202,0,0,1-5.13,19.74q-.68,2.16-1.41,4.29c-.56,1.67-1.16,3.33-1.78,5-.42,1.19-.86,2.36-1.32,3.53-.37.9-.74,1.81-1.1,2.72-.22.55-.44,1.09-.67,1.64s-.59,1.4-.89,2.08c-.49,1.13-1,2.24-1.47,3.34-.29.63-.58,1.26-.88,1.88-.15.34-.31.68-.47,1l-.37.78c-.51,1.09-1,2.17-1.59,3.26,0,0,0,0,0,.06q-1,2-2.08,4l-1.15,2.14c-.77,1.41-1.57,2.83-2.37,4.22-.4.7-.81,1.41-1.23,2.1s-.87,1.47-1.31,2.19c-.7,1.14-1.39,2.27-2.12,3.4,0,0,0,.08-.07.13-.44.68-.88,1.36-1.33,2-.25.4-.51.78-.78,1.18-.7,1.05-1.4,2.08-2.11,3.13q-.74,1.06-1.5,2.13Z" class="cls-3" transform="translate(-366.5 -381.64)"/><path d="M1746,674.51l116.81-164.44,2.12,1.52c1,.75,2,1.49,3,2.26l1.12.85,1.93,1.5a.48.48,0,0,0,.11.09c1.05.83,2.08,1.67,3.12,2.51.65.54,1.32,1.09,2,1.64L1878,522c1.22,1.05,2.43,2.13,3.63,3.21l1.78,1.64q1.68,1.56,3.3,3.13a.08.08,0,0,0,0,0c.86.84,1.73,1.69,2.57,2.55.21.21.41.41.6.62s.53.52.78.8c.49.48,1,1,1.45,1.49.83.87,1.65,1.76,2.48,2.66l1.53,1.67c.4.44.78.88,1.18,1.33l1.92,2.21c.83,1,1.63,1.91,2.42,2.89,1.13,1.35,2.24,2.73,3.32,4.12.92,1.18,1.84,2.37,2.74,3.59a197.51,197.51,0,0,1,11.34,16.94q3,5.05,5.76,10.31c.7,1.33,1.37,2.67,2,4,.12.2.22.41.32.62q2,4.17,3.87,8.41a.76.76,0,0,1,.06.16c1.26,2.93,2.45,5.87,3.58,8.85a.44.44,0,0,1,.06.16q1.68,4.51,3.16,9.08a.08.08,0,0,1,0,.08c.5,1.54,1,3.08,1.43,4.63.23.79.45,1.56.68,2.34s.49,1.76.73,2.65c.17.67.35,1.35.52,2s.38,1.47.56,2.21a2.66,2.66,0,0,1,.08.33l.51,2.15q.48,2.09.93,4.2c.17.82.34,1.64.49,2.44.35,1.73.66,3.47,1,5.23Z" class="cls-3" transform="translate(-366.5 -381.64)"/><path d="M1760.77,473.31c3.09.22,6.16.51,9.22.89C1766.92,473.84,1763.85,473.55,1760.77,473.31Z" class="cls-1" transform="translate(-366.5 -381.64)"/><path d="M1751.07,472.84c3.19.07,6.38.23,9.53.46C1757.42,473.08,1754.25,472.93,1751.07,472.84Z" class="cls-1" transform="translate(-366.5 -381.64)"/><path d="M1741.28,472.84c3.22-.09,6.42-.09,9.62,0C1747.68,472.77,1744.48,472.77,1741.28,472.84Z" class="cls-1" transform="translate(-366.5 -381.64)"/><path d="M1581.53,557.7c.51-.7,1-1.41,1.53-2.12.75-1,1.49-2,2.25-3l.86-1.12c.49-.65,1-1.29,1.49-1.92l.1-.12c.82-1,1.66-2.08,2.51-3.12l1.64-2,1.57-1.85c1-1.22,2.13-2.43,3.21-3.63.55-.58,1.1-1.18,1.64-1.78,1.05-1.12,2.09-2.22,3.14-3.3l0,0c.85-.87,1.7-1.74,2.56-2.58l.61-.6.8-.78c.49-.49,1-1,1.49-1.44.87-.84,1.76-1.66,2.66-2.49l1.68-1.53,1.33-1.18,2.2-1.92c1-.83,1.92-1.63,2.89-2.42,1.36-1.12,2.74-2.23,4.12-3.32,1.19-.92,2.38-1.84,3.59-2.74a199.25,199.25,0,0,1,17-11.34q5-3,10.31-5.76c1.33-.7,2.67-1.37,4-2a6.11,6.11,0,0,1,.63-.31q4.17-2,8.41-3.88l.15-.06c2.93-1.26,5.88-2.44,8.85-3.58a.3.3,0,0,1,.16-.05q4.51-1.69,9.09-3.17s0,0,.07,0c1.55-.5,3.09-1,4.64-1.43l2.33-.68c.88-.25,1.76-.49,2.65-.72l2-.53,2.21-.56.33-.08,2.16-.51c1.39-.32,2.78-.63,4.2-.93.82-.17,1.63-.34,2.44-.49,1.73-.35,3.47-.66,5.22-1L1746,674.51Z" class="cls-3" transform="translate(-366.5 -381.64)"/><path d="M1674.92,485.71q4.49-1.71,9.09-3.17Q1679.44,484,1674.92,485.71Z" class="cls-1" transform="translate(-366.5 -381.64)"/><path d="M1665.91,489.34q4.36-1.89,8.85-3.58C1671.79,486.9,1668.84,488.08,1665.91,489.34Z" class="cls-1" transform="translate(-366.5 -381.64)"/><path d="M1657.35,493.28q4.14-2.05,8.41-3.88Q1661.52,491.26,1657.35,493.28Z" class="cls-1" transform="translate(-366.5 -381.64)"/><path d="M1712.29,475.63c1.76-.3,3.5-.57,5.25-.81.82-.12,1.64-.24,2.47-.34,1.43-.19,2.85-.36,4.27-.51l2.21-.23.33,0,2.27-.2,2.09-.17c.92-.08,1.83-.14,2.75-.19l2.42-.13c1.62-.07,3.23-.14,4.85-.18h.08c3.2-.07,6.4-.07,9.62,0a.33.33,0,0,1,.17,0c3.18.09,6.35.24,9.53.46h.17c3.08.24,6.15.53,9.22.89l.69.09c1.5.18,3,.37,4.47.59q5.86.86,11.63,2a202,202,0,0,1,19.74,5.13c1.44.45,2.86.93,4.28,1.41,1.67.57,3.34,1.16,5,1.78,1.18.42,2.35.86,3.52,1.33l2.72,1.09,1.64.67,2.09.9c1.12.48,2.23,1,3.33,1.47.64.28,1.26.57,1.88.87.35.15.68.31,1,.47l.77.37c1.09.51,2.18,1,3.26,1.59l.06,0c1.35.68,2.69,1.37,4,2.09l2.14,1.14q2.13,1.17,4.23,2.37c.7.41,1.4.81,2.09,1.23s1.47.87,2.2,1.31c1.14.7,2.27,1.39,3.39,2.12a.46.46,0,0,0,.14.07l2,1.33,1.18.78c1,.7,2.08,1.4,3.12,2.11.72.49,1.43,1,2.14,1.5L1746,674.51Z" class="cls-3" transform="translate(-366.5 -381.64)"/><path d="M1541.45,529.23c80-112.32,235.83-138.66,348.27-58.79s138.89,235.71,59.16,348.2l-38.46-27.32q.76-1.07,1.5-2.13c.71-1.05,1.41-2.08,2.11-3.13.27-.4.53-.78.78-1.18.45-.68.89-1.36,1.33-2,0-.05,0-.09.07-.13.73-1.13,1.42-2.26,2.12-3.4.44-.72.89-1.46,1.31-2.19s.83-1.4,1.23-2.1c.8-1.39,1.6-2.81,2.37-4.22l1.15-2.14q1.06-2,2.08-4s0,0,0-.06c.54-1.09,1.08-2.17,1.59-3.26l.37-.78c.16-.33.32-.67.47-1,.3-.62.59-1.25.88-1.88.5-1.1,1-2.21,1.47-3.34.3-.68.59-1.38.89-2.08s.45-1.09.67-1.64c.36-.91.73-1.82,1.1-2.72.46-1.17.9-2.34,1.32-3.53.62-1.65,1.22-3.31,1.78-5q.73-2.13,1.41-4.29a202,202,0,0,0,5.13-19.74c.79-3.84,1.48-7.72,2-11.63.22-1.48.41-3,.59-4.46a5.83,5.83,0,0,0,.09-.7q.57-4.57.89-9.22a.81.81,0,0,0,0-.16q.35-4.74.47-9.54a.5.5,0,0,0,0-.17c.1-3.2.1-6.4,0-9.62a.11.11,0,0,0,0-.08c0-1.62-.11-3.23-.18-4.84,0-.82-.09-1.62-.13-2.43s-.11-1.82-.19-2.74c-.05-.69-.11-1.4-.17-2.09s-.13-1.51-.19-2.27c0-.12,0-.22,0-.34-.07-.73-.15-1.47-.23-2.2-.15-1.42-.32-2.84-.51-4.28-.1-.83-.22-1.65-.33-2.46-.25-1.75-.52-3.49-.82-5.25s-.61-3.5-1-5.23c-.15-.8-.32-1.62-.49-2.44q-.45-2.11-.93-4.2l-.51-2.15a2.66,2.66,0,0,0-.08-.33c-.18-.74-.37-1.48-.56-2.21s-.35-1.36-.52-2c-.24-.89-.48-1.77-.73-2.65s-.45-1.55-.68-2.34c-.46-1.55-.93-3.09-1.43-4.63a.08.08,0,0,0,0-.08q-1.46-4.6-3.16-9.08a.44.44,0,0,0-.06-.16q-1.68-4.5-3.58-8.85a.76.76,0,0,0-.06-.16q-1.83-4.27-3.87-8.41c-.1-.21-.2-.42-.32-.62-.66-1.36-1.33-2.7-2-4q-2.73-5.25-5.76-10.31A197.51,197.51,0,0,0,1907.77,554c-.9-1.22-1.82-2.41-2.74-3.59-1.08-1.39-2.19-2.77-3.32-4.12-.79-1-1.59-1.94-2.42-2.89l-1.92-2.21c-.4-.45-.78-.89-1.18-1.33l-1.53-1.67c-.83-.9-1.65-1.79-2.48-2.66-.48-.51-1-1-1.45-1.49-.25-.28-.52-.54-.78-.8s-.39-.41-.6-.62c-.84-.86-1.71-1.71-2.57-2.55a.08.08,0,0,1,0,0q-1.62-1.57-3.3-3.13l-1.78-1.64c-1.2-1.08-2.41-2.16-3.63-3.21l-1.85-1.58c-.64-.55-1.31-1.1-2-1.64-1-.84-2.07-1.68-3.12-2.51a.48.48,0,0,1-.11-.09l-1.93-1.5-1.12-.85c-1-.77-2-1.51-3-2.26l-2.12-1.52c-.71-.5-1.42-1-2.14-1.5-1-.71-2.07-1.41-3.12-2.11l-1.18-.78-2-1.33a.46.46,0,0,1-.14-.07c-1.12-.73-2.25-1.42-3.39-2.12-.73-.44-1.46-.89-2.2-1.31s-1.39-.82-2.09-1.23q-2.1-1.2-4.23-2.37l-2.14-1.14c-1.35-.72-2.69-1.41-4-2.09l-.06,0c-1.08-.54-2.17-1.08-3.26-1.59L1832,492c-.34-.16-.67-.32-1-.47-.62-.3-1.24-.59-1.88-.87-1.1-.51-2.21-1-3.33-1.47l-2.09-.9-1.64-.67-2.72-1.09c-1.17-.47-2.34-.91-3.52-1.33-1.65-.62-3.32-1.21-5-1.78-1.42-.48-2.84-1-4.28-1.41a202,202,0,0,0-19.74-5.13q-5.76-1.19-11.63-2c-1.49-.22-3-.41-4.47-.59l-.69-.09c-3.06-.38-6.13-.67-9.22-.89h-.17c-3.15-.23-6.34-.39-9.53-.46a.33.33,0,0,0-.17,0c-3.2-.09-6.4-.09-9.62,0h-.08c-1.62,0-3.23.11-4.85.18l-2.42.13c-.92.05-1.83.11-2.75.19l-2.09.17-2.27.2-.33,0-2.21.23c-1.42.15-2.84.32-4.27.51-.83.1-1.65.22-2.47.34-1.75.24-3.49.51-5.25.81s-3.49.61-5.22,1c-.81.15-1.62.32-2.44.49-1.42.3-2.81.61-4.2.93l-2.16.51-.33.08-2.21.56-2,.53c-.89.23-1.77.47-2.65.72l-2.33.68c-1.55.46-3.09.93-4.64,1.43,0,0,0,0-.07,0q-4.6,1.45-9.09,3.17a.3.3,0,0,0-.16.05q-4.48,1.68-8.85,3.58l-.15.06q-4.27,1.83-8.41,3.88a6.11,6.11,0,0,0-.63.31c-1.35.66-2.69,1.33-4,2q-5.27,2.73-10.31,5.76a199.25,199.25,0,0,0-17,11.34c-1.21.9-2.4,1.82-3.59,2.74-1.38,1.09-2.76,2.2-4.12,3.32-1,.79-1.93,1.59-2.89,2.42l-2.2,1.92-1.33,1.18-1.68,1.53c-.9.83-1.79,1.65-2.66,2.49-.51.47-1,.95-1.49,1.44l-.8.78-.61.6c-.86.84-1.71,1.71-2.56,2.58l0,0c-1,1.08-2.09,2.18-3.14,3.3-.54.6-1.09,1.2-1.64,1.78-1.08,1.2-2.16,2.41-3.21,3.63l-1.57,1.85-1.64,2c-.85,1-1.69,2.07-2.51,3.12l-.1.12c-.5.63-1,1.27-1.49,1.92l-.86,1.12c-.76,1-1.5,2-2.25,3-.52.71-1,1.42-1.53,2.12Z" class="cls-4" transform="translate(-366.5 -381.64)"/><path d="M2116,2189.89l-1.67-9-91.75-495.07h0l-7.84-42.31H1791.3l61.64,73.57,34.66,41.36-64,53.59-59.93,50.22-17.14,14.36-74.84-89.32-43.33-51.71,12.41-10.4,26.51-22.22,71-59.45H1529.41l31.29,17,25.1,13.67-27.57,50.62-60.45,111-54.57-29.73-10.77,183.17-183.68-10.8,10.8-183.68,182.59,10.74-106-57.72L1393,1643.5H1238.89l42.36,143.74-176.49,52-52-176.49,65.36-19.26H932.64l112.1,605c.84.93,1.69,1.86,2.52,2.79,58.82,65.46,103.74,146.94,138.59,240,57.47-53.47,86.93-138.77,105.81-236.12q91.36,85.89,147,222l34.32-6.36c35-107,87.52-195.38,156.77-266-6.66,74.32,1.33,143.67,40,202.58,71.77-8.94,124.54-49.21,172.9-96.77q9.32,48-5.48,92.68L1975,2377.78l19.4-3.6A163.85,163.85,0,0,0,2116,2189.89Zm-974.82-57.11L1003.1,2013l-.88-.77.61-.7,120-138.27,139,120.59Zm406.57-112.53-21.7-73.64v0l-30.31-102.83,123.93-36.52,41.79-12.32,10.77-3.17,52,176.49Zm468-23.22L1834,1968.79,1862.21,1787,2044,1815.21Z" class="cls-5" transform="translate(-366.5 -381.64)"/><polygon points="1076.74 1423.92 1076.71 1424.43 1075.65 1423.86 1076.74 1423.92" class="cls-6"/><path d="M1475.78,1614.29l-51.56-28.09L1393,1643.5H1238.89l-9.65-32.75-111.13,32.75H932.64l-56-301.94c-3.52-20.91-3.4-42.42-1.5-64.2,4.64-53.17,19.93-108,19-159.73l185.59-34.39,7,9.4,61,81.83,55,73.68,32.52,43.61,26.72,35.82,55,73.69,64,85.84,55,73.68Z" class="cls-1" transform="translate(-366.5 -381.64)"/><path d="M2014.75,1643.5H1791.3l-21.87-26.1-31.15,26.1H1579.9l-14-18.75-55-73.69-61.63-82.63-34.8-46.67-20.15-27-12.77-17.13-51.24-68.71-55-73.68-18.85-25.28-40.38-54.15-55-73.69-9.15-12.27,674.2-124.94c24.92,68.61,82.07,131.27,96.57,202.8Z" class="cls-1" transform="translate(-366.5 -381.64)"/><polygon points="1213.4 1261.86 1162.91 1261.86 1133.35 1245.76 1109.29 1232.65 1109.28 1232.65 1069.39 1179.15 1014.44 1105.47 950.43 1019.63 895.48 945.94 868.76 910.12 836.24 866.51 781.29 792.83 720.27 711 713.26 701.6 721.87 700 785.6 688.19 794.75 700.46 849.7 774.15 890.08 828.3 908.93 853.58 963.88 927.26 1015.12 995.97 1027.89 1013.1 1048.04 1040.12 1082.84 1086.79 1144.47 1169.42 1199.42 1243.11 1213.4 1261.86" class="cls-1"/><path d="M1858.28,896.25l-734.17,136-29.35,5.44-43,8-204.89,38c-9.6,1.78-18.94-5.14-20.85-15.45l-4.93-26.57c-1.91-10.31,4.33-20.11,13.94-21.89l173.42-32.14,28.7-5.32,43.64-8.09,765.64-141.89c9.6-1.78,18.94,5.14,20.85,15.45l4.92,26.57C1874.13,884.66,1867.89,894.47,1858.28,896.25Z" class="cls-1" transform="translate(-366.5 -381.64)"/><path d="M923.74,874l-86.12,21.55-11.21-60.51c-4-21.63,9.07-42.18,29.22-45.92l4.23-.78h0l55.37,74.26Z" class="cls-1" transform="translate(-366.5 -381.64)"/><path d="M1801.14,654.43l-808,202.23-11.76,2.94L983.65,844,932.2,775,1757.4,622C1777.55,618.3,1797.13,632.81,1801.14,654.43Z" class="cls-1" transform="translate(-366.5 -381.64)"/><polygon points="613.97 568.46 485.63 592.24 478.05 551.34 581.83 525.36 581.84 525.36 603.7 554.68 613.97 568.46" class="cls-1"/><polygon points="1460.36 411.61 686.3 555.05 678.77 544.95 651.22 508 1441.57 310.19 1460.36 411.61" class="cls-1"/><path d="M948.33,907,844.55,933,822.1,938.6c-9.48,2.37-19.16-4-21.63-14.16a20.28,20.28,0,0,1-.57-4.79c0-8.41,5.29-15.95,13.28-18l24.44-6.11L923.74,874Z" class="cls-1" transform="translate(-366.5 -381.64)"/><path d="M1820.19,688.8l-12.12,3L1017.72,889.64l-24.59-33,808-202.23,10.14-2.54c9.48-2.37,19.16,4,21.62,14.16S1829.68,686.43,1820.19,688.8Z" class="cls-1" transform="translate(-366.5 -381.64)"/><polygon points="914.75 1405.6 738.26 1457.61 686.25 1281.12 751.61 1261.86 862.74 1229.11 872.39 1261.86 914.75 1405.6" class="cls-7"/><polygon points="1219.3 1292.58 1191.73 1343.2 1131.28 1454.16 1076.71 1424.43 1076.74 1423.92 1075.65 1423.86 969.7 1366.14 1026.51 1261.86 1057.72 1204.56 1109.28 1232.65 1109.29 1232.65 1133.35 1245.76 1162.91 1261.86 1194.2 1278.91 1219.3 1292.58" class="cls-7"/><polygon points="1076.74 1423.92 1076.71 1424.43 1075.65 1423.86 1076.74 1423.92" class="cls-6"/><polygon points="1521.1 1376.79 1457.14 1430.38 1397.21 1480.6 1380.07 1494.96 1305.23 1405.64 1261.9 1353.93 1274.31 1343.53 1300.82 1321.31 1371.78 1261.86 1402.93 1235.76 1424.8 1261.86 1486.44 1335.43 1521.1 1376.79" class="cls-7"/><rect width="184" height="184" x="1847" y="1800" class="cls-7" transform="matrix(0.15, -0.99, 0.99, 0.15, -594.68, 3136)"/><polygon points="1357.75 1586.6 1181.26 1638.61 1129.25 1462.12 1253.18 1425.6 1294.97 1413.28 1305.74 1410.11 1357.75 1586.6" class="cls-7"/><polygon points="1076.71 1424.43 1065.94 1607.6 882.26 1596.8 893.06 1413.12 1075.65 1423.86 1076.71 1424.43" class="cls-7"/><polygon points="1076.74 1423.92 1076.71 1424.43 1075.65 1423.86 1076.74 1423.92" class="cls-6"/><rect width="184" height="184" x="1040" y="1911" class="cls-7" transform="translate(-1489.25 1163.59) rotate(-49.05)"/><polyline points="718.5 1657.36 683.5 1626.36 714.5 1590.36" class="cls-1"/><polyline points="1035.38 1521.33 1032.83 1568.02 985.36 1566.09" class="cls-1"/><polyline points="743.22 1350.55 729.81 1305.76 775.13 1291.5" class="cls-1"/><polyline points="1183.22 1529.55 1169.81 1484.76 1215.13 1470.5" class="cls-1"/><polyline points="1420.17 1418.88 1383.21 1447.52 1353.59 1410.37" class="cls-1"/><polyline points="1628.46 1529.88 1621.67 1576.14 1574.57 1569.89" class="cls-1"/><polyline points="1134.43 1283.13 1175.49 1305.5 1153.36 1347.53" class="cls-1"/><path d="M798,595l10.57,14.17L795.08,701.5l-50-67.07a17.87,17.87,0,0,1,3.64-25L773,591.33A17.86,17.86,0,0,1,798,595Z" class="cls-6" transform="translate(-366.5 -381.64)"/><polygon points="562.2 388.63 561.4 394.12 493.37 406.73 493.36 406.73 483.54 393.55 496.99 301.18 562.2 388.63" class="cls-6"/><polygon points="561.4 394.12 548.74 480.99 493.37 406.73 561.4 394.12" class="cls-6"/><polygon points="641.96 605.99 670.66 600.67 665.32 637.31 641.96 605.99" class="cls-6"/><polygon points="678.77 544.95 677.05 556.77 613.97 568.46 603.7 554.68 608.96 518.58 651.22 508 678.77 544.95" class="cls-6"/><polygon points="651.22 508 608.96 518.58 614.87 477.96 626.63 475.02 651.22 508" class="cls-6"/><polygon points="626.63 475.02 614.87 477.96 617.15 462.31 626.63 475.02" class="cls-6"/><polygon points="757.61 650.66 728.26 656.1 733.72 618.63 757.61 650.66" class="cls-6"/><polygon points="794.75 700.46 781.29 792.83 720.27 711 721.87 700 785.6 688.19 794.75 700.46" class="cls-6"/><polygon points="908.93 853.58 895.48 945.94 868.76 910.12 836.24 866.51 849.7 774.15 890.08 828.3 908.93 853.58" class="cls-6"/><polygon points="1027.89 1013.1 1026.03 1025.84 1014.44 1105.47 950.43 1019.63 963.88 927.26 1015.12 995.97 1027.89 1013.1" class="cls-6"/><polygon points="1144.47 1169.42 1133.35 1245.76 1109.29 1232.65 1109.28 1232.65 1069.39 1179.15 1082.84 1086.79 1144.47 1169.42" class="cls-6"/><polygon points="1213.4 1261.86 1196.69 1261.86 1199.42 1243.11 1213.4 1261.86" class="cls-6"/><polygon points="496.99 301.18 483.54 393.55 428.58 319.86 442.04 227.5 496.99 301.18" class="cls-8"/><polygon points="608.96 518.58 603.7 554.68 581.84 525.36 608.96 518.58" class="cls-8"/><polygon points="614.87 477.96 608.96 518.58 581.84 525.36 581.83 525.36 557.24 492.39 614.87 477.96" class="cls-8"/><polygon points="617.15 462.31 614.87 477.96 557.24 492.39 548.74 480.99 561.4 394.12 565.7 393.32 617.15 462.31" class="cls-8"/><polygon points="565.7 393.32 561.4 394.12 562.2 388.63 565.7 393.32" class="cls-8"/><polygon points="721.87 700 720.27 711 713.26 701.6 721.87 700" class="cls-8"/><polygon points="686.3 555.05 677.05 556.77 678.77 544.95 686.3 555.05" class="cls-8"/><polygon points="733.72 618.63 728.26 656.1 685.27 664.07 665.32 637.31 670.66 600.67 714.3 592.58 733.72 618.63" class="cls-8"/><polygon points="849.7 774.15 836.24 866.51 781.29 792.83 794.75 700.46 849.7 774.15" class="cls-8"/><polygon points="963.88 927.26 950.43 1019.63 895.48 945.94 908.93 853.58 963.88 927.26" class="cls-8"/><polygon points="1082.84 1086.79 1069.39 1179.15 1014.44 1105.47 1026.03 1025.84 1027.89 1013.1 1048.04 1040.12 1082.84 1086.79" class="cls-8"/><polygon points="1199.42 1243.11 1196.69 1261.86 1162.91 1261.86 1133.35 1245.76 1144.47 1169.42 1199.42 1243.11" class="cls-8"/></g><g id="Layer_13" data-name="Layer 13"><polygon points="1078.74 1423.92 1078.71 1424.43 1077.65 1423.86 1078.74 1423.92" class="cls-9"/><path d="M2118,2189.89l-1.67-9-99.59-537.39-91.88-495.81c-14.5-71.53-71.65-134.19-96.57-202.8l-1.87.35L1154.1,1069.83l-1.75.33h0l-62,11.48-2.06.38-6.55,1.22-1.75.33h0l-183.83,34.06c1.32,73-29.59,152-17.49,223.93l56,301.94,68.19,368,.27,1.46h0l44.16,238.29c58.82,65.46,103.74,146.94,138.59,240,57.47-53.47,86.93-138.77,105.81-236.12q91.36,85.89,147,222l.14.35,34-6.32c0-.13.09-.26.13-.39,35-107,87.52-195.38,156.77-266-6.66,74.32,1.33,143.67,40,202.58,71.77-8.94,124.54-49.21,172.9-96.77q9.32,48-5.48,92.68l-.13.4,140-25.95,19.4-3.6A163.85,163.85,0,0,0,2118,2189.89Z" class="cls-10" transform="translate(-366.5 -381.64)"/><path d="M1860.28,896.25l-734.17,136-29.35,5.44-43,8-204.89,38c-9.6,1.78-18.94-5.14-20.85-15.45l-4.93-26.57c-1.91-10.31,4.33-20.11,13.94-21.89l173.42-32.14,28.7-5.32,43.64-8.09,765.64-141.89c9.6-1.78,18.94,5.14,20.85,15.45l4.92,26.57C1876.13,884.66,1869.89,894.47,1860.28,896.25Z" class="cls-10" transform="translate(-366.5 -381.64)"/><path d="M1006,854l0,0-28.87,7.22L839.62,895.58l-11.21-60.51c-4-21.63,9.07-42.18,29.22-45.92l72.42-13.08,0-.07,829.4-154c20.15-3.74,39.73,10.77,43.74,32.39Z" class="cls-10" transform="translate(-366.5 -381.64)"/><polygon points="1462.36 411.61 487.63 592.24 480.05 551.34 652.39 508.21 653.22 508 1443.57 310.19 1462.36 411.61" class="cls-10"/><path d="M1822.19,688.8l-12.12,3L846.55,933,824.1,938.6c-9.48,2.37-19.16-4-21.63-14.16a20.28,20.28,0,0,1-.57-4.79c0-8.41,5.29-15.95,13.28-18l24.44-6.11,963.52-241.15,10.14-2.54c9.48-2.37,19.16,4,21.62,14.16S1831.68,686.43,1822.19,688.8Z" class="cls-10" transform="translate(-366.5 -381.64)"/></g><g id="Layer_12" data-name="Layer 12"><path d="M1438.77,2477.53q9.57,23.53,18,48.6,7.26-28.23,16-54.92" class="cls-1" transform="translate(-366.5 -381.64)"/><path d="M1837,2403.73q-11.41,34.42-37,66.92c74.58-.09,137.14-20.14,185.8-63.23,14.58,72.81-2.28,139.93-43.87,202.58" class="cls-1" transform="translate(-366.5 -381.64)"/><path d="M883.92,2610c-55.8-84.37-51.71-192.12-25.8-308.38,10.79,61.15,31.44,111.19,86.45,122.58,48.86-54.19,55.77-134.53,55.48-219.36a523.82,523.82,0,0,1,44.69,43.62" class="cls-1" transform="translate(-366.5 -381.64)"/></g></svg>