<svg xmlns="http://www.w3.org/2000/svg" viewBox="0 0 2266 1958.43"><defs><style>.cls-1{fill:none;}.cls-1,.cls-2,.cls-3,.cls-4,.cls-5,.cls-6{stroke:#000;stroke-linecap:round;stroke-linejoin:round;stroke-width:25px;}.cls-2{fill:#fff35c;}.cls-3{fill:#dbcd52;}.cls-4{fill:#ce711d;}.cls-5{fill:#ff8827;}.cls-6{fill:#e8b25d;}</style></defs><title>LemonadePitcher</title><g id="Layer_8" data-name="Layer 8"><path class="cls-1" d="M412,1754c19.13-142.07,59.85-255.34,125-336,2.84,93.52,46.71,185.58,136,276,59.75-100.87,84.21-223.4,89-358,56.4,103.93,93.77,200.08,89,279,18.07-64,44.8-112.28,79-147,8.7,112.27,42.87,216.59,96,315,5-79.47,22.57-154.73,58-224,17.2,46.34,48,75.52,103,74,72.58-62,96.49-156.85,111-258,57.84,79,104.76,174,140,286,16.85-44.77,38.27-80.8,68-102" transform="translate(-399.5 -576.07)"/><path class="cls-1" d="M1559,2163c19.13-142.07,59.85-255.34,125-336,2.84,93.52,46.71,185.58,136,276,59.75-100.87,84.21-223.4,89-358,56.4,103.93,93.77,200.08,89,279,18.07-64,44.8-112.28,79-147,8.7,112.27,42.87,216.59,96,315,5-79.47,22.57-154.73,58-224,17.2,46.34,48,75.52,103,74,72.58-62,96.49-156.85,111-258,57.84,79,104.76,174,140,286,16.85-44.77,38.27-80.8,68-102" transform="translate(-399.5 -576.07)"/></g><g id="Layer_9" data-name="Layer 9"><path class="cls-1" d="M1764.81,631c-13.86,38.2-20.17,74.58-19.58,109.38q-5.89,1.3-11.84,2.58c0-.14,0-.29,0-.43,0,.16-.09.31-.12.47-227.16,48.94-484.06,74.71-774.19,74.56l-13.12,0C914.64,744.84,874.65,687.57,825,647.33,945.75,555.31,1004.35,673.22,1764.81,631Z" transform="translate(-399.5 -576.07)"/><path class="cls-1" d="M1733.38,742.49c0,.14,0,.29,0,.43l-.13,0C1733.29,742.8,1733.34,742.65,1733.38,742.49Z" transform="translate(-399.5 -576.07)"/><path class="cls-1" d="M1764.81,631C1004.35,673.22,945.75,555.31,825,647.33c46.81-120.53,392.49-13.78,705.32-41C1638.76,594.9,1703.72,601.69,1764.81,631Z" transform="translate(-399.5 -576.07)"/><path class="cls-1" d="M2089.6,1352.09c-21.43,32.82-57,61.4-88.58,64.42-20.9,2-40.08-7.17-52.33-33.69a117,117,0,0,1-6.59-18.51c-10.71-40-28.08-83-50-128.06-.56-1.14-1.11-2.28-1.69-3.43l-.36-.73c-23.91-48.65-53.08-99.7-84.84-151.93-37.11-60.47-38-100-20.65-124.44h0c22.06-31.09,73.65-37.91,118-32.63C2089.22,942.23,2181.31,1188.52,2089.6,1352.09Z" transform="translate(-399.5 -576.07)"/><path class="cls-1" d="M974.4,789.64c237.71-43.93,484.05-67,734.59-70.91" transform="translate(-399.5 -576.07)"/><path class="cls-1" d="M1784.51,955.71c-26.84-52.37-33-106.71-21.6-162.77" transform="translate(-399.5 -576.07)"/><line class="cls-1" x1="1651.44" y1="999.01" x2="1651.44" y2="999"/><path class="cls-2" d="M2047.16,1913.59c-12.69,107-46.69,211.9-109.12,314.11-52.65,89.47-90.2,158.4-177.79,166.85l-140.57,13.57c-35.18-40.15-59.38-85-66.68-137.12-39.35,29.68-65.54,69.64-72,125-42.43-12.73-70.18-47.44-86-100-30.23,40.84-48.46,87.92-58.17,139.43l-50.43,4.87c-27.76-43.16-62.71-78.55-108.4-102.3a227.08,227.08,0,0,1-4.34,78.23c-31-23.21-63.45-60.53-101.44-109.92A1195.94,1195.94,0,0,1,1061,2109c-22.6,25.39-44.25,51.72-63.07,80.8-142.27-257-135.47-487.17-95.75-688.15,18.32-92.68,43.64-179.15,64.58-259.17,9.43,52.63,916.84,47.46,925.29-6.23,22,45.11,39.34,88.11,50,128.06a117,117,0,0,0,6.59,18.51c25.66,65.79,5.69,56.66,28.4,135.85,20.88,61.6,49.36,62.14,62.3,128.2C2053.68,1736.9,2057.58,1825.93,2047.16,1913.59Z" transform="translate(-399.5 -576.07)"/><path class="cls-1" d="M959.07,817.52l-.09-.27" transform="translate(-399.5 -576.07)"/><path class="cls-3" d="M1892.05,1236.25c-8.45,53.69-915.86,58.86-925.29,6.23,16.87-38.37,902.78-36.09,923.24-10.39l.36.73C1890.94,1234,1891.49,1235.11,1892.05,1236.25Z" transform="translate(-399.5 -576.07)"/><path class="cls-1" d="M1890.36,1232.82l-.36-.73A1.43,1.43,0,0,1,1890.36,1232.82Z" transform="translate(-399.5 -576.07)"/><path class="cls-1" d="M2173.77,1443.42c-35.44,47-95.75,83.59-122.83,131.64-36.94-50.66-56-103.23-49.92-158.55,31.61-3,67.15-31.6,88.58-64.42,91.71-163.57-.38-409.86-187.08-429-44.36-5.28-96,1.54-118,32.63h0c-17.37,24.47-16.46,64,20.65,124.44,31.76,52.23,60.93,103.28,84.84,151.93-20.46-25.7-906.37-28-923.24,10.39,41-157,51.19-234.37-7.69-425,290.13.15,547-25.62,774.19-74.56l.13,0c.78,45.85,56.63,63.45,134.7,62.92C2148.55,818,2369.69,1183.39,2173.77,1443.42Z" transform="translate(-399.5 -576.07)"/><path class="cls-1" d="M2039.39,1646.87q-.83-5.23-1.71-10.48c-2.58-22.94,2.92-43,13.26-61.32h0" transform="translate(-399.5 -576.07)"/><path class="cls-1" d="M1784.49,1043c-49.66-88.49-77.57-205.35-51.23-300" transform="translate(-399.5 -576.07)"/><path class="cls-1" d="M2040,1650.23c-.21-1.14-.42-2.25-.63-3.36" transform="translate(-399.5 -576.07)"/><path class="cls-4" d="M1683.41,1955.81c-67.11,102.66-204.71,131.66-307.57,64.75s-132.1-204.47-65.44-307.42l20.6,13.4c-59.55,91.74-33.53,214.4,58.17,274.06s214.39,33.73,274.12-57.88Z" transform="translate(-399.5 -576.07)"/><path class="cls-5" d="M1496.48,1834.2,1340,1867.34c-.29-1.39-.57-2.76-.82-4.14-.12-.64-.23-1.29-.34-1.94-.2-1.13-.38-2.25-.54-3.37-.09-.58-.18-1.16-.26-1.74a2.51,2.51,0,0,1,0-.27c-.08-.59-.15-1.19-.23-1.79s-.14-1.11-.2-1.65c-.09-.72-.17-1.44-.24-2.17l-.18-1.92c-.11-1.28-.21-2.55-.3-3.83a.06.06,0,0,1,0-.06c-.17-2.54-.27-5.08-.32-7.63a.28.28,0,0,1,0-.13c0-2.53,0-5,.06-7.58a.29.29,0,0,1,0-.13c.09-2.44.22-4.89.4-7.33,0-.19,0-.37,0-.56.1-1.19.2-2.37.33-3.55q.48-4.68,1.24-9.29a161.63,161.63,0,0,1,3.42-15.81c.32-1.16.64-2.3,1-3.44.4-1.34.81-2.68,1.25-4,.3-1,.61-1.89.94-2.84l.78-2.19c.16-.44.31-.88.48-1.32s.42-1.13.64-1.68c.35-.91.69-1.8,1-2.69.21-.51.42-1,.64-1.52.1-.28.22-.55.34-.82l.26-.63c.37-.88.76-1.75,1.16-2.63l0,0c.49-1.09,1-2.18,1.51-3.27.29-.58.57-1.16.85-1.73.56-1.15,1.14-2.3,1.73-3.43.3-.57.6-1.14.91-1.7s.64-1.19,1-1.78c.52-.93,1-1.85,1.57-2.76a.37.37,0,0,0,0-.11c.33-.55.65-1.1,1-1.66.18-.32.38-.63.58-1l1.57-2.54c.37-.59.74-1.17,1.12-1.74Z" transform="translate(-399.5 -576.07)"/><path class="cls-1" d="M1336.54,1829q.11-3.69.4-7.33C1336.76,1824.1,1336.63,1826.55,1336.54,1829Z" transform="translate(-399.5 -576.07)"/><path class="cls-1" d="M1336.48,1836.7q-.07-3.81.06-7.58C1336.46,1831.65,1336.45,1834.17,1336.48,1836.7Z" transform="translate(-399.5 -576.07)"/><path class="cls-1" d="M1336.8,1844.46q-.27-3.82-.32-7.63C1336.53,1839.38,1336.63,1841.92,1336.8,1844.46Z" transform="translate(-399.5 -576.07)"/><path class="cls-5" d="M1496.48,1834.2l-87.25,134.11-1.73-1.13-2.47-1.69-.91-.65c-.54-.37-1.06-.74-1.58-1.12l-.09-.07c-.86-.62-1.71-1.25-2.56-1.89l-1.6-1.23-1.52-1.19c-1-.8-2-1.61-3-2.43-.48-.41-1-.83-1.47-1.24-.92-.79-1.82-1.58-2.71-2.38a.05.05,0,0,0,0,0c-.71-.65-1.43-1.29-2.12-2l-.5-.46-.64-.61-1.19-1.13-2.06-2-1.27-1.28c-.33-.34-.65-.67-1-1l-1.6-1.68q-1-1.1-2-2.22c-.94-1-1.86-2.09-2.77-3.15s-1.53-1.83-2.28-2.76a158.2,158.2,0,0,1-9.54-13.06q-2.56-3.92-4.9-8c-.6-1-1.17-2.07-1.74-3.12-.1-.16-.18-.32-.27-.48q-1.74-3.25-3.34-6.55l-.06-.11c-1.09-2.29-2.12-4.59-3.12-6.9a.5.5,0,0,1,0-.13c-1-2.35-1.92-4.71-2.8-7.1a.14.14,0,0,1,0-.06c-.44-1.21-.87-2.41-1.28-3.62-.21-.62-.41-1.22-.61-1.83s-.45-1.38-.67-2.08c-.16-.52-.32-1.06-.48-1.59s-.34-1.16-.52-1.73c0-.09,0-.17-.07-.26-.16-.56-.31-1.13-.47-1.7-.3-1.09-.59-2.18-.87-3.3-.17-.64-.32-1.28-.47-1.91q-.5-2-.93-4.11Z" transform="translate(-399.5 -576.07)"/><path class="cls-1" d="M1349.14,1896.63c-1-2.33-1.93-4.69-2.8-7.1C1347.22,1891.92,1348.15,1894.28,1349.14,1896.63Z" transform="translate(-399.5 -576.07)"/><path class="cls-1" d="M1352.31,1903.66q-1.63-3.4-3.12-6.9C1350.19,1899.07,1351.22,1901.37,1352.31,1903.66Z" transform="translate(-399.5 -576.07)"/><path class="cls-1" d="M1355.71,1910.32q-1.76-3.22-3.34-6.55Q1354,1907.07,1355.71,1910.32Z" transform="translate(-399.5 -576.07)"/><path class="cls-1" d="M1491.28,1994.14c-2.46-.07-4.9-.2-7.34-.4C1486.39,1993.92,1488.83,1994.06,1491.28,1994.14Z" transform="translate(-399.5 -576.07)"/><path class="cls-1" d="M1499,1994.21c-2.53,0-5.06,0-7.57-.06C1493.94,1994.22,1496.46,1994.23,1499,1994.21Z" transform="translate(-399.5 -576.07)"/><path class="cls-1" d="M1506.74,1993.89c-2.55.17-5.08.28-7.62.31C1501.67,1994.15,1504.2,1994.05,1506.74,1993.89Z" transform="translate(-399.5 -576.07)"/><path class="cls-5" d="M1630.6,1921.45c-.38.58-.75,1.16-1.14,1.73-.56.83-1.12,1.65-1.69,2.47-.21.31-.42.62-.64.91-.37.54-.75,1.06-1.12,1.58l-.07.09c-.62.87-1.26,1.71-1.89,2.56-.41.53-.82,1.07-1.24,1.6s-.79,1-1.19,1.52c-.79,1-1.61,2-2.42,3l-1.25,1.47c-.79.92-1.58,1.82-2.37,2.71l0,0c-.64.71-1.28,1.43-1.94,2.12-.16.17-.31.34-.47.5l-.6.64c-.37.41-.75.8-1.14,1.2-.66.69-1.34,1.36-2,2l-1.28,1.27c-.33.33-.67.65-1,1l-1.69,1.6c-.73.69-1.46,1.35-2.21,2-1,.94-2.09,1.86-3.16,2.77-.91.77-1.82,1.53-2.75,2.29a158.25,158.25,0,0,1-13.07,9.53q-3.9,2.57-8,4.9c-1,.6-2.07,1.17-3.12,1.74-.16.1-.33.18-.49.27q-3.24,1.74-6.54,3.34l-.12.06c-2.28,1.09-4.58,2.12-6.9,3.12a.29.29,0,0,1-.13,0c-2.34,1-4.71,1.92-7.09,2.8,0,0,0,0-.06,0-1.21.45-2.41.87-3.63,1.28l-1.83.61c-.68.24-1.38.46-2.08.67l-1.58.48-1.74.52-.26.07-1.69.47c-1.09.31-2.19.59-3.3.87-.64.17-1.28.33-1.92.47-1.36.34-2.72.64-4.11.93l-33.14-156.53Z" transform="translate(-399.5 -576.07)"/><path class="cls-1" d="M1558.91,1981.54q-3.5,1.5-7.09,2.8C1554.2,1983.46,1556.57,1982.53,1558.91,1981.54Z" transform="translate(-399.5 -576.07)"/><path class="cls-1" d="M1565.94,1978.37q-3.39,1.64-6.9,3.12C1561.36,1980.49,1563.66,1979.46,1565.94,1978.37Z" transform="translate(-399.5 -576.07)"/><path class="cls-1" d="M1572.6,1975q-3.21,1.76-6.54,3.34Q1569.36,1976.71,1572.6,1975Z" transform="translate(-399.5 -576.07)"/><path class="cls-5" d="M1529.62,1990.73c-1.38.3-2.75.57-4.13.82l-2,.35-3.36.54-1.74.25-.27,0-1.79.23-1.65.2-2.17.24-1.92.18c-1.28.11-2.55.22-3.83.3h-.07c-2.54.16-5.07.26-7.62.31a.33.33,0,0,1-.14,0c-2.52,0-5,0-7.57-.06h-.13c-2.45-.08-4.89-.22-7.34-.4a5.35,5.35,0,0,1-.55,0c-1.19-.1-2.38-.2-3.56-.32-3.12-.33-6.21-.74-9.28-1.25a157.55,157.55,0,0,1-15.81-3.42c-1.16-.31-2.31-.64-3.45-1-1.34-.39-2.68-.81-4-1.25-1-.29-1.9-.61-2.84-.94l-2.19-.78c-.45-.15-.88-.31-1.32-.47l-1.69-.65c-.9-.35-1.8-.69-2.68-1.05L1435,1982l-.81-.35-.63-.26c-.88-.37-1.76-.76-2.64-1.15l0,0c-1.09-.5-2.18-1-3.27-1.52l-1.74-.84c-1.14-.57-2.29-1.15-3.42-1.74-.57-.3-1.14-.6-1.7-.91s-1.2-.64-1.78-1l-2.77-1.57a.21.21,0,0,0-.1-.06c-.55-.33-1.11-.65-1.66-1l-1-.57c-.86-.52-1.7-1-2.55-1.58-.58-.36-1.16-.74-1.74-1.12l87.25-134.11Z" transform="translate(-399.5 -576.07)"/><path class="cls-6" d="M1663.29,1942.72c-59.73,91.61-182.42,117.54-274.12,57.88s-117.72-182.32-58.17-274.06l31.37,20.41c-.38.57-.75,1.15-1.12,1.74l-1.57,2.54c-.2.33-.4.64-.58,1-.34.56-.66,1.11-1,1.66a.37.37,0,0,1,0,.11c-.54.91-1,1.83-1.57,2.76-.33.59-.66,1.19-1,1.78s-.61,1.13-.91,1.7c-.59,1.13-1.17,2.28-1.73,3.43-.28.57-.56,1.15-.85,1.73-.52,1.09-1,2.18-1.51,3.27l0,0c-.4.88-.79,1.75-1.16,2.63l-.26.63c-.12.27-.24.54-.34.82-.22.5-.43,1-.64,1.52-.36.89-.7,1.78-1,2.69-.22.55-.43,1.12-.64,1.68s-.32.88-.48,1.32l-.78,2.19c-.33.95-.64,1.89-.94,2.84-.44,1.33-.85,2.67-1.25,4-.34,1.14-.66,2.28-1,3.44a161.63,161.63,0,0,0-3.42,15.81q-.76,4.6-1.24,9.29c-.13,1.18-.23,2.36-.33,3.55,0,.19,0,.37,0,.56q-.3,3.64-.4,7.33a.29.29,0,0,0,0,.13q-.13,3.77-.06,7.58a.28.28,0,0,0,0,.13q0,3.81.32,7.63a.06.06,0,0,0,0,.06c.09,1.28.19,2.55.3,3.83l.18,1.92c.07.73.15,1.45.24,2.17.06.54.13,1.1.2,1.65s.15,1.2.23,1.79a2.51,2.51,0,0,0,0,.27c.08.58.17,1.16.26,1.74.16,1.12.34,2.24.54,3.37.11.65.22,1.3.34,1.94.25,1.38.53,2.75.82,4.14s.6,2.75.93,4.11c.15.63.3,1.27.47,1.91.28,1.12.57,2.21.87,3.3.16.57.31,1.14.47,1.7,0,.09,0,.17.07.26.18.57.35,1.15.52,1.73s.32,1.07.48,1.59c.22.7.43,1.39.67,2.08s.4,1.21.61,1.83c.41,1.21.84,2.41,1.28,3.62a.14.14,0,0,0,0,.06c.87,2.41,1.8,4.77,2.8,7.1a.5.5,0,0,0,0,.13q1.49,3.49,3.12,6.9l.06.11q1.59,3.33,3.34,6.55c.09.16.17.32.27.48.57,1,1.14,2.09,1.74,3.12q2.34,4.08,4.9,8a158.2,158.2,0,0,0,9.54,13.06q1.13,1.4,2.28,2.76c.91,1.06,1.83,2.12,2.77,3.15q1,1.13,2,2.22l1.6,1.68c.32.35.64.68,1,1l1.27,1.28,2.06,2,1.19,1.13.64.61.5.46c.69.66,1.41,1.3,2.12,2a.05.05,0,0,1,0,0c.89.8,1.79,1.59,2.71,2.38.5.41,1,.83,1.47,1.24,1,.82,2,1.63,3,2.43l1.52,1.19,1.6,1.23c.85.64,1.7,1.27,2.56,1.89l.09.07c.52.38,1,.75,1.58,1.12l.91.65,2.47,1.69,1.73,1.13c.58.38,1.16.76,1.74,1.12.85.53,1.69,1.06,2.55,1.58l1,.57c.55.34,1.11.66,1.66,1a.21.21,0,0,1,.1.06l2.77,1.57c.58.32,1.18.65,1.78,1s1.13.61,1.7.91c1.13.59,2.28,1.17,3.42,1.74l1.74.84c1.09.52,2.18,1,3.27,1.52l0,0c.88.39,1.76.78,2.64,1.15l.63.26.81.35,1.53.63c.88.36,1.78.7,2.68,1.05l1.69.65c.44.16.87.32,1.32.47l2.19.78c.94.33,1.88.65,2.84.94,1.32.44,2.66.86,4,1.25,1.14.34,2.29.67,3.45,1a157.55,157.55,0,0,0,15.81,3.42c3.07.51,6.16.92,9.28,1.25,1.18.12,2.37.22,3.56.32a5.35,5.35,0,0,0,.55,0c2.44.2,4.88.33,7.34.4h.13c2.51.08,5,.1,7.57.06a.33.33,0,0,0,.14,0c2.54,0,5.07-.14,7.62-.31h.07c1.28-.08,2.55-.19,3.83-.3l1.92-.18,2.17-.24,1.65-.2,1.79-.23.27,0,1.74-.25,3.36-.54,2-.35c1.38-.25,2.75-.52,4.13-.82s2.75-.59,4.11-.93c.64-.14,1.28-.3,1.92-.47,1.11-.28,2.21-.56,3.3-.87l1.69-.47.26-.07,1.74-.52,1.58-.48c.7-.21,1.4-.43,2.08-.67l1.83-.61c1.22-.41,2.42-.83,3.63-1.28,0,0,0,0,.06,0q3.6-1.3,7.09-2.8a.29.29,0,0,0,.13,0q3.51-1.48,6.9-3.12l.12-.06q3.33-1.59,6.54-3.34c.16-.09.33-.17.49-.27,1.05-.57,2.09-1.14,3.12-1.74q4.08-2.34,8-4.9a158.25,158.25,0,0,0,13.07-9.53c.93-.76,1.84-1.52,2.75-2.29,1.07-.91,2.12-1.83,3.16-2.77.75-.66,1.48-1.32,2.21-2l1.69-1.6c.34-.32.68-.64,1-1l1.28-1.27c.69-.69,1.37-1.36,2-2,.39-.4.77-.79,1.14-1.2l.6-.64c.16-.16.31-.33.47-.5.66-.69,1.3-1.41,1.94-2.12l0,0c.79-.89,1.58-1.79,2.37-2.71l1.25-1.47c.81-1,1.63-2,2.42-3,.4-.5.8-1,1.19-1.52s.83-1.07,1.24-1.6c.63-.85,1.27-1.69,1.89-2.56l.07-.09c.37-.52.75-1,1.12-1.58.22-.29.43-.6.64-.91.57-.82,1.13-1.64,1.69-2.47.39-.57.76-1.15,1.14-1.73Z" transform="translate(-399.5 -576.07)"/><path class="cls-4" d="M1759.38,1330.9c94.49,78.2,107.88,218.18,29.85,312.89s-218,108.33-312.82,30.55l15.63-19c84.48,69.46,209.29,57.36,278.85-27.07s57.57-209.25-26.77-278.88Z" transform="translate(-399.5 -576.07)"/><path class="cls-5" d="M1617.58,1503,1633,1662.27c-1.4.13-2.8.25-4.2.35-.65,0-1.3.09-2,.12-1.14.07-2.27.12-3.41.16l-1.75.06h-.27l-1.81,0-1.66,0c-.73,0-1.46,0-2.18,0l-1.93,0c-1.28,0-2.56-.08-3.84-.14h-.07c-2.54-.12-5.07-.3-7.61-.54a.28.28,0,0,1-.13,0c-2.52-.25-5-.55-7.52-.91h-.13c-2.42-.37-4.84-.77-7.25-1.23a5.17,5.17,0,0,1-.54-.11c-1.17-.23-2.34-.46-3.5-.72q-4.59-1-9.09-2.28a160.26,160.26,0,0,1-15.32-5.17c-1.12-.44-2.22-.9-3.31-1.36-1.29-.54-2.58-1.11-3.85-1.69-.91-.4-1.81-.82-2.71-1.25l-2.09-1-1.26-.63-1.6-.82-2.55-1.35c-.49-.26-1-.53-1.44-.8l-.78-.43-.59-.34c-.83-.46-1.66-1-2.49-1.44a.06.06,0,0,0,0,0c-1-.61-2-1.24-3.08-1.88l-1.62-1c-1.08-.69-2.15-1.4-3.21-2.11-.53-.36-1.07-.72-1.59-1.09s-1.11-.77-1.66-1.16c-.86-.62-1.72-1.24-2.57-1.87l-.1-.07-1.54-1.17c-.3-.22-.59-.44-.89-.68l-2.35-1.84-1.6-1.31Z" transform="translate(-399.5 -576.07)"/><path class="cls-1" d="M1594.47,1661.36c-2.44-.35-4.85-.76-7.25-1.23C1589.63,1660.59,1592.05,1661,1594.47,1661.36Z" transform="translate(-399.5 -576.07)"/><path class="cls-1" d="M1602.12,1662.28q-3.8-.36-7.52-.91C1597.1,1661.73,1599.6,1662,1602.12,1662.28Z" transform="translate(-399.5 -576.07)"/><path class="cls-1" d="M1609.86,1662.83c-2.55-.11-5.08-.29-7.61-.54C1604.79,1662.53,1607.32,1662.71,1609.86,1662.83Z" transform="translate(-399.5 -576.07)"/><path class="cls-5" d="M1617.58,1503l123.48,101.75c-.44.53-.87,1.06-1.32,1.59-.65.76-1.3,1.51-2,2.26-.25.29-.49.57-.74.84l-1.29,1.44-.08.08c-.72.79-1.44,1.56-2.16,2.33l-1.41,1.46-1.35,1.37-2.75,2.69-1.4,1.32c-.89.82-1.77,1.63-2.66,2.43l0,0c-.72.64-1.44,1.28-2.17,1.9l-.52.44-.68.57c-.41.36-.83.71-1.26,1.06-.74.61-1.49,1.2-2.25,1.81l-1.41,1.12-1.12.85-1.85,1.4c-.8.6-1.61,1.18-2.43,1.75-1.13.81-2.28,1.61-3.44,2.39-1,.67-2,1.32-3,2a158.79,158.79,0,0,1-14,8q-4.17,2.12-8.48,4c-1.09.48-2.19.93-3.3,1.38l-.51.21q-3.42,1.36-6.88,2.59l-.12,0c-2.39.83-4.79,1.6-7.21,2.33a.28.28,0,0,1-.13,0q-3.66,1.08-7.37,2h-.06c-1.25.3-2.49.59-3.74.87l-1.89.4c-.71.15-1.42.29-2.14.42-.54.11-1.09.21-1.63.3l-1.78.33a2.23,2.23,0,0,1-.27,0l-1.73.29c-1.12.18-2.24.34-3.38.49l-2,.26c-1.39.17-2.78.32-4.19.46Z" transform="translate(-399.5 -576.07)"/><path class="cls-1" d="M1663.09,1656.42c-2.43.73-4.88,1.39-7.37,2Q1659.43,1657.5,1663.09,1656.42Z" transform="translate(-399.5 -576.07)"/><path class="cls-1" d="M1670.43,1654.05c-2.37.84-4.78,1.61-7.21,2.33C1665.64,1655.65,1668,1654.88,1670.43,1654.05Z" transform="translate(-399.5 -576.07)"/><path class="cls-1" d="M1677.43,1651.42q-3.39,1.39-6.88,2.59Q1674,1652.78,1677.43,1651.42Z" transform="translate(-399.5 -576.07)"/><path class="cls-1" d="M1775.93,1526.11c-.34,2.44-.75,4.85-1.22,7.25C1775.16,1531,1775.57,1528.54,1775.93,1526.11Z" transform="translate(-399.5 -576.07)"/><path class="cls-1" d="M1776.86,1518.47c-.24,2.52-.55,5-.91,7.51Q1776.48,1522.23,1776.86,1518.47Z" transform="translate(-399.5 -576.07)"/><path class="cls-1" d="M1777.41,1510.72c-.11,2.55-.29,5.08-.55,7.61C1777.1,1515.79,1777.28,1513.26,1777.41,1510.72Z" transform="translate(-399.5 -576.07)"/><path class="cls-5" d="M1719.32,1379.52l1.59,1.32,2.27,2,.83.74,1.44,1.29.09.08c.79.72,1.55,1.44,2.33,2.17l1.45,1.4,1.38,1.36c.9.9,1.8,1.82,2.68,2.74l1.33,1.4q1.23,1.33,2.43,2.67l0,0c.64.72,1.27,1.44,1.89,2.17l.44.52c.19.23.39.45.57.68.36.41.71.83,1.06,1.26.61.74,1.21,1.49,1.82,2.25l1.11,1.41.86,1.12c.46.61.93,1.24,1.4,1.85.59.8,1.18,1.61,1.75,2.43.81,1.13,1.61,2.28,2.39,3.45.66,1,1.32,2,2,3a158.88,158.88,0,0,1,8,14q2.1,4.17,4,8.48.71,1.64,1.38,3.3c.08.17.14.34.21.51q1.37,3.42,2.59,6.88a.42.42,0,0,1,0,.12c.83,2.39,1.6,4.79,2.33,7.21a.28.28,0,0,1,0,.13c.72,2.45,1.38,4.9,2,7.37a.14.14,0,0,1,0,.06c.3,1.25.58,2.49.86,3.74.14.64.27,1.26.4,1.89s.3,1.42.43,2.14l.3,1.63c.11.6.21,1.19.32,1.78a2.51,2.51,0,0,1,0,.27c.1.57.19,1.15.28,1.74.18,1.11.35,2.24.5,3.37.09.66.17,1.31.25,2,.18,1.39.33,2.78.46,4.19L1617.58,1503Z" transform="translate(-399.5 -576.07)"/><path class="cls-1" d="M1771,1457.49c.73,2.43,1.4,4.88,2,7.37C1772.37,1462.39,1771.71,1459.94,1771,1457.49Z" transform="translate(-399.5 -576.07)"/><path class="cls-1" d="M1768.63,1450.15c.83,2.37,1.61,4.78,2.33,7.21C1770.23,1454.94,1769.46,1452.54,1768.63,1450.15Z" transform="translate(-399.5 -576.07)"/><path class="cls-1" d="M1766,1443.15q1.38,3.4,2.59,6.88Q1767.36,1446.57,1766,1443.15Z" transform="translate(-399.5 -576.07)"/><path class="cls-5" d="M1776.84,1487.63c.14,1.41.26,2.8.35,4.2,0,.65.09,1.3.13,2,.07,1.14.12,2.27.16,3.41,0,.59,0,1.17,0,1.75a2.53,2.53,0,0,1,0,.27l0,1.81c0,.55,0,1.12,0,1.66,0,.73,0,1.46,0,2.18s0,1.28,0,1.93c0,1.28-.07,2.56-.13,3.84a.16.16,0,0,1,0,.07c-.13,2.54-.31,5.07-.55,7.61a.22.22,0,0,1,0,.14q-.39,3.77-.91,7.51a.51.51,0,0,1,0,.13c-.36,2.43-.77,4.84-1.22,7.25,0,.18-.07.36-.11.54-.23,1.17-.47,2.34-.72,3.5-.68,3.06-1.43,6.09-2.28,9.09a157.58,157.58,0,0,1-5.18,15.32c-.44,1.12-.89,2.22-1.36,3.32-.54,1.28-1.1,2.57-1.68,3.84-.41.91-.82,1.81-1.26,2.71-.33.7-.68,1.4-1,2.09-.2.43-.4.84-.62,1.26s-.55,1.08-.83,1.6c-.45.86-.89,1.71-1.35,2.55-.26.49-.52,1-.8,1.44-.13.27-.28.52-.43.78s-.21.39-.33.59c-.47.84-1,1.66-1.44,2.49l0,0c-.61,1-1.23,2-1.87,3.08-.35.54-.69,1.09-1,1.62-.69,1.08-1.4,2.16-2.12,3.21-.36.53-.72,1.07-1.09,1.59s-.77,1.11-1.16,1.66c-.62.87-1.23,1.72-1.87,2.57a.33.33,0,0,0-.06.1c-.39.51-.77,1-1.17,1.54-.22.3-.45.59-.68.89-.61.79-1.23,1.57-1.85,2.35-.43.54-.87,1.07-1.31,1.61L1617.58,1503Z" transform="translate(-399.5 -576.07)"/><path class="cls-6" d="M1744.12,1349.42c84.34,69.63,96.34,194.45,26.77,278.88s-194.37,96.53-278.85,27.07l23.8-28.88,1.6,1.31,2.35,1.84c.3.24.59.46.89.68l1.54,1.17.1.07c.85.63,1.71,1.25,2.57,1.87.55.39,1.1.78,1.66,1.16s1.06.73,1.59,1.09c1.06.71,2.13,1.42,3.21,2.11l1.62,1c1,.64,2.06,1.27,3.08,1.88a.06.06,0,0,1,0,0c.83.49,1.66,1,2.49,1.44l.59.34.78.43c.47.27,1,.54,1.44.8l2.55,1.35,1.6.82,1.26.63,2.09,1c.9.43,1.8.85,2.71,1.25,1.27.58,2.56,1.15,3.85,1.69,1.09.46,2.19.92,3.31,1.36a160.26,160.26,0,0,0,15.32,5.17q4.5,1.27,9.09,2.28c1.16.26,2.33.49,3.5.72a5.17,5.17,0,0,0,.54.11c2.4.47,4.81.88,7.25,1.23h.13q3.72.56,7.52.91a.28.28,0,0,0,.13,0c2.53.25,5.06.43,7.61.54h.07c1.28.06,2.56.11,3.84.14l1.93,0c.72,0,1.45,0,2.18,0l1.66,0,1.81,0h.27l1.75-.06c1.14,0,2.27-.09,3.41-.16.67,0,1.32-.08,2-.12,1.4-.1,2.8-.22,4.2-.35s2.8-.29,4.19-.46l2-.26c1.14-.15,2.26-.31,3.38-.49l1.73-.29a2.23,2.23,0,0,0,.27,0l1.78-.33c.54-.09,1.09-.19,1.63-.3.72-.13,1.43-.27,2.14-.42l1.89-.4c1.25-.28,2.49-.57,3.74-.87h.06c2.49-.6,4.94-1.26,7.37-2a.28.28,0,0,0,.13,0c2.43-.72,4.84-1.49,7.21-2.33l.12,0q3.5-1.2,6.88-2.59l.51-.21c1.11-.45,2.21-.9,3.3-1.38q4.32-1.86,8.48-4a158.79,158.79,0,0,0,14-8c1-.65,2-1.3,3-2,1.16-.78,2.31-1.58,3.44-2.39.82-.57,1.63-1.15,2.43-1.75l1.85-1.4,1.12-.85,1.41-1.12c.76-.61,1.51-1.2,2.25-1.81.43-.35.85-.7,1.26-1.06l.68-.57.52-.44c.73-.62,1.45-1.26,2.17-1.9l0,0c.89-.8,1.77-1.61,2.66-2.43l1.4-1.32,2.75-2.69,1.35-1.37,1.41-1.46c.72-.77,1.44-1.54,2.16-2.33l.08-.08,1.29-1.44c.25-.27.49-.55.74-.84.66-.75,1.31-1.5,2-2.26.45-.53.88-1.06,1.32-1.59s.88-1.07,1.31-1.61c.62-.78,1.24-1.56,1.85-2.35.23-.3.46-.59.68-.89.4-.51.78-1,1.17-1.54a.33.33,0,0,1,.06-.1c.64-.85,1.25-1.7,1.87-2.57.39-.55.78-1.1,1.16-1.66s.73-1.06,1.09-1.59c.72-1,1.43-2.13,2.12-3.21.34-.53.68-1.08,1-1.62.64-1,1.26-2.06,1.87-3.08l0,0c.49-.83,1-1.65,1.44-2.49.12-.2.22-.4.33-.59s.3-.51.43-.78c.28-.47.54-.95.8-1.44.46-.84.9-1.69,1.35-2.55.28-.52.55-1.06.83-1.6s.42-.83.62-1.26c.34-.69.69-1.39,1-2.09.44-.9.85-1.8,1.26-2.71.58-1.27,1.14-2.56,1.68-3.84.47-1.1.92-2.2,1.36-3.32a157.58,157.58,0,0,0,5.18-15.32c.85-3,1.6-6,2.28-9.09.25-1.16.49-2.33.72-3.5,0-.18.07-.36.11-.54.47-2.4.88-4.81,1.22-7.25a.51.51,0,0,0,0-.13c.36-2.48.67-5,.91-7.51a.22.22,0,0,0,0-.14c.26-2.53.44-5.06.55-7.61a.16.16,0,0,0,0-.07c.06-1.28.1-2.56.13-3.84,0-.65,0-1.29,0-1.93s0-1.45,0-2.18c0-.54,0-1.11,0-1.66l0-1.81a2.53,2.53,0,0,0,0-.27c0-.58,0-1.16,0-1.75,0-1.14-.09-2.27-.16-3.41,0-.67-.08-1.32-.13-2-.09-1.4-.21-2.79-.35-4.2s-.28-2.8-.46-4.19c-.08-.65-.16-1.3-.25-2-.15-1.13-.32-2.26-.5-3.37-.09-.59-.18-1.17-.28-1.74a2.51,2.51,0,0,0,0-.27c-.11-.59-.21-1.18-.32-1.78l-.3-1.63c-.13-.72-.27-1.43-.43-2.14s-.26-1.25-.4-1.89c-.28-1.25-.56-2.49-.86-3.74a.14.14,0,0,0,0-.06c-.59-2.49-1.26-4.94-2-7.37a.28.28,0,0,0,0-.13c-.72-2.43-1.5-4.84-2.33-7.21a.42.42,0,0,0,0-.12q-1.21-3.48-2.59-6.88c-.07-.17-.13-.34-.21-.51q-.68-1.67-1.38-3.3-1.86-4.3-4-8.48a158.88,158.88,0,0,0-8-14c-.64-1-1.3-2-2-3-.78-1.17-1.58-2.32-2.39-3.45-.57-.82-1.16-1.63-1.75-2.43-.47-.61-.94-1.24-1.4-1.85l-.86-1.12-1.11-1.41c-.61-.76-1.21-1.51-1.82-2.25-.35-.43-.7-.85-1.06-1.26-.18-.23-.38-.45-.57-.68l-.44-.52c-.62-.73-1.25-1.45-1.89-2.17l0,0q-1.2-1.34-2.43-2.67l-1.33-1.4c-.88-.92-1.78-1.84-2.68-2.74l-1.38-1.36-1.45-1.4c-.78-.73-1.54-1.45-2.33-2.17l-.09-.08-1.44-1.29-.83-.74-2.27-2-1.59-1.32Z" transform="translate(-399.5 -576.07)"/><path class="cls-4" d="M1444,1425.55c-5.61,122.52-109.36,217.44-232,212.1s-217.7-108.93-212.63-231.48l24.56,1.07c-4.65,109.27,80.1,201.68,189.4,206.44s201.77-79.92,206.64-189.18Z" transform="translate(-399.5 -576.07)"/><path class="cls-5" d="M1221.18,1415.84l-118,108.1c-1-1-1.89-2.08-2.8-3.14q-.64-.73-1.29-1.5c-.74-.87-1.46-1.75-2.18-2.63-.37-.45-.74-.91-1.1-1.37l-.17-.2-1.11-1.43-1-1.32c-.45-.58-.88-1.16-1.31-1.75l-1.13-1.56c-.74-1-1.48-2.09-2.2-3.15a.1.1,0,0,1,0-.05q-2.14-3.15-4.15-6.41a.26.26,0,0,1-.07-.11q-2-3.24-3.8-6.55l-.07-.11c-1.16-2.16-2.29-4.33-3.37-6.53a3.85,3.85,0,0,1-.24-.5c-.53-1.07-1-2.15-1.53-3.23q-2-4.28-3.65-8.62a161.48,161.48,0,0,1-5.09-15.36c-.32-1.16-.62-2.31-.91-3.46-.34-1.36-.66-2.73-1-4.09-.23-1-.44-1.94-.63-2.92l-.45-2.28c-.09-.47-.18-.92-.26-1.38l-.3-1.78c-.16-1-.32-1.9-.46-2.85-.08-.55-.16-1.09-.22-1.63,0-.3-.09-.59-.13-.88l-.09-.67c-.13-1-.23-1.91-.34-2.86a.11.11,0,0,0,0,0c-.13-1.19-.25-2.38-.35-3.59-.06-.64-.11-1.29-.16-1.92-.1-1.27-.18-2.56-.24-3.83,0-.65-.07-1.29-.09-1.93s0-1.35-.07-2c0-1.07,0-2.12,0-3.18a.49.49,0,0,0,0-.12v-1.93c0-.37,0-.74,0-1.12l.06-3c0-.69,0-1.38.08-2.07Z" transform="translate(-399.5 -576.07)"/><path class="cls-1" d="M1080.79,1492.66c-1.18-2.16-2.31-4.33-3.37-6.53C1078.5,1488.33,1079.63,1490.5,1080.79,1492.66Z" transform="translate(-399.5 -576.07)"/><path class="cls-1" d="M1084.66,1499.32c-1.33-2.16-2.6-4.35-3.8-6.55Q1082.69,1496.09,1084.66,1499.32Z" transform="translate(-399.5 -576.07)"/><path class="cls-1" d="M1088.88,1505.84q-2.18-3.15-4.15-6.41Q1086.74,1502.69,1088.88,1505.84Z" transform="translate(-399.5 -576.07)"/><path class="cls-5" d="M1221.18,1415.84l-7,159.84-2.07-.1c-1-.06-2-.12-3-.2l-1.11-.08-1.93-.17H1206l-3.16-.33-2-.25-1.91-.25c-1.26-.18-2.53-.37-3.8-.58l-1.89-.32c-1.2-.21-2.38-.44-3.55-.67h0c-.94-.19-1.88-.38-2.81-.59l-.67-.15-.86-.2c-.54-.11-1.07-.24-1.61-.37-.93-.22-1.86-.46-2.8-.7l-1.74-.46-1.36-.38-2.23-.64c-1-.28-1.91-.57-2.85-.88q-2-.63-4-1.32c-1.12-.38-2.25-.78-3.37-1.2a157.69,157.69,0,0,1-14.86-6.41q-4.18-2.06-8.27-4.38c-1-.59-2.06-1.19-3.09-1.81-.16-.08-.32-.18-.48-.28q-3.14-1.9-6.2-3.93a.38.38,0,0,1-.11-.08q-3.15-2.12-6.19-4.35a.23.23,0,0,1-.11-.09c-2-1.52-4-3.07-6-4.68a.1.1,0,0,1,0,0c-1-.82-2-1.64-2.94-2.47l-1.46-1.27c-.55-.47-1.09-1-1.63-1.45l-1.22-1.13-1.33-1.22-.19-.19-1.27-1.22c-.82-.79-1.62-1.58-2.43-2.4q-.71-.7-1.38-1.41c-1-1-1.93-2-2.89-3.07Z" transform="translate(-399.5 -576.07)"/><path class="cls-1" d="M1126,1544.49c-2-1.5-4-3-6-4.68C1122,1541.42,1124,1543,1126,1544.49Z" transform="translate(-399.5 -576.07)"/><path class="cls-1" d="M1132.33,1548.93c-2.09-1.39-4.16-2.84-6.19-4.35Q1129.19,1546.82,1132.33,1548.93Z" transform="translate(-399.5 -576.07)"/><path class="cls-1" d="M1138.64,1552.94q-3.14-1.87-6.2-3.93Q1135.5,1551,1138.64,1552.94Z" transform="translate(-399.5 -576.07)"/><path class="cls-1" d="M1298,1556.22q-3.23,1.79-6.52,3.38Q1294.78,1558,1298,1556.22Z" transform="translate(-399.5 -576.07)"/><path class="cls-1" d="M1304.67,1552.36c-2.16,1.33-4.35,2.59-6.55,3.8C1300.33,1554.93,1302.51,1553.67,1304.67,1552.36Z" transform="translate(-399.5 -576.07)"/><path class="cls-1" d="M1311.19,1548.14c-2.11,1.45-4.24,2.83-6.41,4.14C1307,1551,1309.08,1549.57,1311.19,1548.14Z" transform="translate(-399.5 -576.07)"/><path class="cls-5" d="M1381,1422.8c0,.69-.06,1.38-.1,2.07-.06,1-.13,2-.2,3,0,.38,0,.75-.09,1.12-.05.65-.1,1.29-.16,1.93a.5.5,0,0,0,0,.12c-.09,1-.21,2.1-.33,3.15-.07.67-.15,1.35-.24,2s-.17,1.27-.26,1.91c-.17,1.26-.37,2.53-.57,3.79l-.33,1.9c-.21,1.19-.43,2.38-.66,3.55a.11.11,0,0,0,0,.05c-.19.94-.39,1.88-.6,2.81,0,.23-.1.45-.14.67s-.13.57-.2.86c-.12.53-.24,1.07-.37,1.6-.22.94-.46,1.87-.71,2.81-.14.57-.3,1.15-.45,1.74s-.25.9-.38,1.35l-.64,2.24c-.28,1-.57,1.9-.88,2.85-.42,1.33-.86,2.67-1.32,4-.39,1.12-.79,2.25-1.21,3.37a160.08,160.08,0,0,1-6.4,14.85q-2.05,4.2-4.38,8.28c-.59,1-1.2,2.06-1.81,3.09-.09.16-.18.32-.28.47-1.27,2.1-2.59,4.17-3.94,6.21l-.07.11c-1.41,2.1-2.86,4.15-4.35,6.19a.48.48,0,0,1-.09.11q-2.28,3.06-4.69,6a.1.1,0,0,1,0,0c-.81,1-1.63,2-2.47,2.94-.42.5-.84,1-1.26,1.46s-1,1.09-1.45,1.63-.75.82-1.13,1.22l-1.23,1.33-.19.19c-.4.42-.8.85-1.21,1.27q-1.18,1.22-2.4,2.43l-1.41,1.38c-1,1-2,1.93-3.07,2.88l-108.11-118Z" transform="translate(-399.5 -576.07)"/><path class="cls-1" d="M1349.84,1511q-2.25,3.06-4.69,6Q1347.57,1514.05,1349.84,1511Z" transform="translate(-399.5 -576.07)"/><path class="cls-1" d="M1354.28,1504.69c-1.39,2.09-2.84,4.16-4.35,6.19C1351.42,1508.84,1352.87,1506.79,1354.28,1504.69Z" transform="translate(-399.5 -576.07)"/><path class="cls-1" d="M1358.29,1498.37c-1.25,2.1-2.57,4.17-3.94,6.21C1355.7,1502.54,1357,1500.47,1358.29,1498.37Z" transform="translate(-399.5 -576.07)"/><path class="cls-5" d="M1329.29,1533.79c-1,1-2.09,1.9-3.15,2.81-.49.43-1,.86-1.49,1.29-.88.74-1.75,1.46-2.63,2.17l-1.37,1.11-.21.17-1.43,1.11-1.31,1c-.58.44-1.16.88-1.75,1.3l-1.56,1.14c-1.05.74-2.09,1.48-3.15,2.2a.1.1,0,0,1,0,0c-2.11,1.43-4.24,2.81-6.41,4.14a.28.28,0,0,1-.11.08c-2.16,1.31-4.34,2.57-6.55,3.8l-.12.06q-3.23,1.76-6.52,3.38a4.59,4.59,0,0,1-.5.24c-1.08.52-2.15,1-3.23,1.53q-4.27,2-8.63,3.65a161.29,161.29,0,0,1-15.35,5.09c-1.16.32-2.31.62-3.47.91-1.35.34-2.72.66-4.08,1-1,.23-1.94.44-2.92.63l-2.28.44-1.39.26-1.77.31-2.85.45c-.55.09-1.09.17-1.64.23l-.87.12-.68.09c-.94.13-1.9.24-2.85.35h-.06c-1.18.13-2.38.25-3.58.35l-1.92.16c-1.28.09-2.56.18-3.84.24l-1.92.09-2,.07c-1.06,0-2.11,0-3.17,0h-2c-.38,0-.75,0-1.13,0-1,0-2,0-3-.06l-2.06-.08,7-159.84Z" transform="translate(-399.5 -576.07)"/><path class="cls-6" d="M1420,1424.5c-4.87,109.26-97.34,194-206.64,189.18s-194-97.17-189.4-206.44l37.38,1.63c0,.69-.06,1.38-.08,2.07l-.06,3c0,.38,0,.75,0,1.12V1417a.49.49,0,0,1,0,.12c0,1.06,0,2.11,0,3.18,0,.67,0,1.35.07,2s0,1.28.09,1.93c.06,1.27.14,2.56.24,3.83,0,.63.1,1.28.16,1.92.1,1.21.22,2.4.35,3.59a.11.11,0,0,1,0,0c.11,1,.21,1.91.34,2.86l.09.67c0,.29.08.58.13.88.06.54.14,1.08.22,1.63.14.95.3,1.89.46,2.85l.3,1.78c.08.46.17.91.26,1.38l.45,2.28c.19,1,.4,2,.63,2.92.3,1.36.62,2.73,1,4.09.29,1.15.59,2.3.91,3.46a161.48,161.48,0,0,0,5.09,15.36q1.68,4.35,3.65,8.62c.49,1.08,1,2.16,1.53,3.23a3.85,3.85,0,0,0,.24.5c1.06,2.2,2.19,4.37,3.37,6.53l.07.11c1.2,2.2,2.47,4.39,3.8,6.55a.26.26,0,0,0,.07.11q2,3.25,4.15,6.41a.1.1,0,0,0,0,.05c.72,1.06,1.46,2.11,2.2,3.15l1.13,1.56c.43.59.86,1.17,1.31,1.75l1,1.32,1.11,1.43.17.2c.36.46.73.92,1.1,1.37.72.88,1.44,1.76,2.18,2.63q.64.77,1.29,1.5c.91,1.06,1.85,2.1,2.8,3.14s1.92,2.07,2.89,3.07q.67.71,1.38,1.41c.81.82,1.61,1.61,2.43,2.4l1.27,1.22.19.19,1.33,1.22,1.22,1.13c.54.49,1.08,1,1.63,1.45l1.46,1.27c1,.83,1.94,1.65,2.94,2.47a.1.1,0,0,0,0,0c2,1.63,4,3.18,6,4.68a.23.23,0,0,0,.11.09c2,1.51,4.1,3,6.19,4.35a.38.38,0,0,0,.11.08q3.06,2.06,6.2,3.93c.16.1.32.2.48.28,1,.62,2.05,1.22,3.09,1.81q4.08,2.33,8.27,4.38a157.69,157.69,0,0,0,14.86,6.41c1.12.42,2.25.82,3.37,1.2q2,.69,4,1.32c.94.31,1.89.6,2.85.88l2.23.64,1.36.38,1.74.46c.94.24,1.87.48,2.8.7.54.13,1.07.26,1.61.37l.86.2.67.15c.93.21,1.87.4,2.81.59h0c1.17.23,2.35.46,3.55.67l1.89.32c1.27.21,2.54.4,3.8.58l1.91.25,2,.25,3.16.33h.12l1.93.17,1.11.08c1,.08,2,.14,3,.2l2.07.1,2.06.08c1,0,2,0,3,.06.38,0,.75,0,1.13,0h2c1.06,0,2.11,0,3.17,0l2-.07,1.92-.09c1.28-.06,2.56-.15,3.84-.24l1.92-.16c1.2-.1,2.4-.22,3.58-.35h.06c1-.11,1.91-.22,2.85-.35l.68-.09.87-.12c.55-.06,1.09-.14,1.64-.23l2.85-.45,1.77-.31,1.39-.26,2.28-.44c1-.19,2-.4,2.92-.63,1.36-.3,2.73-.62,4.08-1,1.16-.29,2.31-.59,3.47-.91a161.29,161.29,0,0,0,15.35-5.09q4.35-1.68,8.63-3.65c1.08-.49,2.15-1,3.23-1.53a4.59,4.59,0,0,0,.5-.24q3.3-1.59,6.52-3.38l.12-.06c2.2-1.21,4.39-2.47,6.55-3.8a.28.28,0,0,0,.11-.08c2.17-1.31,4.3-2.69,6.41-4.14a.1.1,0,0,0,0,0c1.06-.72,2.1-1.46,3.15-2.2l1.56-1.14c.59-.42,1.17-.86,1.75-1.3l1.31-1,1.43-1.11.21-.17,1.37-1.11c.88-.71,1.75-1.43,2.63-2.17.51-.43,1-.86,1.49-1.29,1.06-.91,2.11-1.85,3.15-2.81s2.06-1.91,3.07-2.88l1.41-1.38q1.21-1.21,2.4-2.43c.41-.42.81-.85,1.21-1.27l.19-.19,1.23-1.33c.38-.4.76-.82,1.13-1.22s1-1.08,1.45-1.63.84-1,1.26-1.46c.84-1,1.66-2,2.47-2.94a.1.1,0,0,0,0,0q2.44-3,4.69-6a.48.48,0,0,0,.09-.11c1.51-2,3-4.1,4.35-6.19l.07-.11c1.37-2,2.69-4.11,3.94-6.21.1-.15.19-.31.28-.47.61-1,1.22-2.05,1.81-3.09q2.32-4.08,4.38-8.28a160.08,160.08,0,0,0,6.4-14.85c.42-1.12.82-2.25,1.21-3.37.46-1.32.9-2.66,1.32-4,.31-1,.6-1.89.88-2.85l.64-2.24c.13-.45.26-.9.38-1.35s.31-1.17.45-1.74c.25-.94.49-1.87.71-2.81.13-.53.25-1.07.37-1.6.07-.29.13-.58.2-.86s.09-.44.14-.67c.21-.93.41-1.87.6-2.81a.11.11,0,0,1,0-.05c.23-1.17.45-2.36.66-3.55l.33-1.9c.2-1.26.4-2.53.57-3.79.09-.64.18-1.28.26-1.91s.17-1.35.24-2c.12-1.05.24-2.1.33-3.15a.5.5,0,0,1,0-.12c.06-.64.11-1.28.16-1.93,0-.37.06-.74.09-1.12.07-1,.14-2,.2-3,0-.69.07-1.38.1-2.07Z" transform="translate(-399.5 -576.07)"/></g><g id="Layer_7" data-name="Layer 7"><path class="cls-1" d="M1072.22,2306.31A1284.65,1284.65,0,0,0,1122,2522q39.29-52,51.66-105.77" transform="translate(-399.5 -576.07)"/><path class="cls-1" d="M1619.68,2408.12c36.94,42.17,86,79.15,140.32,113.88" transform="translate(-399.5 -576.07)"/><path class="cls-1" d="M1286.4,2440.3c16,24.9,29.66,52.38,41.6,81.7a549.6,549.6,0,0,1,8.83-86.57" transform="translate(-399.5 -576.07)"/><path class="cls-1" d="M784,2479c52.09-63.16,63.67-151.58,56-252,58.8,56.05,96.16,108.64,95,155,4.85-79.73,29.38-140.35,62.93-192.2" transform="translate(-399.5 -576.07)"/></g></svg>