<svg xmlns="http://www.w3.org/2000/svg" viewBox="0 0 2179 1863.38"><defs><style>.cls-1{fill:none;}.cls-1,.cls-2,.cls-3,.cls-4,.cls-5,.cls-6,.cls-7,.cls-8,.cls-9{stroke:#000;stroke-linecap:round;stroke-linejoin:round;stroke-width:20px;}.cls-2{fill:#ff7d7d;}.cls-3{fill:#edcc9f;}.cls-4{fill:#fff;}.cls-5{fill:#c1a584;}.cls-6{fill:#bc5e5e;}.cls-7{fill:#6fa05d;}.cls-8{fill:#6b8096;}.cls-9{fill:#aa9b5c;}</style></defs><title>PicnicBasket</title><g id="Layer_4" data-name="Layer 4"><path class="cls-1" d="M491.5,2133.5c5.32-80.71,29-138.63,66-180-1.92,91,44.8,191.36,114,296,31.66-74.11,43.76-146.47,24-216,33.42,11,55.64,34.6,69,68,5.94-20.68,12.65-36.16,18.09-45.77" transform="translate(-481.5 -590.12)"/><path class="cls-1" d="M2310.52,1791.86c21-41.73,47-60.75,72-68.36-29.05,97.1-24,203.87,0,316,63.53-52.58,103.12-114.68,112-189,17.81,21.61,33.53,46,44,78,45.77-51.67,67.9-112.06,75-178,15.31,18.69,29.67,38.83,37,67" transform="translate(-481.5 -590.12)"/><path class="cls-1" d="M1205,1011c1.38-46.73,39-117,96-159,8.78,96.48,46.5,171.35,122,218-2.61-54,12.77-107.09,55-159,16,80,67.07,130.44,144,159,88.9-92.76,127.93-193.68,134-300,37.7,63.09,59.17,129.63,39,205,48.69-37.21,81.16-84,88-146,34.49,46,56,94.12,56,146-4.7-79.41,20.22-152.15,58-222,8.45,114,41.67,202.78,108,258,17.12-71.52,52.56-134.71,123-182-40.07,137.24-3.66,263.24,48,387,78-47.94,122.35-134.45,158-231,15.67,35.73,22,74,14,109" transform="translate(-481.5 -590.12)"/></g><g id="Layer_6" data-name="Layer 6"><path class="cls-2" d="M1743.21,1578.36q-3.56,12.3-8.15,24.42-3.86,10.23-8.42,20.31a473.77,473.77,0,0,1-63.49-16.43c-3.63-6.4-7.71-12.92-12.1-19.44-6.87-10.16-14.52-20.35-22.56-30.11-25.18-30.67-54-57.4-73.31-67.46.27-.13.54-.28.81-.44,51.29-21.7,178.94-9.1,199.61-22.46A326.7,326.7,0,0,1,1743.21,1578.36Z" transform="translate(-481.5 -590.12)"/><path class="cls-3" d="M2298.59,1707.18l-81.32-15.07-5,27-9.11,49.17-9.1,49.16-9.11,49.17-9.11,49.16-4.73,25.56-400.19-74.13,4.74-25.57,9.1-49.16,9.11-49.16,9.11-49.17,9.1-49.16,5-27-82-15.2q-3.86,10.23-8.42,20.31a473.77,473.77,0,0,1-63.49-16.43c12.26,21.59,19.49,41.89,17.38,56.7,0,0-11.87-7.28-24.4-5.53-14.67,2-25.29,27.51-27.84,37.18,0,1.15,0,2.29,0,3.42-.77.92-.73-.55,0-3.42-.38-39-24.13-88.45-49-121.09l-137.09-25.4c-35,21.55-74.84,59.19-89.17,95.48-.33,3-.82,4.35-1.21,3.21.38-1.07.78-2.14,1.21-3.21,1.08-9.93.29-37.52-12.68-44.68-11.07-6.12-24.76-3.57-24.76-3.57,3.33-14.59,17.36-31,36.54-46.72a472.45,472.45,0,0,1-65.16-7.4q-.66-11.06-.59-22L726,1415.84a35.21,35.21,0,0,0-41.45,31c-47.61,458.61,83.73,758,463.13,836.86l1,.2,41.38,7.67a561.93,561.93,0,0,1,43.51-105c1.48,37.91,9.87,77.16,24.56,117.63l109.65,20.31a178.72,178.72,0,0,1,19.65-21.79,203,203,0,0,1,23.7-19.16l4.89-26.38,9.11-49.17,5.1-27.53,368.73,68.3-5.1,27.54-7.1,38.29q7,6.57,14.08,13.85h0c10.53,10.79,21.21,22.68,32,35.47q24.74-5.35,48.29-13c13.56-77.57,46.74-153.48,91.42-228.4-3,64.57-1.63,126.47,18.79,176.93,150.51-94.67,257.18-274.08,327.86-523h0q3.58-12.63,7-25.49A35.2,35.2,0,0,0,2298.59,1707.18Zm-1167.95,196-37.37-6.92-49.16-9.11L995,1878.07,945.79,1869l-49.17-9.1-38.35-7.11,40.44-218.28,38.35,7.1,49.16,9.11,49.17,9.11,49.16,9.1,49.16,9.11,37.37,6.92Z" transform="translate(-481.5 -590.12)"/><path class="cls-4" d="M1353,1644c-.33,3-.82,4.35-1.21,3.21C1352.15,1646.14,1352.55,1645.07,1353,1644Z" transform="translate(-481.5 -590.12)"/><path class="cls-4" d="M1628.27,1698.43c-.77.92-.73-.55,0-3.42C1628.3,1696.16,1628.29,1697.3,1628.27,1698.43Z" transform="translate(-481.5 -590.12)"/><path class="cls-5" d="M1627,1411.4c-.36.57-.69,1.16-1,1.75q-22,33.49-41.84,53.61a119.27,119.27,0,0,0-29.06,22.84,116.59,116.59,0,0,0-60.26-11.34,118.47,118.47,0,0,0-18-30.46q-11.55-26.7-19.86-67.9Z" transform="translate(-481.5 -590.12)"/><line class="cls-1" x1="1145.53" y1="821.28" x2="1145.49" y2="821.28"/><line class="cls-1" x1="975.48" y1="789.78" x2="975.42" y2="789.77"/><path class="cls-2" d="M1476.84,1447.8c-49.08-61-151.81-78.49-161-62.51a327,327,0,0,0-28.41,108.64L730.75,1390.8A38.59,38.59,0,0,1,699.94,1346l16.59-89.55a38.56,38.56,0,0,1,44.82-30.81l664.77,123.15a38.61,38.61,0,0,1,30.58,29.72h0q.12.6.24,1.17c0,.08,0,.16,0,.24Q1465.26,1421.07,1476.84,1447.8Z" transform="translate(-481.5 -590.12)"/><path class="cls-4" d="M1494.82,1478.46c-.27,0-.54.06-.81.11l.11-.26.55,0A1.39,1.39,0,0,0,1494.82,1478.46Z" transform="translate(-481.5 -590.12)"/><path class="cls-2" d="M2362.52,1561.34l-16.59,89.56a38.57,38.57,0,0,1-44.82,30.81l-557.9-103.35a326.7,326.7,0,0,0,12.39-111.61c-2.8-18.09-103.78-38.43-171.46,0q19.84-20.13,41.84-53.61c.32-.59.65-1.18,1-1.75a38.59,38.59,0,0,1,40-18l664.77,123.15A38.57,38.57,0,0,1,2362.52,1561.34Z" transform="translate(-481.5 -590.12)"/><path class="cls-2" d="M1545.43,1541.72c-21.84.07-42.14-3.2-60.37-11l.19-.11-.79-.15a120.31,120.31,0,0,1,9.55-51.85c.27,0,.54-.08.81-.11h.09l-.09-.2a116.59,116.59,0,0,1,60.26,11.34.45.45,0,0,1,0,.11A106.44,106.44,0,0,1,1545.43,1541.72Z" transform="translate(-481.5 -590.12)"/><path class="cls-4" d="M1494.91,1478.46h-.09c-.27,0-.54.06-.81.11l.11-.26.55,0h.15Z" transform="translate(-481.5 -590.12)"/><path class="cls-4" d="M1485.25,1530.57l-.19.11a.46.46,0,0,1-.14-.07h0l-.45-.19Z" transform="translate(-481.5 -590.12)"/><path class="cls-6" d="M1755.6,1466.75c-20.67,13.36-148.32.76-199.61,22.46l-.91.39a119.27,119.27,0,0,1,29.06-22.84C1651.82,1428.32,1752.8,1448.66,1755.6,1466.75Z" transform="translate(-481.5 -590.12)"/><path class="cls-2" d="M1680.53,1663.36s-11.87-7.28-24.4-5.53c-14.67,2-25.29,27.51-27.84,37.18-.38-39-24.13-88.45-49-121.09-3.22-4.22-6.45-8.16-9.67-11.74-8.55-9.6-16.9-16.79-24.14-20.46a106.44,106.44,0,0,0,9.66-52l.09-.06c19.31,10.06,48.13,36.79,73.31,67.46,8,9.76,15.69,20,22.56,30.11,4.39,6.52,8.47,13,12.1,19.44C1675.41,1628.25,1682.64,1648.55,1680.53,1663.36Z" transform="translate(-481.5 -590.12)"/><path class="cls-1" d="M1628.27,1698.43c-.77.92-.73-.55,0-3.42C1628.3,1696.16,1628.29,1697.3,1628.27,1698.43Z" transform="translate(-481.5 -590.12)"/><path class="cls-1" d="M1555.18,1489.65l-.1-.05" transform="translate(-481.5 -590.12)"/><path class="cls-2" d="M1494.67,1478.27l-.55,0-.11.26c-21.71,2.73-57.75,17.24-91.83,36.61-11,6.24-21.79,13-31.84,20-6.44,4.51-12.58,9.14-18.26,13.81a472.45,472.45,0,0,1-65.16-7.4q-.66-11.06-.59-22,.06-12.95,1.14-25.72a327,327,0,0,1,28.41-108.64c14.55,19.92,138.72,54,178.57,92.72l0,0A1.55,1.55,0,0,0,1494.67,1478.27Z" transform="translate(-481.5 -590.12)"/><path class="cls-1" d="M1494.91,1478.46l-.2-.19" transform="translate(-481.5 -590.12)"/><path class="cls-6" d="M1494.82,1478.26h-.11a2.61,2.61,0,0,1-.23-.24l0,0c-39.85-38.73-164-72.8-178.57-92.72,9.15-16,111.88,1.5,161,62.51A118.47,118.47,0,0,1,1494.82,1478.26Z" transform="translate(-481.5 -590.12)"/><path class="cls-2" d="M1484.91,1530.61c-8,.9-18.27,4.6-29.53,10.41-4.28,2.2-8.72,4.72-13.23,7.5-35,21.55-74.84,59.19-89.17,95.48,1.08-9.93.29-37.52-12.68-44.68-11.07-6.12-24.76-3.57-24.76-3.57,3.33-14.59,17.36-31,36.54-46.72,5.68-4.67,11.82-9.3,18.26-13.81,10.05-7,20.84-13.8,31.84-20,34.08-19.37,70.12-33.88,91.83-36.61a120.31,120.31,0,0,0-9.55,51.85Z" transform="translate(-481.5 -590.12)"/><path class="cls-1" d="M1485.25,1530.57l-.33,0h0" transform="translate(-481.5 -590.12)"/><path class="cls-1" d="M1351.77,1647.21c.38-1.07.78-2.14,1.21-3.21C1352.65,1647,1352.16,1648.35,1351.77,1647.21Z" transform="translate(-481.5 -590.12)"/><rect class="cls-3" x="725.76" y="1231.3" width="723" height="28" rx="14" ry="14" transform="translate(-236.47 -767.33) rotate(10.5)"/><rect class="cls-3" x="1656.91" y="1403.8" width="723" height="28" rx="14" ry="14" transform="translate(-189.47 -934.06) rotate(10.5)"/><path class="cls-5" d="M1620.57,1377.66q-36.91-4.4-74.16-11.41-35.54-6.64-71.37-15.55c3.39-33.86,8.63-65.28,17.13-92.43q10.85,1,21.94,2.36,9.63,1.17,19.46,2.65,3.14.46,6.31,1,36,5.64,74.51,15,11.53,2.81,23.3,6C1635.37,1316.29,1629.36,1347.07,1620.57,1377.66Z" transform="translate(-481.5 -590.12)"/><path class="cls-3" d="M1729,660.42l-.18,1-118.93,82,18.82-101.56a51,51,0,0,1,88.71-24.09,48.3,48.3,0,0,1,3.46,4.49A50.78,50.78,0,0,1,1729,660.42Z" transform="translate(-481.5 -590.12)"/><polygon class="cls-3" points="1247.35 71.28 1236.42 130.28 1117.49 212.28 1128.42 153.28 1247.35 71.28"/><polygon class="cls-3" points="1236.42 130.28 1225.49 189.28 1106.57 271.27 1117.49 212.28 1236.42 130.28"/><polygon class="cls-3" points="1225.49 189.28 1214.56 248.27 1095.64 330.27 1106.57 271.27 1225.49 189.28"/><polygon class="cls-3" points="1214.56 248.27 1202.72 312.18 1083.8 394.18 1095.64 330.27 1214.56 248.27"/><polygon class="cls-3" points="1202.72 312.18 1191.79 371.18 1072.87 453.18 1083.8 394.18 1202.72 312.18"/><polygon class="cls-3" points="1191.79 371.18 1180.86 430.18 1061.94 512.17 1072.87 453.18 1191.79 371.18"/><polygon class="cls-3" points="1180.86 430.18 1169.93 489.17 1051.01 571.17 1061.94 512.17 1180.86 430.18"/><polygon class="cls-3" points="1169.93 489.17 1159.01 548.17 1040.08 630.17 1051.01 571.17 1169.93 489.17"/><path class="cls-3" d="M1640.5,1138.29l-10.92,59-96,66q-9.83-1.47-19.46-2.65l7.47-40.34Z" transform="translate(-481.5 -590.12)"/><path class="cls-3" d="M1629.58,1197.28l-15.19,82q-38.49-9.39-74.51-15-3.18-.51-6.31-1Z" transform="translate(-481.5 -590.12)"/><line class="cls-1" x1="1014.99" y1="765.59" x2="1032.61" y2="670.51"/><line class="cls-1" x1="1115.28" y1="784.17" x2="1132.89" y2="689.16"/><line class="cls-1" x1="1082.74" y1="679.87" x2="1064.9" y2="776.14"/><line class="cls-1" x1="1108.47" y1="684.64" x2="1090.87" y2="779.65"/><line class="cls-1" x1="1058.41" y1="673.95" x2="1040.41" y2="769.28"/><line class="cls-1" x1="1008.98" y1="798.02" x2="997.78" y2="858.49"/><line class="cls-1" x1="1109.28" y1="816.6" x2="1098.07" y2="877.07"/><line class="cls-1" x1="1059.06" y1="807.69" x2="1043.92" y2="889.41"/><line class="cls-1" x1="1084.79" y1="812.46" x2="1069.66" y2="894.18"/><line class="cls-1" x1="1034.73" y1="801.77" x2="1019.01" y2="884.8"/><line class="cls-1" x1="1052.07" y1="673.16" x2="1051.35" y2="673.66"/><line class="cls-1" x1="1139.52" y1="94.17" x2="1236.14" y2="27.51"/><rect class="cls-7" x="903.68" y="1630.34" width="222" height="277" transform="translate(-1390.9 1854.22) rotate(-79.5)"/><path class="cls-8" d="M1798.89,2248.71l-5.1,27.54-7.1,38.29c-36.52-34.33-71-53.94-102.19-50,10.59,45.14,3.15,81.7-20.84,110.08q-34.41-2.46-70.62-8.39l-174.11-32.26a187.3,187.3,0,0,1-5-26.35,211.84,211.84,0,0,1-1.44-25.08l-1.44,1,4.89-26.38,9.11-49.17,5.1-27.53Z" transform="translate(-481.5 -590.12)"/><rect class="cls-9" x="1867.34" y="1576.17" width="253.5" height="407" transform="translate(-600.54 2826.11) rotate(-79.5)"/><line class="cls-1" x1="420.59" y1="1240.24" x2="408.93" y2="1303.17"/><line class="cls-1" x1="469.75" y1="1249.35" x2="458.09" y2="1312.28"/><line class="cls-1" x1="518.91" y1="1258.46" x2="507.26" y2="1321.39"/><line class="cls-1" x1="568.08" y1="1267.56" x2="556.42" y2="1330.49"/><line class="cls-1" x1="617.24" y1="1276.67" x2="605.58" y2="1339.6"/><line class="cls-1" x1="461.21" y1="1020.97" x2="449.55" y2="1083.9"/><line class="cls-1" x1="510.37" y1="1030.08" x2="498.71" y2="1093.01"/><line class="cls-1" x1="559.53" y1="1039.19" x2="547.88" y2="1102.12"/><line class="cls-1" x1="608.7" y1="1048.29" x2="597.04" y2="1111.22"/><line class="cls-1" x1="657.86" y1="1057.4" x2="646.2" y2="1120.33"/><line class="cls-1" x1="976.99" y1="1624.01" x2="914.06" y2="1612.35"/><line class="cls-1" x1="967.88" y1="1673.18" x2="904.95" y2="1661.52"/><line class="cls-1" x1="905.86" y1="1712.53" x2="895.85" y2="1710.68"/><line class="cls-1" x1="958.77" y1="1722.34" x2="932.44" y2="1717.46"/><line class="cls-1" x1="1342.77" y1="1691.77" x2="1279.84" y2="1680.12"/><line class="cls-1" x1="1333.66" y1="1740.94" x2="1319.28" y2="1738.28"/><line class="cls-1" x1="1362.04" y1="1060.73" x2="1299.11" y2="1049.07"/><line class="cls-1" x1="1352.93" y1="1109.89" x2="1290" y2="1098.23"/><line class="cls-1" x1="1343.82" y1="1159.05" x2="1280.89" y2="1147.4"/><line class="cls-1" x1="1334.71" y1="1208.22" x2="1271.78" y2="1196.56"/><line class="cls-1" x1="1325.61" y1="1257.38" x2="1262.68" y2="1245.72"/><line class="cls-1" x1="1762.23" y1="1134.86" x2="1699.3" y2="1123.21"/><line class="cls-1" x1="1753.12" y1="1184.03" x2="1690.19" y2="1172.37"/><line class="cls-1" x1="1744.01" y1="1233.19" x2="1681.08" y2="1221.53"/><line class="cls-1" x1="1734.9" y1="1282.35" x2="1671.98" y2="1270.7"/><line class="cls-1" x1="1725.8" y1="1331.52" x2="1662.87" y2="1319.86"/></g><g id="Layer_7" data-name="Layer 7"><path class="cls-1" d="M1258.06,2304.13c16.32,45,40.43,91.52,71.44,139.37,1.31-49.64,15-88.53,38.21-119.06" transform="translate(-481.5 -590.12)"/><path class="cls-1" d="M1832.79,2363.87c13.72,16.24,27.64,33.92,41.71,52.63a443.74,443.74,0,0,1,6.58-65.6" transform="translate(-481.5 -590.12)"/><path class="cls-1" d="M1991.29,2299.43c11.36,28.06,28.59,52.58,54.21,72.07,17.61-30,38-52.44,65-57-.32,40.26,43.78,68.26,107,91" transform="translate(-481.5 -590.12)"/><path class="cls-1" d="M1418.93,2333.93c10.84,40.81,35.94,77.72,79.57,109.57,79.07-10.64,135.11-33.35,165.16-68.92" transform="translate(-481.5 -590.12)"/><path class="cls-1" d="M1190,2291.52c-10,33.82-17.55,71.31-21.49,114" transform="translate(-481.5 -590.12)"/></g></svg>