<svg xmlns="http://www.w3.org/2000/svg" viewBox="0 0 2312.22 1925"><defs><style>.cls-1{fill:none}.cls-1,.cls-10,.cls-11,.cls-12,.cls-13,.cls-14,.cls-2,.cls-3,.cls-4,.cls-5,.cls-6,.cls-7,.cls-8,.cls-9{stroke:#000;stroke-linecap:round;stroke-linejoin:round;stroke-width:25px}.cls-2{fill:#dbb15d}.cls-3{fill:#e0c7b1}.cls-4{fill:#ffa2c2}.cls-5{fill:#ed3e3e}.cls-6{fill:#d7aa00}.cls-7{fill:#46a83b}.cls-8{fill:#aaa}.cls-9{fill:#6d5530}.cls-10{fill:#fae8ba}.cls-11{fill:#8c4000}.cls-12{fill:#997844}.cls-13{fill:#ff9200}.cls-14{fill:#ff9573}</style></defs><title>Sandwiches</title><g id="Layer_6" data-name="Layer 6"><path d="M306,1233c-3-136.43,24.72-254.93,72-362,9.05,104.27,43.78,192.92,137,246,4.63-25.13,3-64,39-99,10,81.47,59.58,151,128,215,57.69-108.25,83.51-229.12,79-362,27.83,39.25,43,94.36,33,181,49.8-58.06,78.61-143.57,96-244,20.58,99,35.28,193,41,279,5.4-45.79,22.43-84.74,56-114,2.15,97.36,41,89,101,152,24.69-100.88,52.4-119.13,56-206,23.44,18.5,36.08,44.7,43,75,30-29.36,39.8-77.11,45-129,33,48.61,49.72,120.41,56,207,11-44.25,27.86-82.18,56-108-7.71,40,6.87,88.67,31,141-9.14-75.26,12.84-150.21,53-225,3.21,93.22,36.59,166.92,108,216,63.63-43.61,97.06-110.06,110-192,11.8,44.19,17.87,89.84,14,138,31.78-39.33,48-91,55-150,52.57,54.72,86.79,129.33,118,234" class="cls-1" transform="translate(-293.28 -572.5)"/><path d="M1066,1751c-3-136.43,24.72-254.93,72-362,9,104.27,43.78,192.92,137,246,4.63-25.13,3-64,39-99,10,81.47,59.58,151,128,215,57.69-108.25,83.51-229.12,79-362,27.83,39.25,43,94.36,33,181,49.8-58.06,78.61-143.57,96-244,20.58,99,35.28,193,41,279,5.4-45.79,22.43-84.74,56-114,2.15,97.36,51,167,111,230,24.69-100.88,42.4-197.13,46-284,23.44,18.5,36.08,44.7,43,75,30-29.36,39.8-77.11,45-129,33,48.61,49.72,120.41,56,207,11-44.25,27.86-82.18,56-108-7.71,40,6.87,88.67,31,141-9.14-75.26,12.84-150.21,53-225,3.21,93.22,36.59,166.92,108,216,63.63-43.61,97.06-110.06,110-192,11.8,44.19,17.87,89.84,14,138,31.78-39.33,47.95-91,55-150,52.57,54.72,86.79,152.33,118,257" class="cls-1" transform="translate(-293.28 -572.5)"/></g><g id="Layer_9" data-name="Layer 9"><path d="M705,2218.5V2338H680.89A14.89,14.89,0,0,1,666,2323.11v-89.72a14.89,14.89,0,0,1,14.89-14.89Z" class="cls-2" transform="translate(-293.28 -572.5)"/><path d="M705,2218.5l444.13-.14c-7,17.67-14,37.36-21.87,60.14-6.11,17.78-12.73,37.44-20.24,59.5-23.74-6.72-37.87-28.07-45.37-59.5a237.79,237.79,0,0,1-5.15-32c-.69-6.88-1.17-14.06-1.48-21.5q-4.63,10.53-8.2,21.5a280.14,280.14,0,0,0-8.32,32,432.35,432.35,0,0,0-7.24,59.5H705Z" class="cls-3" transform="translate(-293.28 -572.5)"/><path d="M1526.11,2218.24c-5.74,8.93-11.24,18.46-16.45,28.26-5.59,10.5-10.85,21.31-15.72,32-9.81,21.49-18,42.49-24.28,59.5h-27c-7.6-18-17.14-40.65-27.21-59.5-7.35-13.79-15-25.56-22.33-32a23.12,23.12,0,0,0-7.09-4.5c.11,1.5.19,3,.23,4.5a100.11,100.11,0,0,1-4.42,32,130.48,130.48,0,0,1-12.41,28,197.73,197.73,0,0,1-23.16,31.5h-95.65a215,215,0,0,1-29.8-31.5,175,175,0,0,1-17.57-28,163.92,163.92,0,0,1-16.78-60.15Z" class="cls-3" transform="translate(-293.28 -572.5)"/><path d="M1764.48,2218.17A317,317,0,0,1,1737,2246.5a269,269,0,0,1-106.34,60l-1.7.5-.84-.5c-13.76-8.2-24.38-17.61-32.44-28a99.22,99.22,0,0,1-16.53-32,128,128,0,0,1-5.17-28.27Z" class="cls-3" transform="translate(-293.28 -572.5)"/><path d="M2288.27,2218v120H1892.58a191.62,191.62,0,0,0,15.42-49c-44.25,30.31-91,48.82-144,38a218.86,218.86,0,0,0,10.83-20.5,181.52,181.52,0,0,0,16.39-60,174.06,174.06,0,0,0,.25-28.34Z" class="cls-3" transform="translate(-293.28 -572.5)"/><path d="M1149.25,2218c0,.11-.09.23-.13.35l-444.14.14H666v-.5Z" class="cls-1" transform="translate(-293.28 -572.5)"/><path d="M1526.26,2218l-.14.22-339.69.11c0-.11,0-.22,0-.33Z" class="cls-1" transform="translate(-293.28 -572.5)"/><path d="M1574,2218h190.61l-.13.15-190.47.06A1.48,1.48,0,0,1,1574,2218Z" class="cls-1" transform="translate(-293.28 -572.5)"/><path d="M2226.5,2218l-435,.14a.66.66,0,0,1,0-.14Z" class="cls-1" transform="translate(-293.28 -572.5)"/><path d="M2326,2232.69v90.62a14.68,14.68,0,0,1-14.69,14.69h-23V2218h23A14.68,14.68,0,0,1,2326,2232.69Z" class="cls-2" transform="translate(-293.28 -572.5)"/><polyline points="411.7 1645.5 411.7 1645.99 411.7 1646" class="cls-1"/><path d="M2323,1795.54v90.92a14.54,14.54,0,0,1-14.54,14.54h-23.19V1781h23.19A14.54,14.54,0,0,1,2323,1795.54Z" class="cls-2" transform="translate(-293.28 -572.5)"/><rect width="1583.29" height="120" x="408.7" y="1208.5" class="cls-3"/><path d="M702,1781v120H677.62A14.63,14.63,0,0,1,663,1886.38v-90.76A14.63,14.63,0,0,1,677.62,1781Z" class="cls-2" transform="translate(-293.28 -572.5)"/><path d="M1190.63,2138.5a329.23,329.23,0,0,0-23.27,39H720.22a17.72,17.72,0,0,1-17.72-17.72v-3.56a17.72,17.72,0,0,1,17.72-17.72Z" class="cls-4" transform="translate(-293.28 -572.5)"/><path d="M2400.5,2186.86a17.71,17.71,0,0,1-25.34,16c-33.9-16.18-70-25.14-108.66-25.35H1575.39q.69-5.72,1.61-11.5a75.85,75.85,0,0,0-17.33,11.5H1187.38a254.91,254.91,0,0,1,8.09-39h1071c45.27-.17,87.89,8.84,126,33.51A17.67,17.67,0,0,1,2400.5,2186.86Z" class="cls-4" transform="translate(-293.28 -572.5)"/><path d="M1149.25,2218c0,.11-.09.23-.13.35l-444.14.14H666v-.5Z" class="cls-1" transform="translate(-293.28 -572.5)"/><path d="M1526.26,2218l-.14.22-339.69.11c0-.11,0-.22,0-.33Z" class="cls-1" transform="translate(-293.28 -572.5)"/><path d="M1574,2218h190.61l-.13.15-190.47.06A1.48,1.48,0,0,1,1574,2218Z" class="cls-1" transform="translate(-293.28 -572.5)"/><path d="M2226.5,2218l-435,.14a.66.66,0,0,1,0-.14Z" class="cls-1" transform="translate(-293.28 -572.5)"/><path d="M662.5,2179.5h503.85c-6,11.94-11.55,24.59-17.1,38.5H666v.5h-3.5c-38.69.21-74.76,9.17-108.66,25.35a17.72,17.72,0,0,1-17.3-30.84C574.61,2188.34,617.23,2179.33,662.5,2179.5Z" class="cls-4" transform="translate(-293.28 -572.5)"/><path d="M1557.41,2179.5c-10.92,9.92-21.38,23.32-31.15,38.5H1186.41a195.39,195.39,0,0,1,.73-38.5Z" class="cls-4" transform="translate(-293.28 -572.5)"/><path d="M2226.5,2197.22v3.06a17.72,17.72,0,0,1-17.72,17.72H1791.46a189.27,189.27,0,0,0-4.46-29q-10.62,15.21-22.38,29H1574a205.12,205.12,0,0,1,1.14-38.5h633.63A17.72,17.72,0,0,1,2226.5,2197.22Z" class="cls-4" transform="translate(-293.28 -572.5)"/><path d="M2141.5,2079.31v26.38a30.8,30.8,0,0,1-30.81,30.81H1196.05q1.38-4.73,3-9.5-3.62,4.76-7,9.5H779.31a30.8,30.8,0,0,1-30.81-30.81v-26.38a30.8,30.8,0,0,1,30.81-30.81H2110.69A30.8,30.8,0,0,1,2141.5,2079.31Z" class="cls-5" transform="translate(-293.28 -572.5)"/><rect width="1399" height="39" x="411.22" y="1437" class="cls-6" rx="19.5" ry="19.5"/><rect width="1399" height="39" x="503.22" y="1397" class="cls-6" rx="19.5" ry="19.5"/><path d="M1125.5,1932.5a24.1,24.1,0,0,1-24,24c-8.29.15-16.86,2.4-25.63,6.28-18.41,8.64-36.63,8.83-54.65,0-27.28-13.46-47.63-8.38-66.73,0-20,8.51-41.79,8.89-65.67.23-.41-.15-.82-.31-1.23-.49-23.76-10.1-47.24-9.92-70.43-.19-.71.3-1.4.65-2.08,1-13.38,7-29.4,7.26-46.7,4.16a24.21,24.21,0,0,1-19.93-23.82h0a24.26,24.26,0,0,1,27-24c14.75,1.57,30.59-.36,43.32-7.42,16.74-10.16,48.63-8.48,67.34-.41.63.27,1.24.58,1.85.91,21.56,11.7,43.25,11.5,65.07-.17.4-.22.79-.45,1.17-.68,18.53-11.27,45.58-12.13,65.84-.26.68.4,1.33.86,2,1.32,15.25,11,32,10.58,50.16-.14.63-.37,1.25-.79,1.85-1.22,10.63-7.63,21.38-9.92,32.22-7.73a24.14,24.14,0,0,1,19.24,23.69Z" class="cls-7" transform="translate(-293.28 -572.5)"/><path d="M1194.5,1937.84a24.1,24.1,0,0,1,24-23.94c8.29-.15,16.86-2.4,25.63-6.29,18.41-8.64,36.63-8.83,54.65,0,27.28,13.47,47.63,8.39,66.73,0,20-8.5,41.79-8.88,65.67-.23.41.15.82.32,1.23.49,23.76,10.1,47.24,9.93,70.43.19.71-.29,1.4-.64,2.08-1,13.38-7,29.4-7.26,46.7-4.15a24.2,24.2,0,0,1,19.93,23.82h0a24.25,24.25,0,0,1-27,24c-14.75-1.56-30.59.37-43.32,7.42-16.74,10.17-48.63,8.49-67.34.42-.63-.27-1.24-.59-1.85-.92-21.56-11.69-43.25-11.5-65.07.18-.4.21-.79.44-1.17.68-18.53,11.27-45.58,12.13-65.84.25-.68-.4-1.33-.85-2-1.31-15.25-11-32-10.58-50.16.13-.63.38-1.25.8-1.85,1.23-10.63,7.62-21.38,9.92-32.22,7.72a24.12,24.12,0,0,1-19.24-23.68Z" class="cls-7" transform="translate(-293.28 -572.5)"/><path d="M1802.5,1937.84a24.1,24.1,0,0,1,24-23.94c8.29-.15,16.86-2.4,25.63-6.29,18.41-8.64,36.63-8.83,54.65,0,27.28,13.47,47.63,8.39,66.73,0,20-8.5,41.79-8.88,65.67-.23.41.15.82.32,1.23.49,23.76,10.1,47.24,9.93,70.43.19.71-.29,1.4-.64,2.08-1,13.38-7,29.4-7.26,46.7-4.15a24.2,24.2,0,0,1,19.93,23.82h0a24.25,24.25,0,0,1-27,24c-14.75-1.56-30.59.37-43.32,7.42-16.74,10.17-48.63,8.49-67.34.42-.63-.27-1.24-.59-1.85-.92-21.56-11.69-43.25-11.5-65.07.18-.4.21-.79.44-1.17.68-18.53,11.27-45.58,12.13-65.84.25-.68-.4-1.33-.85-2-1.31-15.25-11-32-10.58-50.16.13-.63.38-1.25.8-1.85,1.23-10.63,7.62-21.38,9.92-32.22,7.72a24.12,24.12,0,0,1-19.24-23.68Z" class="cls-7" transform="translate(-293.28 -572.5)"/><path d="M765,1621.5V1741h-24.4A14.58,14.58,0,0,1,726,1726.42v-90.34a14.58,14.58,0,0,1,14.58-14.58Z" class="cls-8" transform="translate(-293.28 -572.5)"/><polygon points="2054.99 1048.5 2054.99 1168.5 471.7 1168.5 471.7 1049 1918.22 1049 1918.22 1048.5 2054.99 1048.5" class="cls-9"/><rect width="1485.5" height=".5" x="432.72" y="1048.5" class="cls-1"/><path d="M2386,1635.8v90.4a14.79,14.79,0,0,1-14.8,14.8h-22.93V1621h22.93A14.79,14.79,0,0,1,2386,1635.8Z" class="cls-8" transform="translate(-293.28 -572.5)"/><line x1="471.7" x2="471.7" y1="1049" y2="1048.5" class="cls-1"/><rect width="1701" height="39" x="317.22" y="966" class="cls-10" rx="19.5" ry="19.5"/><rect width="1583.29" height="120" x="468.7" y="611.5" class="cls-9"/><path d="M762,1184v120H737.11A14.11,14.11,0,0,1,723,1289.89v-91.78A14.11,14.11,0,0,1,737.11,1184Z" class="cls-8" transform="translate(-293.28 -572.5)"/><path d="M2383,1199.14v89.72a15.14,15.14,0,0,1-15.14,15.14h-22.59V1184h22.59A15.14,15.14,0,0,1,2383,1199.14Z" class="cls-8" transform="translate(-293.28 -572.5)"/><rect width="39" height="1564" x="1410" y="817" class="cls-10" rx="19.5" ry="19.5" transform="translate(-464.22 2454.39) rotate(-89.94)"/><rect width="1393" height="88" x="569.22" y="811" class="cls-5" rx="30.04" ry="30.04"/><rect width="1399" height="39" x="525.22" y="772" class="cls-11" rx="19.5" ry="19.5"/><path d="M1326.5,1501.5a24.1,24.1,0,0,1-24,24c-8.29.15-16.86,2.4-25.63,6.28-18.41,8.64-36.63,8.83-54.65,0-27.28-13.46-47.63-8.38-66.73,0-20,8.51-41.79,8.89-65.67.23-.41-.15-.82-.31-1.23-.49-23.76-10.1-47.24-9.92-70.43-.19-.71.3-1.4.65-2.08,1-13.38,7-29.4,7.26-46.7,4.16a24.21,24.21,0,0,1-19.93-23.82h0a24.26,24.26,0,0,1,27-24c14.75,1.57,30.59-.36,43.32-7.42,16.74-10.16,48.63-8.48,67.34-.41.63.27,1.24.58,1.85.91,21.56,11.7,43.25,11.5,65.07-.17.4-.22.79-.45,1.17-.68,18.53-11.27,45.58-12.13,65.84-.26.68.4,1.33.86,2,1.32,15.25,11,32,10.58,50.16-.14.63-.37,1.25-.79,1.85-1.22,10.63-7.63,21.38-9.92,32.22-7.73a24.14,24.14,0,0,1,19.24,23.69Z" class="cls-7" transform="translate(-293.28 -572.5)"/><path d="M1409.5,1508.84a24.1,24.1,0,0,1,24-23.94c8.29-.15,16.86-2.4,25.63-6.29,18.41-8.64,36.63-8.83,54.65,0,27.28,13.47,47.63,8.39,66.73,0,20-8.5,41.79-8.88,65.67-.23.41.15.82.32,1.23.49,23.76,10.1,47.24,9.93,70.43.19.71-.29,1.4-.64,2.08-1,13.38-7,29.4-7.26,46.7-4.15a24.2,24.2,0,0,1,19.93,23.82h0a24.25,24.25,0,0,1-27,24c-14.75-1.56-30.59.37-43.32,7.42-16.74,10.17-48.63,8.49-67.34.42-.63-.27-1.24-.59-1.85-.92-21.56-11.69-43.25-11.5-65.07.18-.4.21-.79.44-1.17.68-18.53,11.27-45.58,12.13-65.84.25-.68-.4-1.33-.85-2-1.31-15.25-11-32-10.58-50.16.13-.63.38-1.25.8-1.85,1.23-10.63,7.62-21.38,9.92-32.22,7.72a24.12,24.12,0,0,1-19.24-23.68Z" class="cls-7" transform="translate(-293.28 -572.5)"/><path d="M1815.5,1508.84a24.1,24.1,0,0,1,24-23.94c8.29-.15,16.86-2.4,25.63-6.29,18.41-8.64,36.63-8.83,54.65,0,27.28,13.47,47.63,8.39,66.73,0,20-8.5,41.79-8.88,65.67-.23.41.15.82.32,1.23.49,23.76,10.1,47.24,9.93,70.43.19.71-.29,1.4-.64,2.08-1,13.38-7,29.4-7.26,46.7-4.15a24.2,24.2,0,0,1,19.93,23.82h0a24.25,24.25,0,0,1-27,24c-14.75-1.56-30.59.37-43.32,7.42-16.74,10.17-48.63,8.49-67.34.42-.63-.27-1.24-.59-1.85-.92-21.56-11.69-43.25-11.5-65.07.18-.4.21-.79.44-1.17.68-18.53,11.27-45.58,12.13-65.84.25-.68-.4-1.33-.85-2-1.31-15.25-11-32-10.58-50.16.13-.63.38-1.25.8-1.85,1.23-10.63,7.62-21.38,9.92-32.22,7.72a24.12,24.12,0,0,1-19.24-23.68Z" class="cls-7" transform="translate(-293.28 -572.5)"/><path d="M605,1022.5V1142H580.69A14.69,14.69,0,0,1,566,1127.31v-90.12a14.69,14.69,0,0,1,14.69-14.69Z" class="cls-12" transform="translate(-293.28 -572.5)"/><polygon points="1894.99 449.5 1894.99 569.5 311.7 569.5 311.7 450 1833.22 449.5 1894.99 449.5" class="cls-2"/><path d="M2226,1036.43v91.14a14.43,14.43,0,0,1-14.43,14.43h-23.3V1022h23.3A14.43,14.43,0,0,1,2226,1036.43Z" class="cls-12" transform="translate(-293.28 -572.5)"/><line x1="311.7" x2="311.7" y1="450" y2="449.5" class="cls-1"/><path d="M602,585V705H577.49A14.49,14.49,0,0,1,563,690.51v-91A14.49,14.49,0,0,1,577.49,585Z" class="cls-12" transform="translate(-293.28 -572.5)"/><rect width="1583.29" height="120" x="308.7" y="12.5" class="cls-2"/><path d="M2223,599.31v91.38A14.31,14.31,0,0,1,2208.69,705h-23.42V585h23.42A14.31,14.31,0,0,1,2223,599.31Z" class="cls-12" transform="translate(-293.28 -572.5)"/><rect width="1564" height="39" x="366.22" y="174" class="cls-13" rx="19.5" ry="19.5"/><rect width="1393" height="87.5" x="293.22" y="362" class="cls-5" rx="29.65" ry="29.65"/><line x1="293.22" x2="293.22" y1="450" y2="449.5" class="cls-1"/><rect width="1399" height="39" x="311.22" y="323" class="cls-14" rx="19.5" ry="19.5"/><rect width="1399" height="39" x="403.22" y="283" class="cls-14" rx="19.5" ry="19.5"/><path d="M1025.5,818.5a24.1,24.1,0,0,1-24,24c-8.29.15-16.86,2.4-25.63,6.28-18.41,8.64-36.63,8.83-54.65,0-27.28-13.46-47.63-8.38-66.73,0-20,8.51-41.79,8.89-65.67.23-.41-.15-.82-.31-1.23-.49-23.76-10.1-47.24-9.92-70.43-.19-.71.3-1.4.65-2.08,1-13.38,7-29.4,7.26-46.7,4.16a24.21,24.21,0,0,1-19.93-23.82h0a24.26,24.26,0,0,1,27-24c14.75,1.57,30.59-.36,43.32-7.42,16.74-10.16,48.63-8.48,67.34-.41.63.27,1.24.58,1.85.91,21.56,11.7,43.25,11.5,65.07-.17.4-.22.79-.45,1.17-.68,18.53-11.27,45.58-12.13,65.84-.26.68.4,1.33.86,2,1.32,15.25,11,32,10.58,50.16-.14.63-.37,1.25-.79,1.85-1.22,10.63-7.63,21.38-9.92,32.22-7.73a24.14,24.14,0,0,1,19.24,23.69Z" class="cls-7" transform="translate(-293.28 -572.5)"/><path d="M1184.5,823.84a24.1,24.1,0,0,1,24-23.94c8.29-.15,16.86-2.4,25.63-6.29,18.41-8.64,36.63-8.83,54.65,0,27.28,13.47,47.63,8.39,66.73,0,20-8.5,41.79-8.88,65.67-.23.41.15.82.32,1.23.49,23.76,10.1,47.24,9.93,70.43.19.71-.29,1.4-.64,2.08-1,13.38-7,29.4-7.26,46.7-4.15a24.2,24.2,0,0,1,19.93,23.82h0a24.25,24.25,0,0,1-27,24c-14.75-1.56-30.59.37-43.32,7.42-16.74,10.17-48.63,8.49-67.34.42-.63-.27-1.24-.59-1.85-.92-21.56-11.69-43.25-11.5-65.07.18-.4.21-.79.44-1.17.68-18.53,11.27-45.58,12.13-65.84.25-.68-.4-1.33-.85-2-1.31-15.25-11-32-10.58-50.16.13-.63.38-1.25.8-1.85,1.23-10.63,7.62-21.38,9.92-32.22,7.72a24.12,24.12,0,0,1-19.24-23.68Z" class="cls-7" transform="translate(-293.28 -572.5)"/><path d="M1702.5,823.84a24.1,24.1,0,0,1,24-23.94c8.29-.15,16.86-2.4,25.63-6.29,18.41-8.64,36.63-8.83,54.65,0,27.28,13.47,47.63,8.39,66.73,0,20-8.5,41.79-8.88,65.67-.23.41.15.82.32,1.23.49,23.76,10.1,47.24,9.93,70.43.19.71-.29,1.4-.64,2.08-1,13.38-7,29.4-7.26,46.7-4.15a24.2,24.2,0,0,1,19.93,23.82h0a24.25,24.25,0,0,1-27,24c-14.75-1.56-30.59.37-43.32,7.42-16.74,10.17-48.63,8.49-67.34.42-.63-.27-1.24-.59-1.85-.92-21.56-11.69-43.25-11.5-65.07.18-.4.21-.79.44-1.17.68-18.53,11.27-45.58,12.13-65.84.25-.68-.4-1.33-.85-2-1.31-15.25-11-32-10.58-50.16.13-.63.38-1.25.8-1.85,1.23-10.63,7.62-21.38,9.92-32.22,7.72a24.12,24.12,0,0,1-19.24-23.68Z" class="cls-7" transform="translate(-293.28 -572.5)"/><path d="M2149.5,1322.22v3.56a17.72,17.72,0,0,1-17.72,17.72H750.5c-38.69.21-74.76,9.17-108.66,25.35a17.71,17.71,0,0,1-25.34-16h0a17.67,17.67,0,0,1,8-14.85c38.07-24.67,80.69-33.68,126-33.51H2131.78A17.72,17.72,0,0,1,2149.5,1322.22Z" class="cls-11" transform="translate(-293.28 -572.5)"/><path d="M731.5,596.5A36,36,0,1,1,661.37,585h68.26A36.14,36.14,0,0,1,731.5,596.5Z" class="cls-1" transform="translate(-293.28 -572.5)"/><circle cx="593.22" cy="101" r="10" class="cls-1"/><path d="M2357.5,753.86h0a17.71,17.71,0,0,1-25.34,16c-33.9-16.18-70-25.14-108.66-25.35H679A19.5,19.5,0,0,1,659.5,725h0A19.5,19.5,0,0,1,679,705.5H2223.5c45.27-.17,87.89,8.84,126,33.51A17.67,17.67,0,0,1,2357.5,753.86Z" class="cls-13" transform="translate(-293.28 -572.5)"/><path d="M1097.5,678a45.27,45.27,0,0,1-8.88,27c-.12.17-.25.34-.38.5h-72.48c-.13-.16-.26-.33-.38-.5a45.5,45.5,0,1,1,82.12-27Z" class="cls-1" transform="translate(-293.28 -572.5)"/><circle cx="968.72" cy="65.5" r="20.5" class="cls-1"/><path d="M1477.5,601a40.5,40.5,0,1,1-77.71-16h74.42A40.26,40.26,0,0,1,1477.5,601Z" class="cls-1" transform="translate(-293.28 -572.5)"/><path d="M1678.82,744.5c-.38.68-.77,1.34-1.18,2H1563.36c-.41-.66-.8-1.32-1.18-2Z" class="cls-1" transform="translate(-293.28 -572.5)"/><path d="M1687.23,705.5H1553.78a4,4,0,0,1,0-.5,67,67,0,0,1,133.36,0C1687.2,705.16,1687.22,705.33,1687.23,705.5Z" class="cls-1" transform="translate(-293.28 -572.5)"/><circle cx="1472.22" cy="55" r="10" class="cls-1"/><path d="M1947.5,613a52.5,52.5,0,1,1-96.92-28h88.84A52.22,52.22,0,0,1,1947.5,613Z" class="cls-1" transform="translate(-293.28 -572.5)"/><circle cx="1772.22" cy="83" r="28" class="cls-1"/><path d="M2185.27,627.82v45.36a22.21,22.21,0,0,1-3.77.32,23,23,0,0,1,0-46A22.21,22.21,0,0,1,2185.27,627.82Z" class="cls-1" transform="translate(-293.28 -572.5)"/><circle cx="410.22" cy="496" r="11" class="cls-1"/><path d="M630.5,1137a45.84,45.84,0,0,1-.27,5H605v-46.51A46.51,46.51,0,0,1,630.5,1137Z" class="cls-1" transform="translate(-293.28 -572.5)"/><circle cx="743.22" cy="511" r="30" class="cls-1"/><path d="M1227.5,1045a42.5,42.5,0,1,1-78.56-22.5c.1-.17.21-.33.32-.5h71.48c.11.17.22.33.32.5A42.27,42.27,0,0,1,1227.5,1045Z" class="cls-1" transform="translate(-293.28 -572.5)"/><circle cx="1049.22" cy="531" r="16" class="cls-1"/><path d="M1497.5,1126.61a33.92,33.92,0,0,1-2.78,13.47c-.28.65-.58,1.29-.91,1.92h-65.62c-.33-.63-.63-1.27-.91-1.92a33.92,33.92,0,0,1-2.78-13.47c0-19.39,16.34-35.11,36.5-35.11S1497.5,1107.22,1497.5,1126.61Z" class="cls-1" transform="translate(-293.28 -572.5)"/><circle cx="1305.22" cy="496" r="23" class="cls-1"/><circle cx="1487.22" cy="511" r="43" class="cls-1"/><circle cx="1654.72" cy="503.5" r="18.5" class="cls-1"/><circle cx="1817.22" cy="516" r="31" class="cls-1"/><path d="M886.5,1115.23a45.52,45.52,0,0,1-7.33,24.82c-.42.66-.86,1.32-1.33,2H799.16c-.47-.63-.91-1.29-1.33-2a45.52,45.52,0,0,1-7.33-24.82c0-25.81,21.49-46.73,48-46.73S886.5,1089.42,886.5,1115.23Z" class="cls-1" transform="translate(-293.28 -572.5)"/><line x1="449.22" x2="731.22" y1="1240" y2="1240" class="cls-1"/><line x1="569.22" x2="845.22" y1="1269" y2="1269" class="cls-1"/><line x1="512.22" x2="731.22" y1="1300" y2="1300" class="cls-1"/><line x1="885.22" x2="1103.22" y1="1240" y2="1240" class="cls-1"/><line x1="832.22" x2="1260.22" y1="1300" y2="1300" class="cls-1"/><line x1="1033.22" x2="1325.22" y1="1268" y2="1268" class="cls-1"/><line x1="1432.22" x2="1698.22" y1="1268" y2="1268" class="cls-1"/><line x1="1305.22" x2="1482.22" y1="1300" y2="1300" class="cls-1"/><line x1="1670.22" x2="1962.22" y1="1240" y2="1240" class="cls-1"/><line x1="1810.22" x2="1918.22" y1="1268" y2="1268" class="cls-1"/><line x1="1630.22" x2="1864.22" y1="1300" y2="1300" class="cls-1"/><line x1="1289.22" x2="1522.22" y1="1240" y2="1240" class="cls-1"/><line x1="1957.22" x2="1675.22" y1="1734" y2="1734" class="cls-1"/><line x1="1837.22" x2="1561.22" y1="1705" y2="1705" class="cls-1"/><line x1="1894.22" x2="1675.22" y1="1674" y2="1674" class="cls-1"/><line x1="1521.22" x2="1481.55" y1="1734" y2="1734" class="cls-1"/><line x1="1216.38" x2="1146.22" y1="1674" y2="1674" class="cls-1"/><line x1="1574.22" x2="1497.94" y1="1674" y2="1674" class="cls-1"/><line x1="1443.76" x2="1285.91" y1="1674" y2="1674" class="cls-1"/><line x1="1088.53" x2="1081.22" y1="1706" y2="1706" class="cls-1"/><line x1="1373.22" x2="1302.44" y1="1706" y2="1706" class="cls-1"/><line x1="1200.66" x2="1122.14" y1="1706" y2="1706" class="cls-1"/><line x1="745.2" x2="708.22" y1="1706" y2="1706" class="cls-1"/><line x1="833.96" x2="768.35" y1="1706" y2="1706" class="cls-1"/><line x1="974.22" x2="909.94" y1="1706" y2="1706" class="cls-1"/><line x1="1092.95" x2="924.22" y1="1674" y2="1674" class="cls-1"/><line x1="1101.22" x2="1099.81" y1="1674" y2="1674" class="cls-1"/><line x1="736.22" x2="444.22" y1="1734" y2="1734" class="cls-1"/><line x1="596.22" x2="488.22" y1="1706" y2="1706" class="cls-1"/><line x1="753.52" x2="542.22" y1="1674" y2="1674" class="cls-1"/><line x1="776.22" x2="763.2" y1="1674" y2="1674" class="cls-1"/><line x1="1074.72" x2="928.72" y1="1734" y2="1734" class="cls-1"/></g><g id="Layer_7" data-name="Layer 7"><path d="M1250.59,2338q23.31,20.31,55.41,38a340.31,340.31,0,0,0,40.24-38" class="cls-1" transform="translate(-293.28 -572.5)"/><path d="M1764,2485c52.12-46.52,102.62-91.26,128.58-147" class="cls-1" transform="translate(-293.28 -572.5)"/><path d="M1442.63,2338c8.78,20.78,15,35.41,16.37,31,2.16-6.78,5.79-17.67,10.66-31" class="cls-1" transform="translate(-293.28 -572.5)"/><path d="M1030,2445c-.1-36.51-.81-72.51,1.24-107" class="cls-1" transform="translate(-293.28 -572.5)"/></g></svg>